<svg width="1280" height="720" xmlns="http://www.w3.org/2000/svg" xmlns:xlink="http://www.w3.org/1999/xlink" overflow="hidden"><defs><clipPath id="clip0"><path d="M0 0 1280 0 1280 720 0 720Z" fill-rule="evenodd" clip-rule="evenodd"/></clipPath></defs><g clip-path="url(#clip0)"><rect x="0" y="0" width="1280" height="720" fill="#FFFFFF"/><path d="M291.5 245.5C291.5 141.118 376.118 56.5001 480.5 56.5001 584.882 56.5001 669.5 141.118 669.5 245.5 669.5 349.882 584.882 434.5 480.5 434.5 376.118 434.5 291.5 349.882 291.5 245.5Z" stroke="#BFBFBF" stroke-linejoin="round" stroke-miterlimit="10" fill="#D9D9D9" fill-rule="evenodd" fill-opacity="0.407843"/><path d="M541.5 245.5C541.5 141.118 626.118 56.5001 730.5 56.5001 834.882 56.5001 919.5 141.118 919.5 245.5 919.5 349.882 834.882 434.5 730.5 434.5 626.118 434.5 541.5 349.882 541.5 245.5Z" stroke="#BFBFBF" stroke-linejoin="round" stroke-miterlimit="10" fill="#D9D9D9" fill-rule="evenodd" fill-opacity="0.407843"/><path d="M416.5 462.5C416.5 358.118 501.118 273.5 605.5 273.5 709.882 273.5 794.5 358.118 794.5 462.5 794.5 566.882 709.882 651.5 605.5 651.5 501.118 651.5 416.5 566.882 416.5 462.5Z" stroke="#BFBFBF" stroke-linejoin="round" stroke-miterlimit="10" fill="#D9D9D9" fill-rule="evenodd" fill-opacity="0.407843"/><text font-family="Arial,Arial_MSFontService,sans-serif" font-weight="400" font-size="27" transform="translate(331.98 197)">Data , Process <tspan x="0" y="38">and Change </tspan><tspan x="0" y="77">Management</tspan><tspan x="382.536" y="3">Domain </tspan><tspan x="481.87" y="3">-</tspan><tspan x="382.536" y="41">Business </tspan><tspan x="382.536" y="80">understanding</tspan><tspan x="153.876" y="313">Data Science Tools </tspan><tspan x="389.109" y="313">-</tspan><tspan x="153.876" y="351">Visualization, AI, ML</tspan><tspan fill="#385723" font-weight="700" font-size="24" x="242.059" y="132">aiCue</tspan></text></g></svg>