<svg xmlns="http://www.w3.org/2000/svg" viewBox="0 0 224.22 189.17"><defs><style>.cls-1{fill:#e3e02b;}.cls-1,.cls-2,.cls-3{opacity:0.2;}.cls-2{fill:#f4ad4f;}.cls-3{fill:#5c5da0;}.cls-4{opacity:0.5;}.cls-5{fill:#4d4d4d;}.cls-6{fill:red;}.cls-7{fill:#03c;}</style></defs><g id="Layer_5" data-name="Layer 5"><circle class="cls-1" cx="66.12" cy="64.77" r="57.08"/><circle class="cls-2" cx="157.67" cy="64.77" r="57.08"/><circle class="cls-3" cx="111.74" cy="121.85" r="57.08"/></g><g id="Layer_2" data-name="Layer 2"><g class="cls-4"><path class="cls-5" d="M29,66l0,.23-2.18.85-.25,4.24,2.07,1.09v.24l-6.79-3.6v-.22Zm-2.41,1.17L22.07,69l4.31,2.26Z" transform="translate(-21.84 -9.22)"/><path class="cls-5" d="M29.92,60.88l0,.2-1.48-.26a2.06,2.06,0,0,1,1.12,2.38,2.39,2.39,0,0,1-.37.93,1.79,1.79,0,0,1-2,.69l-3.09-.53,0-.2,3.08.54a1.78,1.78,0,0,0,1.47-.27,1.92,1.92,0,0,0,.65-1.19,2.15,2.15,0,0,0-.46-1.75,2.74,2.74,0,0,0-1.58-.79l-2.49-.43,0-.2Z" transform="translate(-21.84 -9.22)"/><path class="cls-5" d="M30.73,57.66c-.18.71-.73.94-1.63.71l-3.35-.88-.19.73-.19,0,.19-.73-1.19-.31.05-.2,1.19.31.46-1.76.2.05-.47,1.76,3.35.88c.77.21,1.24,0,1.39-.56a1.42,1.42,0,0,0-.08-1l.18-.08A1.57,1.57,0,0,1,30.73,57.66Z" transform="translate(-21.84 -9.22)"/><path class="cls-5" d="M32,53.68a2.86,2.86,0,0,1-.46.84,2.47,2.47,0,0,1-.73.6,2.27,2.27,0,0,1-.95.25,3,3,0,0,1-1.14-.18,2.49,2.49,0,0,1-1.54-1.33,2.55,2.55,0,0,1-.05-1.9,2.48,2.48,0,0,1,.45-.81,2.24,2.24,0,0,1,1.66-.88,2.77,2.77,0,0,1,1.16.18A2.45,2.45,0,0,1,32,53.68Zm-.19-.06a2.5,2.5,0,0,0,.15-.85,2.1,2.1,0,0,0-.16-.85,2.13,2.13,0,0,0-.52-.74,2.79,2.79,0,0,0-1-.54A2.61,2.61,0,0,0,29,50.5a2.08,2.08,0,0,0-1,.53,2.55,2.55,0,0,0-.63,1,2.84,2.84,0,0,0-.16.86,2.2,2.2,0,0,0,.16.84,2,2,0,0,0,.52.74,2.79,2.79,0,0,0,.95.54,2.45,2.45,0,0,0,1.34.13,2.11,2.11,0,0,0,1.07-.55A2.5,2.5,0,0,0,31.79,53.62Z" transform="translate(-21.84 -9.22)"/><path class="cls-5" d="M34.38,50.83,34.3,51l-.9-.8a.23.23,0,0,1-.31.08.23.23,0,0,1-.14-.15A.25.25,0,0,1,33,50a.24.24,0,0,1,.13-.13.22.22,0,0,1,.21,0,.65.65,0,0,1,.21.16Z" transform="translate(-21.84 -9.22)"/><path class="cls-5" d="M39,39.9l-.1.17-5.79-3.56,3.46,5.87h0l-6.8-.46,5.78,3.57-.1.17-6-3.67.19-.3,6.53.45-3.34-5.62.18-.3Z" transform="translate(-21.84 -9.22)"/><path class="cls-5" d="M42.62,35.36l-.13.16-.91-.73a2.33,2.33,0,0,1-.46,2.42,1.7,1.7,0,0,1-1.14.7,1.49,1.49,0,0,1-1.08-.33,1.08,1.08,0,0,1-.44-1.07,2.75,2.75,0,0,1,.62-1.26l1.21-1.49-.49-.4A1.55,1.55,0,0,0,38.69,33a1.67,1.67,0,0,0-1.11.71A2.85,2.85,0,0,0,37,35.54h-.2a3.05,3.05,0,0,1,.63-2,1.8,1.8,0,0,1,1.26-.78,1.76,1.76,0,0,1,1.23.44ZM41,37.08a2.15,2.15,0,0,0,.26-2.57l-.79-.62-1.21,1.49a2.8,2.8,0,0,0-.57,1.11.92.92,0,0,0,.37.94,1.25,1.25,0,0,0,.93.29A1.5,1.5,0,0,0,41,37.08Z" transform="translate(-21.84 -9.22)"/><path class="cls-5" d="M47,30.84l-.14.14-2.2-2.18a2,2,0,0,0-.91-.57,1.39,1.39,0,0,0-.88.05,2.44,2.44,0,0,0-.79.53,2,2,0,0,0,0,3l2,2-.14.14-3.67-3.65.14-.14,1,1a2.12,2.12,0,0,1,.5-2.58,2.22,2.22,0,0,1,1-.63,1.56,1.56,0,0,1,1,.05,2.49,2.49,0,0,1,.89.58Z" transform="translate(-21.84 -9.22)"/><path class="cls-5" d="M51.62,27l-.16.12-1-1.17a2,2,0,0,1-.72,2.52,2.41,2.41,0,0,1-.9.46A1.8,1.8,0,0,1,47,28.12l-2-2.44.16-.12,2,2.43a1.75,1.75,0,0,0,1.28.77,1.85,1.85,0,0,0,1.28-.47,2.16,2.16,0,0,0,.81-1.62,2.71,2.71,0,0,0-.67-1.62l-1.59-2,.16-.13Z" transform="translate(-21.84 -9.22)"/><path class="cls-5" d="M53.55,25.63l-.16.12-2.75-4-.54.37L50,21.93l.54-.37-.47-.68a1.69,1.69,0,0,1-.32-1.18,1.33,1.33,0,0,1,.62-1,1.64,1.64,0,0,1,.81-.28v.21a1.37,1.37,0,0,0-.72.23,1.25,1.25,0,0,0-.51.79,1.34,1.34,0,0,0,.28,1.09l.46.69,1.39-.95.11.16-1.38.95Z" transform="translate(-21.84 -9.22)"/><path class="cls-5" d="M58.81,22.39l-.17.1-.6-1a2.32,2.32,0,0,1-1.29,2.1,1.62,1.62,0,0,1-1.31.24,1.51,1.51,0,0,1-.89-.69,1.09,1.09,0,0,1,0-1.15,2.75,2.75,0,0,1,1-1l1.66-1-.32-.54a1.55,1.55,0,0,0-.89-.76,1.63,1.63,0,0,0-1.29.27,2.84,2.84,0,0,0-1.21,1.53l-.18-.08a3.06,3.06,0,0,1,1.29-1.62,1.8,1.8,0,0,1,1.46-.29,1.77,1.77,0,0,1,1,.85Zm-2.15,1a2.15,2.15,0,0,0,1.16-2.31l-.51-.86-1.66,1a2.57,2.57,0,0,0-.93.84.89.89,0,0,0,0,1,1.25,1.25,0,0,0,.76.61A1.48,1.48,0,0,0,56.66,23.41Z" transform="translate(-21.84 -9.22)"/><path class="cls-5" d="M62.26,20.72a2.81,2.81,0,0,1-.92.25,2.5,2.5,0,0,1-.94-.1,2.32,2.32,0,0,1-.84-.51,2.86,2.86,0,0,1-.66-.95,2.43,2.43,0,0,1-.12-2A2.54,2.54,0,0,1,60.1,16a2.44,2.44,0,0,1,1.89-.1l-.06.18a2.33,2.33,0,0,0-1.74.1,2.7,2.7,0,0,0-.73.5,2.05,2.05,0,0,0-.49.72,2,2,0,0,0-.16.89,2.56,2.56,0,0,0,.26,1,2.29,2.29,0,0,0,1.34,1.31,2.32,2.32,0,0,0,1.77-.1,2.27,2.27,0,0,0,1.27-1.41l.17.08A2.42,2.42,0,0,1,62.26,20.72Z" transform="translate(-21.84 -9.22)"/><path class="cls-5" d="M66.69,18.93c-.69.25-1.19-.06-1.51-.94L64,14.75l-.71.26-.07-.19.71-.26L63.5,13.4l.19-.07.42,1.16,1.71-.63.07.19-1.71.63,1.19,3.24c.27.76.69,1,1.25.82a1.34,1.34,0,0,0,.74-.61l.17.11A1.64,1.64,0,0,1,66.69,18.93Z" transform="translate(-21.84 -9.22)"/><path class="cls-5" d="M72.82,17.1l-.19,0-.39-1.46a2.06,2.06,0,0,1-1.68,2,2.17,2.17,0,0,1-1,.06,1.78,1.78,0,0,1-1.46-1.5l-.82-3,.2-.05.82,3a1.77,1.77,0,0,0,.85,1.22,1.91,1.91,0,0,0,1.36.08,2.13,2.13,0,0,0,1.39-1.16,2.69,2.69,0,0,0,0-1.76l-.66-2.44.19-.05Z" transform="translate(-21.84 -9.22)"/><path class="cls-5" d="M75.1,16.66l-.2,0L74,11.61l.2,0L74.42,13a1.92,1.92,0,0,1,1.69-1.74l0,.25c-1.18.21-1.7,1-1.57,2.4Z" transform="translate(-21.84 -9.22)"/><path class="cls-5" d="M77.42,9.74a.27.27,0,0,1-.19-.06.25.25,0,0,1-.1-.17.23.23,0,0,1,.05-.2.32.32,0,0,1,.17-.09.33.33,0,0,1,.19,0,.24.24,0,0,1,.1.18.26.26,0,0,1-.22.3Zm.94,6.4-.19,0L77.49,11l.2,0Z" transform="translate(-21.84 -9.22)"/><path class="cls-5" d="M84.83,15.62h-.2l-.17-3.09a2.17,2.17,0,0,0-.3-1,1.32,1.32,0,0,0-.69-.54,2.19,2.19,0,0,0-.94-.13,2,2,0,0,0-2.06,2.22l.16,2.81h-.2l-.29-5.17h.2l.08,1.46a2.11,2.11,0,0,1,2.1-1.58,2.2,2.2,0,0,1,1.17.2,1.66,1.66,0,0,1,.7.69,2.61,2.61,0,0,1,.27,1Z" transform="translate(-21.84 -9.22)"/><path class="cls-5" d="M88.41,17.66a2.82,2.82,0,0,1-2-1l.15-.13a2.63,2.63,0,0,0,1.89.94A2.32,2.32,0,0,0,90.06,17a2.24,2.24,0,0,0,.74-1.69l0-1.08a2.3,2.3,0,0,1-.85,1,2.35,2.35,0,0,1-1.45.33,2.32,2.32,0,0,1-1.28-.41,2.19,2.19,0,0,1-.78-.95,2.71,2.71,0,0,1-.22-1.24,2.34,2.34,0,0,1,2.54-2.37,2.34,2.34,0,0,1,1.41.48A2.37,2.37,0,0,1,91,12.15L91,10.67h.2L91,15.27a2.76,2.76,0,0,1-.4,1.4,2,2,0,0,1-.92.78A2.91,2.91,0,0,1,88.41,17.66Zm.15-2.32a2.18,2.18,0,0,0,1.25-.26,2.12,2.12,0,0,0,.8-.83,2.57,2.57,0,0,0,.3-1.08,2.34,2.34,0,0,0-.53-1.67,2,2,0,0,0-1.58-.75,2.2,2.2,0,0,0-1.23.25,2.05,2.05,0,0,0-.8.8,2.68,2.68,0,0,0-.31,1.14,3,3,0,0,0,.09.85,2.26,2.26,0,0,0,.36.75,1.85,1.85,0,0,0,.67.56A2.4,2.4,0,0,0,88.56,15.34Z" transform="translate(-21.84 -9.22)"/></g><g class="cls-4"><path class="cls-5" d="M219,28.82l-.16-.12,4-5.47-6.14,3h0l1-6.74-4,5.47-.16-.12,4.16-5.62.28.21-1,6.46L222.84,23l.28.21Z" transform="translate(-21.84 -9.22)"/><path class="cls-5" d="M223.14,32.75l-2.42-2.29,4.8-5.08.15.14L221,30.45l2.27,2.16Z" transform="translate(-21.84 -9.22)"/><path class="cls-5" d="M222.82,34.2l-.14-.14,1.09-.51a.23.23,0,0,1,0-.32.29.29,0,0,1,.2-.07.26.26,0,0,1,.17.09.24.24,0,0,1,.07.17.24.24,0,0,1-.08.19.61.61,0,0,1-.22.13Z" transform="translate(-21.84 -9.22)"/><path class="cls-5" d="M230.36,41.68l-.14-.18,1.14-2L228.85,36l-2.29.48-.14-.2L234,34.76l.13.17Zm1.1-2.43L233.83,35l-4.76,1Z" transform="translate(-21.84 -9.22)"/><path class="cls-5" d="M231.07,43l-.11-.17,6-3.66.1.17Z" transform="translate(-21.84 -9.22)"/><path class="cls-5" d="M234.28,49l-.08-.18L240.37,46l-1-2.18.19-.08,2.08,4.54-.18.08-1-2.18Z" transform="translate(-21.84 -9.22)"/><path class="cls-5" d="M236.3,54.05a2.73,2.73,0,0,1-.16-.94,2.44,2.44,0,0,1,.19-.92,2.41,2.41,0,0,1,.58-.79,3.05,3.05,0,0,1,1-.56,2.44,2.44,0,0,1,3.26,1.52,2.91,2.91,0,0,1,.15.92,2.43,2.43,0,0,1-.18.92,2.27,2.27,0,0,1-.57.8,2.94,2.94,0,0,1-1,.58,2.44,2.44,0,0,1-3.26-1.53Zm.18-.06a2.69,2.69,0,0,0,.42.76,2.08,2.08,0,0,0,.65.56,2.16,2.16,0,0,0,.87.25,2.7,2.7,0,0,0,1.08-.17,2.5,2.5,0,0,0,1.14-.73,2,2,0,0,0,.47-1,2.41,2.41,0,0,0-.12-1.18,2.43,2.43,0,0,0-.41-.76,2.06,2.06,0,0,0-.65-.56,1.88,1.88,0,0,0-.87-.25A2.66,2.66,0,0,0,238,51a2.55,2.55,0,0,0-1.14.74,2.06,2.06,0,0,0-.48,1.09A2.59,2.59,0,0,0,236.48,54Z" transform="translate(-21.84 -9.22)"/><path class="cls-5" d="M237.94,59.74a2.6,2.6,0,0,1-.06-1,2.3,2.3,0,0,1,1-1.62,2.86,2.86,0,0,1,1.06-.46A2.44,2.44,0,0,1,243,58.56a2.92,2.92,0,0,1,.06.93,2.32,2.32,0,0,1-.28.89,2.27,2.27,0,0,1-.65.74,2.7,2.7,0,0,1-1.07.47,2.43,2.43,0,0,1-2-.29A2.47,2.47,0,0,1,237.94,59.74Zm.19-.05a2.81,2.81,0,0,0,.33.8,2.05,2.05,0,0,0,.59.62,2.1,2.1,0,0,0,.84.34A2.73,2.73,0,0,0,241,61.4a2.43,2.43,0,0,0,1.21-.61,2.19,2.19,0,0,0,.59-1,2.61,2.61,0,0,0,0-1.18,2.81,2.81,0,0,0-.33-.8,2.22,2.22,0,0,0-.59-.63,2.1,2.1,0,0,0-.84-.34,2.76,2.76,0,0,0-1.09.06,2.53,2.53,0,0,0-1.2.61,2.13,2.13,0,0,0-.6,1A2.44,2.44,0,0,0,238.13,59.69Z" transform="translate(-21.84 -9.22)"/><path class="cls-5" d="M238.81,64.31c-.07-.46.19-.74.77-.86l6.45-1,0,.19-6.45,1c-.46.07-.66.29-.6.64a.87.87,0,0,0,.39.54l-.12.15A1,1,0,0,1,238.81,64.31Z" transform="translate(-21.84 -9.22)"/><path class="cls-5" d="M239.16,67.23a2.58,2.58,0,0,1,.54-1.91l.16.11a2.38,2.38,0,0,0-.5,1.78,2,2,0,0,0,.36,1,1.09,1.09,0,0,0,.87.43.88.88,0,0,0,.78-.52,4.39,4.39,0,0,0,.32-1.09,3.19,3.19,0,0,1,.56-1.43,1,1,0,0,1,.67-.31,1,1,0,0,1,1,.4,2.12,2.12,0,0,1,.4,1.11,2.67,2.67,0,0,1-.23,1.41l-.18-.08a2.31,2.31,0,0,0,.22-1.3,2.15,2.15,0,0,0-.33-1,.82.82,0,0,0-.83-.35.8.8,0,0,0-.65.39,1.87,1.87,0,0,0-.28.79,6.41,6.41,0,0,1-.22,1,2.9,2.9,0,0,1-.44.9,1,1,0,0,1-.71.31,1.22,1.22,0,0,1-.8-.17,1.53,1.53,0,0,1-.49-.6A2.81,2.81,0,0,1,239.16,67.23Z" transform="translate(-21.84 -9.22)"/></g><g class="cls-4"><path class="cls-5" d="M173.25,174.79a3.43,3.43,0,0,1,1.2-.82,3.21,3.21,0,0,1,1.35-.25,3.32,3.32,0,0,1,2.43,1l.06.05a3.21,3.21,0,0,1,1,2.51,3.65,3.65,0,0,1-.29,1.34,3.55,3.55,0,0,1-.79,1.14,3.38,3.38,0,0,1-2.37,1v-.18a3.23,3.23,0,0,0,2.23-1,3.35,3.35,0,0,0,1-2.36,3.14,3.14,0,0,0-1-2.41,3,3,0,0,0-2.36-.94,3.32,3.32,0,0,0-1.27.27,3.46,3.46,0,0,0-1.09.74,3.35,3.35,0,0,0-1,2.2h-.19A3.56,3.56,0,0,1,173.25,174.79Z" transform="translate(-21.84 -9.22)"/><path class="cls-5" d="M169.84,177.85c.35-.3.73-.23,1.13.22l4.19,5-.14.13-4.19-5c-.3-.35-.59-.42-.87-.19a.89.89,0,0,0-.25.62l-.19,0A1.05,1.05,0,0,1,169.84,177.85Z" transform="translate(-21.84 -9.22)"/><path class="cls-5" d="M166.85,180.15a2.81,2.81,0,0,1,.85-.42,2.49,2.49,0,0,1,.94-.08,2.29,2.29,0,0,1,.93.34,3,3,0,0,1,.83.8,2.42,2.42,0,0,1,.5,2,2.51,2.51,0,0,1-1,1.59,3,3,0,0,1-.84.41,2.42,2.42,0,0,1-.93.09,2.35,2.35,0,0,1-.93-.32,2.81,2.81,0,0,1-.85-.81,2.47,2.47,0,0,1-.51-2A2.54,2.54,0,0,1,166.85,180.15Zm.11.17a2.52,2.52,0,0,0-.61.61,2.2,2.2,0,0,0-.35.78,2.33,2.33,0,0,0,0,.91,3,3,0,0,0,.47,1,2.55,2.55,0,0,0,1,.88,2.08,2.08,0,0,0,1.15.15,2.57,2.57,0,0,0,1.7-1.07,2,2,0,0,0,.34-1.68,2.51,2.51,0,0,0-.47-1,2.4,2.4,0,0,0-1-.88,2.08,2.08,0,0,0-1.19-.15A2.42,2.42,0,0,0,167,180.32Z" transform="translate(-21.84 -9.22)"/><path class="cls-5" d="M159.93,184.46l.17-.1.75,1.31A2,2,0,0,1,162,183.3a2.31,2.31,0,0,1,1-.31,1.8,1.8,0,0,1,1.79,1.09l1.55,2.72-.18.1-1.55-2.72a1.7,1.7,0,0,0-1.13-1,1.87,1.87,0,0,0-1.34.25,2.2,2.2,0,0,0-1.06,1.47,2.74,2.74,0,0,0,.4,1.72l1.25,2.19-.17.1Z" transform="translate(-21.84 -9.22)"/><path class="cls-5" d="M156.31,186.15a2.37,2.37,0,0,1,2.6.36,2.84,2.84,0,0,1,.75,1,2.6,2.6,0,0,1,.23,1.44,2.37,2.37,0,0,1-.5,1.17,2.74,2.74,0,0,1-1,.77,2.28,2.28,0,0,1-2.76-.51l1.52,3.51-.19.08L154,187.15l.18-.08.6,1.4a2.4,2.4,0,0,1,.32-1.34A2.46,2.46,0,0,1,156.31,186.15Zm.08.18a2.36,2.36,0,0,0-1,.8,2.16,2.16,0,0,0-.39,1.12,2.62,2.62,0,0,0,.22,1.19,2.43,2.43,0,0,0,1.25,1.31,2.19,2.19,0,0,0,1.84,0,2.31,2.31,0,0,0,1-.81,2.15,2.15,0,0,0,.38-1.12,2.62,2.62,0,0,0-.22-1.19,2.79,2.79,0,0,0-.7-1,2.11,2.11,0,0,0-1.07-.49A2.31,2.31,0,0,0,156.39,186.33Z" transform="translate(-21.84 -9.22)"/><path class="cls-5" d="M152,186.56l.19-.07v1.21a.22.22,0,0,1,.27.17.2.2,0,0,1,0,.2.27.27,0,0,1-.15.13.25.25,0,0,1-.19,0A.29.29,0,0,1,152,188a.57.57,0,0,1,0-.26Z" transform="translate(-21.84 -9.22)"/><path class="cls-5" d="M140.84,190.57l.2,0,1.29,6.68,2-6.52h0l4.25,5.33-1.28-6.68.2,0,1.32,6.86-.35.07-4.08-5.11-1.89,6.26-.34.06Z" transform="translate(-21.84 -9.22)"/><path class="cls-5" d="M136.72,190.85a2.78,2.78,0,0,1,.95.11,2.44,2.44,0,0,1,.83.43,2.14,2.14,0,0,1,.6.78,2.93,2.93,0,0,1,.27,1.12,2.44,2.44,0,0,1-.63,1.94A2.53,2.53,0,0,1,137,196a3,3,0,0,1-.93-.1,2.44,2.44,0,0,1-.83-.43,2.24,2.24,0,0,1-.61-.77,2.72,2.72,0,0,1-.28-1.13,2.44,2.44,0,0,1,.63-1.94A2.5,2.5,0,0,1,136.72,190.85Zm0,.2a2.76,2.76,0,0,0-.85.19,2.2,2.2,0,0,0-.71.47,2.1,2.1,0,0,0-.48.77,2.66,2.66,0,0,0-.13,1.09,2.52,2.52,0,0,0,.39,1.29,2.11,2.11,0,0,0,.88.75,2.42,2.42,0,0,0,1.17.2,2.7,2.7,0,0,0,.84-.19,2,2,0,0,0,.72-.47,1.94,1.94,0,0,0,.48-.77,2.76,2.76,0,0,0,.13-1.08,2.48,2.48,0,0,0-.39-1.28,2.11,2.11,0,0,0-.92-.77A2.46,2.46,0,0,0,136.73,191.05Z" transform="translate(-21.84 -9.22)"/><path class="cls-5" d="M130.19,190.85a2.41,2.41,0,0,1,1.46.5,2.29,2.29,0,0,1,.76,1.14l.08-1.52h.2l-.39,7.41h-.2l.2-3.77a2.36,2.36,0,0,1-.87,1,2.41,2.41,0,0,1-1.51.35,2.86,2.86,0,0,1-.92-.2,2.18,2.18,0,0,1-.78-.52,2.32,2.32,0,0,1-.53-.84,2.83,2.83,0,0,1-.14-1.16,2.78,2.78,0,0,1,.2-.94,2.49,2.49,0,0,1,.52-.81,2.3,2.3,0,0,1,.81-.54A2.77,2.77,0,0,1,130.19,190.85Zm0,.2a2.29,2.29,0,0,0-1.28.26,2.2,2.2,0,0,0-.83.83,2.68,2.68,0,0,0-.32,1.16,2.43,2.43,0,0,0,.53,1.74,2.17,2.17,0,0,0,1.65.77,2.64,2.64,0,0,0,.83-.09,2.31,2.31,0,0,0,.77-.38,2.07,2.07,0,0,0,.57-.72,2.6,2.6,0,0,0,.26-1.08,3.29,3.29,0,0,0-.09-.88,2.46,2.46,0,0,0-.38-.78,2.18,2.18,0,0,0-.69-.58A2.47,2.47,0,0,0,130.18,191.05Z" transform="translate(-21.84 -9.22)"/><path class="cls-5" d="M125.25,196.87a.25.25,0,0,1,.16.11.21.21,0,0,1,.06.18.25.25,0,0,1-.11.19.3.3,0,0,1-.18,0,.28.28,0,0,1-.17-.09.23.23,0,0,1-.06-.2.28.28,0,0,1,.09-.17A.24.24,0,0,1,125.25,196.87Zm.74-6.43.19,0-.67,5.13-.2,0Z" transform="translate(-21.84 -9.22)"/><path class="cls-5" d="M123.24,190c.46.08.65.42.56,1l-1.12,6.43-.19,0,1.12-6.42c.09-.46,0-.72-.41-.78a.84.84,0,0,0-.63.2l-.11-.16A1.07,1.07,0,0,1,123.24,190Z" transform="translate(-21.84 -9.22)"/><path class="cls-5" d="M119.56,189.21a2.78,2.78,0,0,1,.86.39,2.27,2.27,0,0,1,.65.66,2.38,2.38,0,0,1,.35.92,2.88,2.88,0,0,1-.08,1.15,2.46,2.46,0,0,1-1.17,1.66,2.53,2.53,0,0,1-1.87.24,2.24,2.24,0,0,1-1.53-1.15,2.72,2.72,0,0,1-.17-1.94l4.55,1.14a3.21,3.21,0,0,0,.09-.95,2.15,2.15,0,0,0-.23-.78,1.92,1.92,0,0,0-.46-.6,2.41,2.41,0,0,0-1-.54,2.37,2.37,0,0,0-2,.28l-.1-.17A2.62,2.62,0,0,1,119.56,189.21Zm-2.82,2.18a2.9,2.9,0,0,0,0,1.14,1.93,1.93,0,0,0,.5.93,2.22,2.22,0,0,0,1.09.57,2.12,2.12,0,0,0,1.72-.19,2.6,2.6,0,0,0,1-1.37Z" transform="translate(-21.84 -9.22)"/><path class="cls-5" d="M116.65,187.15l.19.06-.71,1a.23.23,0,0,1,.12.29.26.26,0,0,1-.33.17.29.29,0,0,1-.15-.12.27.27,0,0,1,0-.2.55.55,0,0,1,.14-.22Z" transform="translate(-21.84 -9.22)"/><path class="cls-5" d="M105.92,183.91l.19.1-1,7,5-5,.19.1-1,7.31-.21-.1,1-7.06-5,5.07-.2-.1,1-7.06-5,5.07-.2-.1Z" transform="translate(-21.84 -9.22)"/><path class="cls-5" d="M101.42,181.1a2.76,2.76,0,0,1,.67.65,2.29,2.29,0,0,1,.41,1.84,3,3,0,0,1-.47,1,2.43,2.43,0,0,1-1.67,1.16,2.48,2.48,0,0,1-1.83-.41,2.22,2.22,0,0,1-1-1.6,2.68,2.68,0,0,1,.5-1.88l3.89,2.62a2.8,2.8,0,0,0,.4-.87,1.88,1.88,0,0,0,.06-.81,2,2,0,0,0-.23-.71,2.35,2.35,0,0,0-.79-.87,2.42,2.42,0,0,0-1.94-.41l0-.19A2.6,2.6,0,0,1,101.42,181.1ZM98,182.18a2.9,2.9,0,0,0-.37,1.08,1.9,1.9,0,0,0,.15,1.05,2.21,2.21,0,0,0,.83.91,2.13,2.13,0,0,0,1.68.41,2.67,2.67,0,0,0,1.43-.94Z" transform="translate(-21.84 -9.22)"/><path class="cls-5" d="M96.34,177.24a2.42,2.42,0,0,1,.87,1.28,2.46,2.46,0,0,1-.08,1.37l1-1.16.15.13-4.79,5.66-.15-.12,2.43-2.88a2.37,2.37,0,0,1-1.33.3,2.47,2.47,0,0,1-1.41-.63,2.78,2.78,0,0,1-.61-.72,2.21,2.21,0,0,1-.31-.88,2.26,2.26,0,0,1,.09-1A3.12,3.12,0,0,1,93.5,177a2.4,2.4,0,0,1,.89-.33,2.29,2.29,0,0,1,1,.06A2.55,2.55,0,0,1,96.34,177.24Zm-.13.15a2.26,2.26,0,0,0-1.17-.56,2.09,2.09,0,0,0-1.16.16,2.62,2.62,0,0,0-1,.73,2.43,2.43,0,0,0-.62,1.7,2.15,2.15,0,0,0,.85,1.61,2.38,2.38,0,0,0,.72.43,2,2,0,0,0,.84.16,2,2,0,0,0,.88-.22,2.61,2.61,0,0,0,.86-.7,2.58,2.58,0,0,0,.46-.76,2.26,2.26,0,0,0,.17-.85,2.13,2.13,0,0,0-.2-.88A2.34,2.34,0,0,0,96.21,177.39Z" transform="translate(-21.84 -9.22)"/></g></g><g id="Layer_4" data-name="Layer 4"><path class="cls-6" d="M59.64,59.76a15.93,15.93,0,0,1,2.22-.16,4.65,4.65,0,0,1,3.28,1,3.74,3.74,0,0,1,1.14,2.91,4.28,4.28,0,0,1-1.17,3.14,5,5,0,0,1-3.57,1.16,17,17,0,0,1-1.9-.09Zm1,7.15a6.25,6.25,0,0,0,1.05.06,3.11,3.11,0,0,0,3.44-3.43c0-1.91-1.06-3.12-3.27-3.12a5.82,5.82,0,0,0-1.22.11Z" transform="translate(-21.84 -9.22)"/><path class="cls-6" d="M70.36,67.74a3.31,3.31,0,0,1-1.13-.19,2.82,2.82,0,0,1-1-.58,2.85,2.85,0,0,1-.67-1,3.61,3.61,0,0,1-.24-1.37,2.91,2.91,0,0,1,.89-2.27,3,3,0,0,1,2.12-.82,3.47,3.47,0,0,1,1.1.18,2.89,2.89,0,0,1,1,.57,2.73,2.73,0,0,1,.68,1,3.27,3.27,0,0,1,.26,1.38,2.93,2.93,0,0,1-.89,2.28A3,3,0,0,1,70.36,67.74Zm0-.24a3.21,3.21,0,0,0,1-.17,2.43,2.43,0,0,0,.89-.52,2.56,2.56,0,0,0,.63-.89,3.34,3.34,0,0,0,.23-1.29,3.05,3.05,0,0,0-.38-1.58,2.49,2.49,0,0,0-1-.95,2.92,2.92,0,0,0-1.38-.32,3.26,3.26,0,0,0-1,.16,2.74,2.74,0,0,0-.89.52,2.41,2.41,0,0,0-.62.89,3.15,3.15,0,0,0-.23,1.28A3,3,0,0,0,68,66.2a2.61,2.61,0,0,0,1,1A3,3,0,0,0,70.36,67.5Z" transform="translate(-21.84 -9.22)"/><path class="cls-6" d="M85.43,67.74h-.24V64a2.18,2.18,0,0,0-.59-1.66,2.21,2.21,0,0,0-1.54-.54,2.57,2.57,0,0,0-2,.88,3.24,3.24,0,0,0-.61,2v3h-.24V64A2.52,2.52,0,0,0,80,62.71a1.7,1.7,0,0,0-.77-.71,2.57,2.57,0,0,0-1.1-.22,2.74,2.74,0,0,0-1.3.3,2.25,2.25,0,0,0-.92,1,3.63,3.63,0,0,0-.33,1.66v3h-.25v-6.2h.25v1.77a2.46,2.46,0,0,1,2.56-1.77,2.14,2.14,0,0,1,2.34,1.89,2.47,2.47,0,0,1,2.6-1.89,2.21,2.21,0,0,1,1.81.68A2.71,2.71,0,0,1,85.43,64Z" transform="translate(-21.84 -9.22)"/><path class="cls-6" d="M92.17,67.74h-.23l0-1.4a2.79,2.79,0,0,1-2.6,1.4,2,2,0,0,1-1.51-.54A1.77,1.77,0,0,1,87.3,66,1.3,1.3,0,0,1,88,64.73a3.29,3.29,0,0,1,1.64-.37h2.3V63.6a1.89,1.89,0,0,0-.47-1.33,2,2,0,0,0-1.5-.49,3.37,3.37,0,0,0-2.17.86l-.14-.19a3.63,3.63,0,0,1,2.31-.91,2.16,2.16,0,0,1,1.69.58,2.12,2.12,0,0,1,.52,1.48Zm-2.84-.24a2.57,2.57,0,0,0,2.59-1.7V64.6h-2.3a3.08,3.08,0,0,0-1.47.31,1.08,1.08,0,0,0-.6,1A1.51,1.51,0,0,0,88,67,1.74,1.74,0,0,0,89.33,67.5Z" transform="translate(-21.84 -9.22)"/><path class="cls-6" d="M94.73,60a.3.3,0,0,1-.21-.1.28.28,0,0,1-.1-.22.26.26,0,0,1,.1-.23.32.32,0,0,1,.42,0,.26.26,0,0,1,.1.23.32.32,0,0,1-.08.22A.29.29,0,0,1,94.73,60Zm.12,7.76h-.24v-6.2h.24Z" transform="translate(-21.84 -9.22)"/><path class="cls-6" d="M102.78,67.74h-.24V64a2.35,2.35,0,0,0-.29-1.26,1.71,1.71,0,0,0-.78-.7,2.7,2.7,0,0,0-1.12-.22,2.41,2.41,0,0,0-2.62,2.53v3.37h-.24v-6.2h.24v1.75a2.52,2.52,0,0,1,2.62-1.75,2.66,2.66,0,0,1,1.4.32,1.93,1.93,0,0,1,.78.87,3,3,0,0,1,.25,1.25Z" transform="translate(-21.84 -9.22)"/><path class="cls-6" d="M117.56,155.61h-3.41v-8.4h3.45a4.28,4.28,0,0,1,3.12,1.19,4.31,4.31,0,0,1,0,6A4.36,4.36,0,0,1,117.56,155.61Zm.07-1.27a2.88,2.88,0,0,0,2-.8,3.09,3.09,0,0,0,0-4.27,3,3,0,0,0-2.07-.79h-2v5.86Z" transform="translate(-21.84 -9.22)"/><path class="cls-6" d="M123.79,147.84a.31.31,0,0,1-.31-.31.26.26,0,0,1,.1-.23.32.32,0,0,1,.42,0,.26.26,0,0,1,.1.23.28.28,0,0,1-.08.21A.26.26,0,0,1,123.79,147.84Zm.12,7.77h-.24V149.4h.24Z" transform="translate(-21.84 -9.22)"/><path class="cls-6" d="M128.71,157.94a3.43,3.43,0,0,1-2.5-1.08l.17-.17a3.18,3.18,0,0,0,2.33,1,2.76,2.76,0,0,0,1.93-.7,2.67,2.67,0,0,0,.78-2.08v-1.3a2.74,2.74,0,0,1-1,1.28,2.77,2.77,0,0,1-1.71.49,2.88,2.88,0,0,1-1.56-.41,2.66,2.66,0,0,1-1-1.09,3.2,3.2,0,0,1-.35-1.48,2.84,2.84,0,0,1,2.9-3,2.65,2.65,0,0,1,2.67,1.78V149.4h.24v5.51a3.33,3.33,0,0,1-.39,1.71,2.44,2.44,0,0,1-1.05,1A3.38,3.38,0,0,1,128.71,157.94Zm0-2.79a2.64,2.64,0,0,0,1.47-.39,2.52,2.52,0,0,0,.91-1,3.17,3.17,0,0,0,.29-1.32,2.74,2.74,0,0,0-.73-2,2.47,2.47,0,0,0-1.94-.81,2.66,2.66,0,0,0-1.46.38,2.37,2.37,0,0,0-.9,1,3,3,0,0,0-.31,1.38,3.1,3.1,0,0,0,.16,1,3,3,0,0,0,.48.89,2.35,2.35,0,0,0,.83.62A3,3,0,0,0,128.75,155.15Z" transform="translate(-21.84 -9.22)"/><path class="cls-6" d="M134.23,147.84a.31.31,0,0,1-.31-.31.26.26,0,0,1,.1-.23.32.32,0,0,1,.42,0,.26.26,0,0,1,.1.23.28.28,0,0,1-.08.21A.26.26,0,0,1,134.23,147.84Zm.12,7.77h-.24V149.4h.24Z" transform="translate(-21.84 -9.22)"/><path class="cls-6" d="M138.5,155.61c-.88,0-1.32-.56-1.32-1.69v-4.15h-.91v-.23h.91v-1.48h.24v1.48h2.19v.23h-2.19v4.15c0,1,.36,1.45,1.08,1.45a1.67,1.67,0,0,0,1.08-.39l.15.2A2.09,2.09,0,0,1,138.5,155.61Z" transform="translate(-21.84 -9.22)"/><path class="cls-6" d="M145.64,155.61h-.24V154.2a2.78,2.78,0,0,1-2.6,1.41,2,2,0,0,1-1.51-.54,1.77,1.77,0,0,1-.51-1.25,1.29,1.29,0,0,1,.67-1.22,3.27,3.27,0,0,1,1.63-.38h2.31v-.75a1.88,1.88,0,0,0-.47-1.33,2,2,0,0,0-1.5-.5,3.39,3.39,0,0,0-2.17.87l-.15-.2a3.73,3.73,0,0,1,2.32-.91,1.93,1.93,0,0,1,2.21,2.07Zm-2.84-.24a2.57,2.57,0,0,0,2.59-1.71v-1.2h-2.31a3.26,3.26,0,0,0-1.47.31,1.1,1.1,0,0,0-.59,1,1.52,1.52,0,0,0,.43,1.09A1.78,1.78,0,0,0,142.8,155.37Z" transform="translate(-21.84 -9.22)"/><path class="cls-6" d="M148.86,155.61c-.56,0-.85-.36-.88-1.08V146.7h.23v7.83c0,.56.22.84.65.84a1.05,1.05,0,0,0,.71-.37l.15.16A1.24,1.24,0,0,1,148.86,155.61Z" transform="translate(-21.84 -9.22)"/><path class="cls-6" d="M157,68.27H153.6v-8.4H157a4.25,4.25,0,0,1,3.12,1.19,4.3,4.3,0,0,1,0,6A4.37,4.37,0,0,1,157,68.27Zm.07-1.27a2.86,2.86,0,0,0,2-.8,3.08,3.08,0,0,0,0-4.27,3,3,0,0,0-2.07-.79h-2V67Z" transform="translate(-21.84 -9.22)"/><path class="cls-6" d="M167.42,68.27h-.24V66.86a2.79,2.79,0,0,1-2.6,1.41,2,2,0,0,1-1.51-.54,1.77,1.77,0,0,1-.51-1.25,1.3,1.3,0,0,1,.66-1.22,3.34,3.34,0,0,1,1.64-.38h2.31v-.75a1.88,1.88,0,0,0-.47-1.33,2,2,0,0,0-1.5-.5,3.39,3.39,0,0,0-2.17.87l-.15-.19a3.67,3.67,0,0,1,2.32-.92,2.14,2.14,0,0,1,1.68.59,2.11,2.11,0,0,1,.53,1.48ZM164.58,68a2.57,2.57,0,0,0,2.59-1.71v-1.2h-2.31a3.13,3.13,0,0,0-1.47.32,1.08,1.08,0,0,0-.59,1,1.52,1.52,0,0,0,.43,1.09A1.78,1.78,0,0,0,164.58,68Z" transform="translate(-21.84 -9.22)"/><path class="cls-6" d="M171.37,68.27c-.88,0-1.32-.56-1.32-1.69V62.44h-.91V62.2h.91V60.72h.24V62.2h2.18v.24h-2.18v4.14c0,1,.36,1.45,1.08,1.45a1.67,1.67,0,0,0,1.08-.39l.14.2A2,2,0,0,1,171.37,68.27Z" transform="translate(-21.84 -9.22)"/><path class="cls-6" d="M178.51,68.27h-.24V66.86a2.79,2.79,0,0,1-2.61,1.41,2,2,0,0,1-1.5-.54,1.77,1.77,0,0,1-.51-1.25,1.3,1.3,0,0,1,.66-1.22,3.31,3.31,0,0,1,1.64-.38h2.31v-.75a1.88,1.88,0,0,0-.47-1.33,2,2,0,0,0-1.5-.5,3.37,3.37,0,0,0-2.17.87L174,63a3.67,3.67,0,0,1,2.32-.92,2.14,2.14,0,0,1,1.68.59,2.11,2.11,0,0,1,.53,1.48ZM175.67,68a2.58,2.58,0,0,0,2.59-1.71v-1.2h-2.31a3.13,3.13,0,0,0-1.47.32,1.08,1.08,0,0,0-.59,1,1.52,1.52,0,0,0,.43,1.09A1.78,1.78,0,0,0,175.67,68Z" transform="translate(-21.84 -9.22)"/><path class="cls-6" d="M183,68.27a4,4,0,0,1-2.87-1.17l.17-.16A3.7,3.7,0,0,0,183,68a3.35,3.35,0,0,0,1.87-.47,1.49,1.49,0,0,0,.73-1.33,1.61,1.61,0,0,0-.73-1.47,6,6,0,0,0-1.72-.7,4.61,4.61,0,0,1-2-.94,1.52,1.52,0,0,1-.39-.57,1.9,1.9,0,0,1-.17-.82,1.56,1.56,0,0,1,.76-1.39,3.59,3.59,0,0,1,1.92-.47,4.14,4.14,0,0,1,2.23.66l-.12.19a4,4,0,0,0-2.11-.61,3.24,3.24,0,0,0-1.75.43,1.33,1.33,0,0,0-.69,1.2,1.86,1.86,0,0,0,.15.79,2.41,2.41,0,0,0,1.65,1.12l.41.12a10.62,10.62,0,0,1,1,.34,5.56,5.56,0,0,1,.95.47,1.85,1.85,0,0,1,.82,1.65,1.72,1.72,0,0,1-.8,1.51A3.56,3.56,0,0,1,183,68.27Z" transform="translate(-21.84 -9.22)"/><path class="cls-6" d="M190.38,68.27a3.57,3.57,0,0,1-1.13-.19,2.7,2.7,0,0,1-1.64-1.56,3.55,3.55,0,0,1-.24-1.36,2.92,2.92,0,0,1,.88-2.27,3,3,0,0,1,2.13-.83,3,3,0,0,1,2.11.83l-.16.17a2.81,2.81,0,0,0-2-.76,3,3,0,0,0-1,.18,2.77,2.77,0,0,0-.89.53,2.54,2.54,0,0,0-.62.9,3.17,3.17,0,0,0-.23,1.25,2.75,2.75,0,0,0,.81,2.1,2.78,2.78,0,0,0,2,.77,2.69,2.69,0,0,0,2.09-.9l.15.17A2.9,2.9,0,0,1,190.38,68.27Z" transform="translate(-21.84 -9.22)"/><path class="cls-6" d="M194.87,60.5a.31.31,0,0,1-.22-.09.34.34,0,0,1-.1-.22.29.29,0,0,1,.1-.23.37.37,0,0,1,.22-.08.37.37,0,0,1,.21.08.29.29,0,0,1,.1.23.32.32,0,0,1-.08.21A.26.26,0,0,1,194.87,60.5Zm.12,7.77h-.24V62.06H195Z" transform="translate(-21.84 -9.22)"/><path class="cls-6" d="M199.92,68.27a3.26,3.26,0,0,1-1.12-.2,3,3,0,0,1-1-.58,2.78,2.78,0,0,1-.66-1,3.37,3.37,0,0,1-.25-1.36,2.92,2.92,0,0,1,.88-2.27,3,3,0,0,1,2.11-.83A2.65,2.65,0,0,1,202,63a3.27,3.27,0,0,1,.77,2.21h-5.63a3.33,3.33,0,0,0,.18,1.14,2.31,2.31,0,0,0,.48.84,2.41,2.41,0,0,0,.71.56,2.93,2.93,0,0,0,1.38.33,2.86,2.86,0,0,0,2.19-.9l.17.17A3.14,3.14,0,0,1,199.92,68.27Zm2.64-3.35a3.58,3.58,0,0,0-.35-1.33,2.36,2.36,0,0,0-.86-.94,2.68,2.68,0,0,0-1.43-.35A2.58,2.58,0,0,0,198,63a3.08,3.08,0,0,0-.79,1.89Z" transform="translate(-21.84 -9.22)"/><path class="cls-6" d="M210,68.27h-.24V64.55a2.45,2.45,0,0,0-.29-1.26,1.73,1.73,0,0,0-.79-.7,2.7,2.7,0,0,0-1.12-.22,2.41,2.41,0,0,0-2.62,2.53v3.37h-.24V62.06h.24v1.76a2.54,2.54,0,0,1,2.62-1.76,2.76,2.76,0,0,1,1.4.32,2,2,0,0,1,.78.88,3,3,0,0,1,.26,1.25Z" transform="translate(-21.84 -9.22)"/><path class="cls-6" d="M214.74,68.27a3.57,3.57,0,0,1-1.13-.19A2.7,2.7,0,0,1,212,66.52a3.55,3.55,0,0,1-.24-1.36,2.92,2.92,0,0,1,.88-2.27,3,3,0,0,1,2.13-.83,3,3,0,0,1,2.11.83l-.16.17a2.81,2.81,0,0,0-1.95-.76,3,3,0,0,0-1.05.18,2.77,2.77,0,0,0-.89.53,2.54,2.54,0,0,0-.62.9,3.17,3.17,0,0,0-.23,1.25,2.75,2.75,0,0,0,.81,2.1,2.78,2.78,0,0,0,2,.77,2.69,2.69,0,0,0,2.09-.9l.15.17A2.9,2.9,0,0,1,214.74,68.27Z" transform="translate(-21.84 -9.22)"/><path class="cls-6" d="M221.4,68.27a3.26,3.26,0,0,1-1.12-.2,3,3,0,0,1-1-.58,2.78,2.78,0,0,1-.66-1,3.37,3.37,0,0,1-.25-1.36,2.92,2.92,0,0,1,.88-2.27,3,3,0,0,1,2.11-.83,2.65,2.65,0,0,1,2.11.89,3.27,3.27,0,0,1,.77,2.21h-5.63a3.33,3.33,0,0,0,.18,1.14,2.46,2.46,0,0,0,.48.84,2.41,2.41,0,0,0,.71.56,2.93,2.93,0,0,0,1.38.33,2.86,2.86,0,0,0,2.19-.9l.17.17A3.13,3.13,0,0,1,221.4,68.27ZM224,64.92a3.58,3.58,0,0,0-.35-1.33,2.36,2.36,0,0,0-.86-.94,2.68,2.68,0,0,0-1.43-.35,2.58,2.58,0,0,0-2,.73,3.08,3.08,0,0,0-.79,1.89Z" transform="translate(-21.84 -9.22)"/></g><g id="Layer_3" data-name="Layer 3"><path class="cls-7" d="M121.48,102.77h1.4l2.24,5.29h-1.56l-.39-.94h-2l-.38.94h-1.53Zm1.27,3.22-.58-1.5-.6,1.5Z" transform="translate(-21.84 -9.22)"/><path class="cls-7" d="M126.44,102.78h1.47v5.28h-1.47Z" transform="translate(-21.84 -9.22)"/><path class="cls-7" d="M129.22,106.59h1.49v1.47h-1.49Z" transform="translate(-21.84 -9.22)"/><path class="cls-7" d="M136.21,107.53a2.69,2.69,0,0,1-.46.28,2.37,2.37,0,0,1-.53.18,2.56,2.56,0,0,1-.64.07,2.45,2.45,0,0,1-1-.21,2.22,2.22,0,0,1-.81-.56,2.48,2.48,0,0,1-.54-.83,2.75,2.75,0,0,1-.2-1,2.7,2.7,0,0,1,.2-1,2.79,2.79,0,0,1,.54-.85,2.47,2.47,0,0,1,.81-.57,2.75,2.75,0,0,1,1-.2,3.83,3.83,0,0,1,.63,0,2.74,2.74,0,0,1,.53.17,2.09,2.09,0,0,1,.44.25,4.23,4.23,0,0,1,.4.34l-.4.42a3.33,3.33,0,0,0-.7-.5,1.94,1.94,0,0,0-.91-.2,1.85,1.85,0,0,0-.78.16,2,2,0,0,0-.63.45,2.06,2.06,0,0,0-.42.66,2.4,2.4,0,0,0,0,1.67,2,2,0,0,0,1.05,1.12,1.85,1.85,0,0,0,.78.16,1.94,1.94,0,0,0,.91-.19,3.52,3.52,0,0,0,.75-.54l.38.37A4.83,4.83,0,0,1,136.21,107.53Z" transform="translate(-21.84 -9.22)"/><path class="cls-7" d="M142.28,105.75a2.86,2.86,0,0,1-.16,1,2.2,2.2,0,0,1-.45.72,1.76,1.76,0,0,1-.69.43,2.77,2.77,0,0,1-1.8,0,1.76,1.76,0,0,1-.69-.43,1.8,1.8,0,0,1-.45-.71,2.69,2.69,0,0,1-.16-1v-3h.6v3a1.85,1.85,0,0,0,.42,1.3,1.57,1.57,0,0,0,1.19.45,1.54,1.54,0,0,0,1.16-.43,1.73,1.73,0,0,0,.43-1.29v-3h.6Z" transform="translate(-21.84 -9.22)"/><path class="cls-7" d="M147.45,103.32h-3.22v1.8h2.88v.55h-2.88v1.84h3.26v.55h-3.86v-5.28h3.82Z" transform="translate(-21.84 -9.22)"/><path class="cls-7" d="M143.78,99.78a3.71,3.71,0,0,1-3.71-3.71V85.65a6.71,6.71,0,1,0-6.71,6.71,3.71,3.71,0,0,1,0,7.42,14.13,14.13,0,1,1,14.13-14.13V96.07A3.71,3.71,0,0,1,143.78,99.78Z" transform="translate(-21.84 -9.22)"/><circle class="cls-7" cx="111.53" cy="76.43" r="3.68"/></g></svg>