<svg width="404" height="517" viewBox="0 0 404 517" fill="none" xmlns="http://www.w3.org/2000/svg">
<path d="M40.4 434.63H59.48L89.89 506.56H68.67L63.46 493.81H35.91L30.81 506.56H10L40.4 434.63ZM57.75 478.4L49.75 458.1L41.69 478.4H57.75Z" fill="#0033CC"/>
<path d="M113.92 434.78H133.92V506.56H113.92V434.78Z" fill="#0033CC"/>
<path d="M235.73 499.36C233.768 500.854 231.653 502.134 229.42 503.18C227.098 504.264 224.668 505.099 222.17 505.67C219.332 506.288 216.434 506.587 213.53 506.56C208.886 506.615 204.279 505.722 199.991 503.938C195.703 502.153 191.824 499.513 188.59 496.18C185.435 492.902 182.954 489.035 181.29 484.8C177.77 475.761 177.77 465.729 181.29 456.69C182.97 452.433 185.448 448.537 188.59 445.21C191.74 441.904 195.526 439.267 199.72 437.46C204.17 435.541 208.974 434.577 213.82 434.63C216.706 434.603 219.588 434.871 222.42 435.43C224.858 435.924 227.237 436.671 229.52 437.66C231.662 438.593 233.695 439.76 235.58 441.14C237.467 442.528 239.261 444.038 240.95 445.66L235.58 451.42C232.707 448.714 229.481 446.41 225.99 444.57C220.84 441.992 214.997 441.14 209.325 442.141C203.654 443.143 198.455 445.944 194.5 450.13C192.044 452.766 190.121 455.853 188.84 459.22C187.472 462.821 186.793 466.648 186.84 470.5C186.795 474.365 187.473 478.204 188.84 481.82C190.114 485.206 192.036 488.311 194.5 490.96C196.917 493.538 199.819 495.615 203.04 497.07C206.399 498.568 210.042 499.322 213.72 499.28C217.962 499.396 222.172 498.501 226 496.67C229.725 494.715 233.142 492.222 236.14 489.27L241.3 494.34C239.57 496.149 237.709 497.827 235.73 499.36V499.36Z" fill="#0033CC"/>
<path d="M318.17 475.2C318.255 479.846 317.521 484.47 316 488.86C314.712 492.538 312.629 495.888 309.9 498.67C307.237 501.321 304.015 503.343 300.47 504.59C296.533 505.958 292.388 506.635 288.22 506.59C284.085 506.631 279.974 505.954 276.07 504.59C272.531 503.35 269.308 501.346 266.63 498.72C263.915 495.984 261.833 492.687 260.53 489.06C259.03 484.807 258.302 480.319 258.38 475.81V434.63H266.48V475.28C266.48 482.973 268.41 488.873 272.27 492.98C276.13 497.087 281.513 499.143 288.42 499.15C295.053 499.15 300.317 497.197 304.21 493.29C308.103 489.383 310.053 483.55 310.06 475.79V434.63H318.16L318.17 475.2Z" fill="#0033CC"/>
<path d="M393.49 442.17H349.7V466.67H388.87V474.05H349.7V499.18H394V506.56H341.6V434.78H393.49V442.17Z" fill="#0033CC"/>
<path d="M343.58 394C330.208 394 317.383 388.688 307.928 379.232C298.472 369.777 293.16 356.952 293.16 343.58V202C293.16 183.97 287.814 166.345 277.797 151.354C267.78 136.363 253.543 124.679 236.885 117.779C220.228 110.879 201.899 109.074 184.216 112.592C166.532 116.109 150.289 124.791 137.54 137.54C124.791 150.289 116.109 166.532 112.592 184.216C109.074 201.899 110.879 220.228 117.779 236.885C124.679 253.543 136.363 267.78 151.354 277.797C166.345 287.814 183.97 293.16 202 293.16C215.372 293.16 228.197 298.472 237.652 307.928C247.108 317.383 252.42 330.208 252.42 343.58C252.42 356.952 247.108 369.777 237.652 379.232C228.197 388.688 215.372 394 202 394C96.13 394 10 307.87 10 202C10 96.13 96.13 10 202 10C307.87 10 394 96.13 394 202V343.58C394 350.201 392.696 356.758 390.162 362.875C387.628 368.992 383.914 374.55 379.232 379.232C374.55 383.914 368.992 387.628 362.875 390.162C356.758 392.696 350.201 394 343.58 394V394Z" fill="#0033CC"/>
<path d="M202 251.97C229.598 251.97 251.97 229.598 251.97 202C251.97 174.402 229.598 152.03 202 152.03C174.402 152.03 152.03 174.402 152.03 202C152.03 229.598 174.402 251.97 202 251.97Z" fill="#0033CC"/>
</svg>
