<svg width="996" height="375" viewBox="0 0 996 375" fill="none" xmlns="http://www.w3.org/2000/svg">
<g filter="url(#filter0_d_1_73)">
<path d="M88.41 19.39H128.05L211.8 221H166.85L148.98 176.1H66.35L48.49 221H4.66L88.41 19.39ZM133.64 137.21L107.68 72.29L81.72 137.21H133.64V137.21Z" fill="#0033CC"/>
<path d="M243.91 20.82H286.9V221H243.91V20.82Z" fill="#0033CC"/>
<path d="M466.61 212.94H387.33V12.76H467.45C496.85 12.76 521.05 22.2 540.03 41.07C559.01 59.94 568.5 83.87 568.5 112.85C568.5 141.83 558.96 165.75 539.88 184.63C520.8 203.51 496.39 212.94 466.61 212.94ZM468.29 182.63C486.71 182.63 502.49 176.29 515.61 163.61C528.73 150.93 535.29 134.11 535.29 113.14C535.29 91.6 528.54 74.53 515.05 61.95C501.56 49.37 485.5 43.08 466.89 43.08H420.27V182.63H468.29Z" fill="#F8333C"/>
<path d="M663.7 213.08C646.95 213.08 632.94 209.64 621.69 202.76C610.43 195.88 601.96 186.69 596.29 175.19C590.61 163.69 587.78 150.97 587.78 137.01C587.78 120.42 591.08 106.52 597.69 95.3C605.13 83.33 614.51 74.57 625.82 69C637.13 63.44 649.48 60.66 662.88 60.66C709.59 60.66 732.95 86.01 732.95 136.71L732.39 148.45H620.15C623.69 161.89 629.57 171.59 637.81 177.55C646.05 183.51 655.51 186.49 666.22 186.49C682.22 186.49 696.18 180.58 708.1 168.76L725.13 187.35C709.67 204.5 689.2 213.08 663.7 213.08ZM704.46 124.43C703.16 111.53 698.74 102.04 691.2 95.95C683.66 89.86 674.31 86.82 663.14 86.82C650.11 86.82 639.97 90.32 632.71 97.31C625.45 104.31 621.08 113.34 619.59 124.42H704.46V124.43Z" fill="#F8333C"/>
<path d="M805.8 213.08C789.05 213.08 776.16 208.33 767.13 198.81C758.1 189.3 753.59 178.2 753.59 165.52C753.59 152.65 758.06 141.98 766.99 133.53C775.92 125.08 790.16 120.85 809.7 120.85H854.65C854.65 114.48 854 109.47 852.7 105.83C848.98 93.45 837.81 87.25 819.2 87.25C805.05 87.25 790.45 92.17 775.37 102L762.25 79.81C781.05 67.04 802.36 60.65 826.18 60.65C847.21 60.65 862.47 65.62 871.96 75.57C881.45 85.51 886.2 98.25 886.2 113.78L886.48 212.93H854.93V193.47C843.76 206.55 827.39 213.08 805.8 213.08ZM812.5 187.06C825.34 187.06 835.3 184.3 842.37 178.77C849.44 173.24 853.54 166.38 854.65 158.18V144.17H814.45C793.98 144.17 783.74 150.75 783.74 163.9C783.74 171.91 786.48 177.77 791.98 181.49C797.47 185.2 804.31 187.06 812.5 187.06Z" fill="#F8333C"/>
<path d="M963.81 213.08C954.13 213.08 945.57 209.53 938.13 202.42C930.68 195.32 926.96 184.18 926.96 169.02V0.75H958.79V165.45C958.79 177.19 963.35 183.05 972.47 183.05C976.94 183.05 981.87 181.45 987.27 178.26L991.74 205.07C982.04 210.41 972.74 213.08 963.81 213.08Z" fill="#F8333C"/>
<path d="M417.75 291.29H410.06L408.17 286.4H396.22L394.29 291.29H386.88L398.75 263.65H406.16L417.75 291.29ZM406.04 280.88L402.25 271.02L398.38 280.88H406.04Z" fill="black"/>
<path d="M427.21 291.31C425.46 291.31 424.03 290.94 422.91 290.2C421.79 289.46 420.96 288.49 420.42 287.27C419.87 286.06 419.6 284.72 419.6 283.25V269.95H426.62V281.42C426.62 283.79 427.76 285.07 430.05 285.28C431.47 285.12 432.49 284.59 433.11 283.68C433.73 282.77 434.04 281.7 434.04 280.47V269.94H441.06V291.27H434.04V287.8C432.59 290.15 430.31 291.31 427.21 291.31Z" fill="black"/>
<path d="M454.54 291.31C452.54 291.31 450.85 290.75 449.47 289.63C448.09 288.51 447.4 286.8 447.4 284.48V275.33H444.44V270.68H447.4V264.76H454.38V270.68H459.9V275.33H454.38V283.37C454.38 284.87 454.96 285.62 456.11 285.62C456.95 285.62 457.9 285.38 458.95 284.91L460.29 289.88C458.56 290.84 456.64 291.31 454.54 291.31Z" fill="black"/>
<path d="M473.54 291.31C471.49 291.31 469.58 290.94 467.82 290.19C466.06 289.44 464.63 288.28 463.54 286.69C462.45 285.11 461.9 283.08 461.9 280.6C461.9 278.23 462.42 276.25 463.46 274.67C464.58 273.02 466.02 271.82 467.8 271.07C469.58 270.32 471.49 269.94 473.54 269.94C475.58 269.94 477.49 270.31 479.27 271.05C481.05 271.79 482.51 272.98 483.64 274.62C484.69 276.19 485.22 278.19 485.22 280.61C485.22 282 485 283.34 484.56 284.62C484.12 285.9 483.43 287.04 482.49 288.05C481.55 289.06 480.34 289.85 478.87 290.44C477.4 291.02 475.62 291.31 473.54 291.31ZM473.54 285.79C475.12 285.79 476.28 285.29 477.03 284.3C477.78 283.31 478.15 282.1 478.15 280.69C478.15 279.3 477.78 278.11 477.05 277.12C476.31 276.12 475.14 275.63 473.54 275.63C472.57 275.63 471.74 275.85 471.06 276.3C470.38 276.75 469.86 277.35 469.5 278.12C469.15 278.88 468.97 279.74 468.97 280.7C468.97 282.29 469.4 283.54 470.25 284.44C471.11 285.34 472.2 285.79 473.54 285.79Z" fill="black"/>
<path d="M524.92 291.29H517.9V279.96C517.9 277.54 516.73 276.33 514.39 276.33C512.97 276.48 511.95 277 511.31 277.89C510.67 278.78 510.36 279.82 510.36 281.02V291.29H503.34V279.96C503.34 277.54 502.17 276.33 499.83 276.33C498.41 276.48 497.38 277 496.73 277.89C496.09 278.77 495.76 279.82 495.76 281.02V291.29H488.78V269.96H495.76V273.64C497.31 271.17 499.63 269.94 502.7 269.94C506.17 269.94 508.54 271.51 509.8 274.66C511.3 271.51 513.78 269.94 517.25 269.94C519.41 269.94 521.22 270.63 522.69 272.01C524.16 273.39 524.9 275.39 524.9 278.01V291.29H524.92Z" fill="black"/>
<path d="M539.59 291.31C537.54 291.31 535.63 290.94 533.87 290.19C532.11 289.44 530.68 288.28 529.59 286.69C528.5 285.11 527.95 283.08 527.95 280.6C527.95 278.23 528.47 276.25 529.51 274.67C530.63 273.02 532.07 271.82 533.85 271.07C535.62 270.32 537.54 269.94 539.59 269.94C541.63 269.94 543.54 270.31 545.32 271.05C547.1 271.79 548.56 272.98 549.69 274.62C550.74 276.19 551.27 278.19 551.27 280.61C551.27 282 551.05 283.34 550.61 284.62C550.17 285.9 549.48 287.04 548.54 288.05C547.6 289.06 546.39 289.85 544.92 290.44C543.44 291.02 541.67 291.31 539.59 291.31ZM539.59 285.79C541.17 285.79 542.33 285.29 543.08 284.3C543.83 283.3 544.2 282.1 544.2 280.69C544.2 279.3 543.83 278.11 543.1 277.12C542.36 276.12 541.19 275.63 539.59 275.63C538.62 275.63 537.79 275.85 537.11 276.3C536.43 276.75 535.91 277.35 535.55 278.12C535.19 278.88 535.02 279.74 535.02 280.7C535.02 282.29 535.45 283.54 536.3 284.44C537.15 285.34 538.25 285.79 539.59 285.79Z" fill="black"/>
<path d="M562.97 291.31C560.97 291.31 559.28 290.75 557.9 289.63C556.52 288.51 555.83 286.8 555.83 284.48V275.33H552.87V270.68H555.83V264.76H562.81V270.68H568.33V275.33H562.81V283.37C562.81 284.87 563.39 285.62 564.55 285.62C565.39 285.62 566.34 285.38 567.39 284.91L568.73 289.88C567 290.84 565.08 291.31 562.97 291.31Z" fill="black"/>
<path d="M575.59 267.64C574.35 267.64 573.43 267.26 572.81 266.5C572.19 265.74 571.88 264.87 571.88 263.9C571.88 262.64 572.26 261.7 573 261.08C573.75 260.46 574.61 260.15 575.58 260.15C576.55 260.15 577.41 260.46 578.16 261.08C578.91 261.7 579.28 262.64 579.28 263.9C579.28 264.87 578.97 265.74 578.35 266.5C577.73 267.26 576.83 267.64 575.59 267.64ZM579.06 291.29H572.08V269.96H579.06V291.29Z" fill="black"/>
<path d="M596.73 291.29H589.51L581.55 269.96H588.77L593.23 284.79L597.73 269.96H604.75L596.73 291.29Z" fill="black"/>
<path d="M616.64 291.31C614.14 291.31 612.06 290.85 610.39 289.92C608.64 288.93 607.37 287.63 606.56 286.02C605.76 284.41 605.36 282.64 605.36 280.73C605.36 278.37 605.85 276.39 606.84 274.79C607.83 273.19 609.16 271.98 610.84 271.17C612.52 270.36 614.4 269.95 616.48 269.95C619.03 269.95 621.09 270.43 622.67 271.38C624.3 272.38 625.48 273.73 626.2 275.41C626.92 277.09 627.28 278.97 627.28 281.04L627.24 282.3H612.41C613.25 284.8 614.87 286.05 617.26 286.05C619.07 286.05 620.74 285.33 622.27 283.88L625.94 287.55C623.69 290.05 620.58 291.31 616.64 291.31ZM620.47 278.54C620.47 277.39 620.1 276.49 619.37 275.84C618.63 275.19 617.69 274.87 616.53 274.87C615.24 274.87 614.26 275.21 613.57 275.89C612.89 276.57 612.45 277.45 612.27 278.53H620.47V278.54Z" fill="black"/>
<path d="M654.34 291.29H642.71V263.65H654.62C657.8 263.65 660.48 264.27 662.66 265.5C664.95 266.83 666.63 268.54 667.71 270.65C668.79 272.75 669.33 275.02 669.33 277.45C669.33 280.42 668.67 282.94 667.34 285C665.92 287.16 664.07 288.74 661.79 289.76C659.5 290.79 657.02 291.29 654.34 291.29ZM654.81 285.46C655.99 285.46 657.13 285.18 658.22 284.63C659.31 284.08 660.22 283.19 660.94 281.97C661.61 280.8 661.95 279.32 661.95 277.53C661.95 275.7 661.59 274.2 660.89 273.01C660.11 271.77 659.15 270.88 658.01 270.34C656.87 269.79 655.68 269.52 654.46 269.52H649.92V285.45H654.81V285.46Z" fill="black"/>
<path d="M682.45 291.31C679.95 291.31 677.87 290.85 676.2 289.92C674.45 288.93 673.18 287.63 672.37 286.02C671.57 284.41 671.17 282.64 671.17 280.73C671.17 278.37 671.66 276.39 672.65 274.79C673.64 273.19 674.97 271.98 676.65 271.17C678.33 270.36 680.21 269.95 682.29 269.95C684.84 269.95 686.9 270.43 688.48 271.38C690.11 272.38 691.29 273.73 692.01 275.41C692.73 277.09 693.09 278.97 693.09 281.04L693.05 282.3H678.22C679.06 284.8 680.68 286.05 683.07 286.05C684.88 286.05 686.55 285.33 688.08 283.88L691.75 287.55C689.5 290.05 686.4 291.31 682.45 291.31ZM686.28 278.54C686.28 277.39 685.91 276.49 685.18 275.84C684.45 275.19 683.5 274.87 682.34 274.87C681.05 274.87 680.07 275.21 679.38 275.89C678.7 276.57 678.26 277.45 678.08 278.53H686.28V278.54Z" fill="black"/>
<path d="M702.33 291.31C699.86 291.31 698.02 290.65 696.83 289.33C695.63 288.01 695.04 286.41 695.04 284.54C695.04 280.43 697.76 278.37 703.2 278.37H708.76C708.76 276.32 707.41 275.29 704.7 275.29C702.89 275.29 700.76 275.77 698.31 276.74L696.38 272.26C699.61 270.71 702.92 269.93 706.32 269.93C708.98 269.93 711.16 270.54 712.87 271.76C714.58 272.98 715.51 274.92 715.67 277.57V291.29H708.77V288.73C707.39 290.46 705.25 291.31 702.33 291.31ZM704.5 286.54C705.73 286.54 706.7 286.27 707.39 285.74C708.08 285.21 708.54 284.55 708.76 283.78V281.93H704.58C702.61 281.93 701.62 282.67 701.62 284.14C701.62 284.8 701.84 285.36 702.29 285.84C702.73 286.31 703.47 286.54 704.5 286.54Z" fill="black"/>
<path d="M727.37 291.31C726.08 291.31 724.87 291.05 723.74 290.52C722.61 289.99 721.7 289.15 721.02 287.98C720.34 286.81 719.99 285.25 719.99 283.31V261.7H727.01V283C727.01 284.45 727.63 285.17 728.86 285.17C729.46 285.17 730.13 284.99 730.87 284.62L731.46 290.42C730.05 291.01 728.68 291.31 727.37 291.31Z" fill="black"/>
<path d="M743.57 291.31C741.07 291.31 738.99 290.85 737.32 289.92C735.57 288.93 734.3 287.63 733.5 286.02C732.7 284.41 732.3 282.64 732.3 280.73C732.3 278.37 732.79 276.39 733.78 274.79C734.77 273.19 736.1 271.98 737.78 271.17C739.46 270.36 741.34 269.95 743.42 269.95C745.97 269.95 748.03 270.43 749.61 271.38C751.24 272.38 752.42 273.73 753.14 275.41C753.86 277.09 754.22 278.97 754.22 281.04L754.18 282.3H739.35C740.19 284.8 741.81 286.05 744.2 286.05C746.01 286.05 747.68 285.33 749.21 283.88L752.88 287.55C750.62 290.05 747.52 291.31 743.57 291.31ZM747.4 278.54C747.4 277.39 747.03 276.49 746.3 275.84C745.57 275.19 744.62 274.87 743.46 274.87C742.17 274.87 741.18 275.21 740.5 275.89C739.82 276.57 739.38 277.45 739.2 278.53H747.4V278.54Z" fill="black"/>
<path d="M764.83 291.29H757.81V269.96H764.83V273.68C766.41 271.18 768.7 269.94 771.69 269.94V276.35H770.86C767.36 276.35 765.35 277.82 764.83 280.75V291.29Z" fill="black"/>
<path d="M782.33 291.31C778.78 291.31 775.57 290.3 772.71 288.27L774.92 283.9C777.57 285.55 780.1 286.38 782.49 286.38C783.32 286.38 783.9 286.27 784.23 286.05C784.57 285.83 784.73 285.5 784.73 285.05C784.73 284.54 784.47 284.17 783.94 283.95C783.41 283.73 782.72 283.51 781.85 283.3C776.43 282.13 773.73 279.9 773.73 276.6C773.73 275.08 774.12 273.83 774.91 272.85C775.8 271.81 776.91 271.06 778.23 270.61C779.55 270.16 780.97 269.93 782.48 269.93C785.56 269.93 788.51 270.76 791.35 272.41L788.98 277.02C786.19 275.55 783.93 274.82 782.2 274.82C780.86 274.82 780.19 275.25 780.19 276.11C780.19 276.97 781.4 277.65 783.82 278.13C785.61 278.56 787.28 279.21 788.83 280.09C790.38 280.97 791.22 282.49 791.35 284.68C791.35 286.23 790.94 287.48 790.11 288.45C789.23 289.45 788.1 290.18 786.74 290.63C785.38 291.09 783.91 291.31 782.33 291.31Z" fill="black"/>
<path d="M817.19 291.29H810.17V280.05C810.17 279.02 809.88 278.12 809.3 277.35C808.72 276.59 807.8 276.21 806.54 276.21C805.07 276.37 804 276.89 803.35 277.78C802.69 278.67 802.36 279.73 802.36 280.94V291.29H795.34V262.03H802.36V273.68C803.99 271.18 806.34 269.93 809.42 269.93C810.71 269.93 811.94 270.19 813.13 270.72C814.32 271.25 815.3 272.12 816.09 273.34C816.83 274.52 817.19 276.07 817.19 278V291.29Z" fill="black"/>
<path d="M825.43 267.64C824.19 267.64 823.27 267.26 822.65 266.5C822.03 265.74 821.72 264.87 821.72 263.9C821.72 262.64 822.1 261.7 822.84 261.08C823.58 260.46 824.45 260.15 825.42 260.15C826.39 260.15 827.25 260.46 828 261.08C828.75 261.7 829.12 262.64 829.12 263.9C829.12 264.87 828.81 265.74 828.19 266.5C827.6 267.25 826.67 267.64 825.43 267.64ZM828.9 291.29H821.92V269.96H828.9V291.29Z" fill="black"/>
<path d="M841.48 298.94H834.46V269.96H841.48V272.86C843 270.91 845.09 269.94 847.75 269.94C849.5 269.94 851.13 270.33 852.66 271.12C854.19 271.91 855.42 273.14 856.37 274.81C857.25 276.41 857.69 278.38 857.69 280.72C857.69 282.09 857.51 283.4 857.15 284.67C856.79 285.94 856.22 287.07 855.44 288.06C854.66 289.05 853.65 289.84 852.41 290.43C851.17 291.02 849.68 291.31 847.92 291.31C845.21 291.31 843.07 290.31 841.49 288.31V298.94H841.48ZM846.02 285.64C847.62 285.64 848.79 285.14 849.53 284.15C850.27 283.15 850.63 281.96 850.63 280.58C850.63 279.19 850.25 278 849.51 276.99C848.76 275.98 847.6 275.48 846.02 275.48C844.5 275.48 843.36 275.98 842.61 276.99C841.86 278 841.49 279.2 841.49 280.58C841.49 282.29 841.94 283.57 842.83 284.4C843.72 285.22 844.78 285.64 846.02 285.64Z" fill="black"/>
<path d="M489.77 357.89H484.74V328.06H496.63C500.15 328.06 503 328.89 505.17 330.55C507.34 332.21 508.43 334.78 508.43 338.24C508.43 340.23 508.04 342.03 507.26 343.64C506.48 345.25 505.2 346.54 503.43 347.51C501.7 348.43 499.43 348.89 496.63 348.89H489.77V357.89ZM496.42 344.38C501.22 344.38 503.62 342.38 503.62 338.37C503.62 334.51 501.22 332.57 496.42 332.57H489.77V344.37H496.42V344.38Z" fill="black"/>
<path d="M518.03 357.89H513.13V335.22H518.03V339.74C519.71 336.73 522.32 335.22 525.87 335.22V339.74C523.4 339.74 521.52 340.31 520.22 341.44C518.93 342.58 518.2 344.11 518.03 346.04V357.89Z" fill="black"/>
<path d="M539.37 357.91C536.81 357.91 534.67 357.4 532.96 356.37C531.24 355.34 529.95 353.98 529.08 352.26C528.21 350.54 527.78 348.65 527.78 346.57C527.78 344.1 528.28 342.03 529.29 340.35C530.43 338.57 531.86 337.26 533.58 336.43C535.31 335.6 537.19 335.19 539.24 335.19C546.37 335.19 549.94 338.97 549.94 346.52L549.86 348.27H532.73C533.27 350.27 534.17 351.72 535.43 352.61C536.69 353.5 538.13 353.94 539.76 353.94C542.2 353.94 544.33 353.06 546.15 351.3L548.75 354.07C546.39 356.63 543.27 357.91 539.37 357.91ZM545.59 344.7C545.39 342.78 544.72 341.36 543.57 340.46C542.42 339.55 540.99 339.1 539.29 339.1C537.3 339.1 535.75 339.62 534.65 340.66C533.54 341.7 532.87 343.05 532.65 344.7H545.59Z" fill="black"/>
<path d="M563.71 357.91C561.32 357.91 559.33 357.4 557.72 356.38C555.99 355.21 554.74 353.75 553.98 352C553.22 350.25 552.84 348.41 552.84 346.47C552.84 344.07 553.32 342.03 554.28 340.35C555.24 338.67 556.53 337.4 558.16 336.52C559.79 335.64 561.61 335.2 563.62 335.2C567.28 335.2 569.97 336.58 571.67 339.33V326.27H576.57V357.89H571.67V353.82C570 356.55 567.34 357.91 563.71 357.91ZM564.73 353.82C566.92 353.82 568.62 353.11 569.84 351.7C571.06 350.29 571.67 348.6 571.67 346.64C571.67 344.68 571.06 342.97 569.84 341.53C568.62 340.09 566.91 339.37 564.73 339.37C562.51 339.37 560.82 340.06 559.64 341.42C558.46 342.79 557.83 344.53 557.74 346.63C557.8 348.73 558.39 350.46 559.53 351.8C560.67 353.15 562.4 353.82 564.73 353.82Z" fill="black"/>
<path d="M586.46 332.21C585.74 332.21 585.08 331.95 584.49 331.43C583.9 330.91 583.61 330.18 583.61 329.22C583.61 328.21 583.9 327.46 584.48 326.97C585.06 326.48 585.72 326.24 586.46 326.24C587.2 326.24 587.86 326.49 588.44 326.97C589.02 327.46 589.31 328.21 589.31 329.22C589.31 330.03 589.05 330.73 588.54 331.32C588.04 331.92 587.34 332.21 586.46 332.21ZM588.89 357.89H584.03V335.22H588.89V357.89Z" fill="black"/>
<path d="M605.42 357.91C602.15 357.91 599.43 356.9 597.26 354.88C595.09 352.86 594 350.1 594 346.59C594 344.15 594.52 342.08 595.56 340.39C596.74 338.55 598.2 337.23 599.94 336.42C601.68 335.61 603.51 335.2 605.43 335.2C609.49 335.2 612.62 336.44 614.81 338.91L612.13 342.14C610.57 340.41 608.41 339.55 605.65 339.55C604.6 339.55 603.56 339.79 602.53 340.26C601.5 340.73 600.63 341.51 599.92 342.59C599.25 343.63 598.92 344.98 598.92 346.63C598.92 348.22 599.24 349.55 599.88 350.59C600.52 351.64 601.35 352.42 602.37 352.93C603.39 353.44 604.49 353.7 605.65 353.7C608.55 353.7 610.78 352.82 612.34 351.06L615.07 353.7C612.98 356.5 609.77 357.91 605.42 357.91Z" fill="black"/>
<path d="M627.41 357.91C625.62 357.91 624.11 357.4 622.89 356.38C621.67 355.36 621.06 353.67 621.06 351.31V339.55H617.86V335.88H621.06V329.66H625.92V335.88H632.61V339.55H625.92V350.42C625.92 352.46 626.67 353.49 628.18 353.49C629.32 353.49 630.51 353.16 631.76 352.51L633 356.26C631.2 357.36 629.34 357.91 627.41 357.91Z" fill="black"/>
<path d="M639.94 332.21C639.22 332.21 638.56 331.95 637.97 331.43C637.38 330.91 637.09 330.18 637.09 329.22C637.09 328.21 637.38 327.46 637.96 326.97C638.54 326.48 639.2 326.24 639.94 326.24C640.68 326.24 641.34 326.49 641.92 326.97C642.5 327.46 642.79 328.21 642.79 329.22C642.79 330.03 642.53 330.73 642.02 331.32C641.51 331.92 640.82 332.21 639.94 332.21ZM642.36 357.89H637.5V335.22H642.36V357.89Z" fill="black"/>
<path d="M659.88 357.89H654.81L646.03 335.22H651.14L657.45 353.07L663.67 335.22H668.57L659.88 357.89Z" fill="black"/>
<path d="M681.44 357.91C678.88 357.91 676.74 357.4 675.03 356.37C673.31 355.34 672.02 353.98 671.15 352.26C670.28 350.54 669.85 348.65 669.85 346.57C669.85 344.1 670.35 342.03 671.36 340.35C672.5 338.57 673.93 337.26 675.65 336.43C677.38 335.6 679.26 335.19 681.31 335.19C688.44 335.19 692.01 338.97 692.01 346.52L691.93 348.27H674.8C675.34 350.27 676.24 351.72 677.5 352.61C678.76 353.5 680.2 353.94 681.83 353.94C684.27 353.94 686.4 353.06 688.22 351.3L690.82 354.07C688.46 356.63 685.33 357.91 681.44 357.91ZM687.66 344.7C687.46 342.78 686.79 341.36 685.64 340.46C684.49 339.55 683.06 339.1 681.36 339.1C679.37 339.1 677.82 339.62 676.72 340.66C675.61 341.7 674.94 343.05 674.72 344.7H687.66Z" fill="black"/>
<path d="M715.14 357.89H710.11V328.06H715.14V357.89Z" fill="black"/>
<path d="M744.38 357.89H739.48V345.15C739.48 343.59 739.04 342.28 738.16 341.23C737.28 340.18 735.9 339.65 734.03 339.65C731.96 339.82 730.39 340.47 729.34 341.59C728.29 342.71 727.71 344.13 727.59 345.83V357.89H722.69V335.22H727.59V339.57C729.15 336.67 731.94 335.22 735.94 335.22C738.81 335.22 740.93 336.04 742.31 337.69C743.69 339.34 744.38 341.4 744.38 343.89V357.89V357.89Z" fill="black"/>
<path d="M758.18 357.91C756.39 357.91 754.88 357.4 753.66 356.38C752.44 355.36 751.83 353.67 751.83 351.31V339.55H748.63V335.88H751.83V329.66H756.69V335.88H763.38V339.55H756.69V350.42C756.69 352.46 757.44 353.49 758.95 353.49C760.09 353.49 761.28 353.16 762.53 352.51L763.77 356.26C761.97 357.36 760.11 357.91 758.18 357.91Z" fill="black"/>
<path d="M777.74 357.91C775.18 357.91 773.04 357.4 771.33 356.37C769.61 355.34 768.32 353.98 767.45 352.26C766.58 350.54 766.15 348.65 766.15 346.57C766.15 344.1 766.65 342.03 767.66 340.35C768.8 338.57 770.23 337.26 771.95 336.43C773.68 335.6 775.56 335.19 777.61 335.19C784.74 335.19 788.31 338.97 788.31 346.52L788.23 348.27H771.1C771.64 350.27 772.54 351.72 773.8 352.61C775.06 353.5 776.5 353.94 778.13 353.94C780.57 353.94 782.7 353.06 784.52 351.3L787.12 354.07C784.76 356.63 781.63 357.91 777.74 357.91ZM783.96 344.7C783.76 342.78 783.09 341.36 781.94 340.46C780.79 339.55 779.36 339.1 777.66 339.1C775.67 339.1 774.12 339.62 773.02 340.66C771.91 341.7 771.24 343.05 771.02 344.7H783.96Z" fill="black"/>
<path d="M798.58 357.91C797.1 357.91 795.8 357.38 794.66 356.32C793.52 355.26 792.95 353.6 792.95 351.34V326.27H797.81V350.81C797.81 352.56 798.51 353.43 799.9 353.43C800.58 353.43 801.33 353.19 802.16 352.72L802.84 356.71C801.36 357.51 799.94 357.91 798.58 357.91Z" fill="black"/>
<path d="M811.74 357.91C810.26 357.91 808.96 357.38 807.82 356.32C806.68 355.26 806.11 353.6 806.11 351.34V326.27H810.97V350.81C810.97 352.56 811.67 353.43 813.06 353.43C813.74 353.43 814.49 353.19 815.32 352.72L816 356.71C814.53 357.51 813.11 357.91 811.74 357.91Z" fill="black"/>
<path d="M822.1 332.21C821.38 332.21 820.72 331.95 820.13 331.43C819.54 330.91 819.25 330.18 819.25 329.22C819.25 328.21 819.54 327.46 820.12 326.97C820.7 326.48 821.36 326.24 822.1 326.24C822.84 326.24 823.5 326.49 824.08 326.97C824.66 327.46 824.95 328.21 824.95 329.22C824.95 330.03 824.69 330.73 824.18 331.32C823.67 331.92 822.98 332.21 822.1 332.21ZM824.53 357.89H819.67V335.22H824.53V357.89Z" fill="black"/>
<path d="M840.46 366.18C837.11 366.18 833.97 365.19 831.04 363.2L833.13 359.66C835.29 361.31 837.66 362.13 840.25 362.13C842.27 362.13 843.96 361.58 845.32 360.49C846.68 359.4 847.36 357.8 847.36 355.7V352.84C845.8 355.4 843.3 356.67 839.86 356.67C837.64 356.67 835.78 356.19 834.26 355.22C832.74 354.25 831.59 352.94 830.81 351.3C830.03 349.66 829.64 347.81 829.64 345.78C829.64 342.39 830.56 339.78 832.41 337.96C834.26 336.14 836.69 335.23 839.7 335.23C843.25 335.23 845.81 336.48 847.37 338.98V335.23H852.23V355.61C852.23 357.96 851.71 359.92 850.66 361.48C849.62 363.04 848.21 364.22 846.43 365C844.65 365.78 842.66 366.18 840.46 366.18ZM840.85 352.84C842.92 352.84 844.53 352.17 845.67 350.84C846.81 349.51 847.37 347.88 847.37 345.94C847.37 344.06 846.79 342.45 845.64 341.11C844.49 339.77 842.89 339.09 840.85 339.09C838.78 339.09 837.18 339.73 836.06 341.02C834.94 342.31 834.33 343.95 834.25 345.94C834.31 347.96 834.87 349.61 835.95 350.9C837.03 352.19 838.66 352.84 840.85 352.84Z" fill="black"/>
<path d="M868.5 357.91C865.94 357.91 863.8 357.4 862.09 356.37C860.37 355.34 859.08 353.98 858.21 352.26C857.34 350.54 856.91 348.65 856.91 346.57C856.91 344.1 857.41 342.03 858.42 340.35C859.56 338.57 860.99 337.26 862.71 336.43C864.44 335.6 866.32 335.19 868.37 335.19C875.5 335.19 879.07 338.97 879.07 346.52L878.99 348.27H861.86C862.4 350.27 863.3 351.72 864.56 352.61C865.82 353.5 867.26 353.94 868.89 353.94C871.33 353.94 873.46 353.06 875.28 351.3L877.88 354.07C875.52 356.63 872.39 357.91 868.5 357.91ZM874.72 344.7C874.52 342.78 873.85 341.36 872.7 340.46C871.55 339.55 870.12 339.1 868.42 339.1C866.43 339.1 864.88 339.62 863.78 340.66C862.67 341.7 862 343.05 861.78 344.7H874.72Z" fill="black"/>
<path d="M905.79 357.89H900.89V345.15C900.89 343.59 900.45 342.28 899.57 341.23C898.69 340.18 897.31 339.65 895.44 339.65C893.37 339.82 891.8 340.47 890.75 341.59C889.7 342.71 889.12 344.13 889 345.83V357.89H884.1V335.22H889V339.57C890.56 336.67 893.35 335.22 897.35 335.22C900.22 335.22 902.34 336.04 903.72 337.69C905.1 339.34 905.79 341.4 905.79 343.89V357.89V357.89Z" fill="black"/>
<path d="M921.64 357.91C918.37 357.91 915.65 356.9 913.48 354.88C911.31 352.86 910.22 350.1 910.22 346.59C910.22 344.15 910.74 342.08 911.78 340.39C912.96 338.55 914.42 337.23 916.16 336.42C917.9 335.61 919.73 335.2 921.65 335.2C925.71 335.2 928.84 336.44 931.03 338.91L928.35 342.14C926.79 340.41 924.63 339.55 921.87 339.55C920.82 339.55 919.78 339.79 918.75 340.26C917.72 340.73 916.85 341.51 916.14 342.59C915.47 343.63 915.14 344.98 915.14 346.63C915.14 348.22 915.46 349.55 916.1 350.59C916.74 351.64 917.57 352.42 918.59 352.93C919.61 353.44 920.71 353.7 921.87 353.7C924.77 353.7 927 352.82 928.56 351.06L931.29 353.7C929.19 356.5 925.98 357.91 921.64 357.91Z" fill="black"/>
<path d="M945.84 357.91C943.28 357.91 941.14 357.4 939.43 356.37C937.71 355.34 936.42 353.98 935.55 352.26C934.68 350.54 934.25 348.65 934.25 346.57C934.25 344.1 934.75 342.03 935.76 340.35C936.9 338.57 938.33 337.26 940.05 336.43C941.78 335.6 943.66 335.19 945.71 335.19C952.84 335.19 956.41 338.97 956.41 346.52L956.33 348.27H939.2C939.74 350.27 940.64 351.72 941.9 352.61C943.16 353.5 944.6 353.94 946.23 353.94C948.67 353.94 950.8 353.06 952.62 351.3L955.22 354.07C952.86 356.63 949.73 357.91 945.84 357.91ZM952.06 344.7C951.86 342.78 951.19 341.36 950.04 340.46C948.89 339.55 947.46 339.1 945.76 339.1C943.77 339.1 942.22 339.62 941.12 340.66C940.01 341.7 939.34 343.05 939.12 344.7H952.06Z" fill="black"/>
</g>
<defs>
<filter id="filter0_d_1_73" x="0.660004" y="0.75" width="995.08" height="373.43" filterUnits="userSpaceOnUse" color-interpolation-filters="sRGB">
<feFlood flood-opacity="0" result="BackgroundImageFix"/>
<feColorMatrix in="SourceAlpha" type="matrix" values="0 0 0 0 0 0 0 0 0 0 0 0 0 0 0 0 0 0 127 0" result="hardAlpha"/>
<feOffset dy="4"/>
<feGaussianBlur stdDeviation="2"/>
<feComposite in2="hardAlpha" operator="out"/>
<feColorMatrix type="matrix" values="0 0 0 0 0 0 0 0 0 0 0 0 0 0 0 0 0 0 0.25 0"/>
<feBlend mode="normal" in2="BackgroundImageFix" result="effect1_dropShadow_1_73"/>
<feBlend mode="normal" in="SourceGraphic" in2="effect1_dropShadow_1_73" result="shape"/>
</filter>
</defs>
</svg>
