<?xml version="1.0" encoding="utf-8"?>
<!-- Generator: Adobe Illustrator 25.0.0, SVG Export Plug-In . SVG Version: 6.00 Build 0)  -->
<svg version="1.1" xmlns="http://www.w3.org/2000/svg" xmlns:xlink="http://www.w3.org/1999/xlink" >
<style type="text/css">
	.st0{fill:#0033CC;}
	.st1{fill:#F8333C;}
</style>
<g id="Layer_2">
	<g>
		<path class="st0" d="M391.41,98.39h39.64L514.8,300h-44.95l-17.87-44.9h-82.63L351.49,300h-43.83L391.41,98.39z M436.64,216.21
			l-25.96-64.92l-25.96,64.92H436.64z"/>
		<path class="st0" d="M546.91,99.82h42.99V300h-42.99V99.82z"/>
	</g>
	<g>
		<path class="st1" d="M769.61,291.94h-79.28V91.76h80.12c29.4,0,53.6,9.44,72.58,28.31c18.98,18.87,28.47,42.8,28.47,71.78
			c0,28.98-9.54,52.9-28.62,71.78S799.39,291.94,769.61,291.94z M771.29,261.63c18.42,0,34.2-6.34,47.32-19.02
			c13.12-12.68,19.68-29.5,19.68-50.47c0-21.54-6.75-38.61-20.24-51.19c-13.49-12.58-29.55-18.87-48.16-18.87h-46.62v139.55H771.29z
			"/>
		<path class="st1" d="M966.7,292.08c-16.75,0-30.76-3.44-42.01-10.32c-11.26-6.88-19.73-16.07-25.4-27.57
			c-5.68-11.5-8.51-24.22-8.51-38.18c0-16.59,3.3-30.49,9.91-41.71c7.44-11.97,16.82-20.73,28.13-26.3
			c11.31-5.56,23.66-8.34,37.06-8.34c46.71,0,70.07,25.35,70.07,76.05l-0.56,11.74H923.15c3.54,13.44,9.42,23.14,17.66,29.1
			c8.24,5.96,17.7,8.94,28.41,8.94c16,0,29.96-5.91,41.88-17.73l17.03,18.59C1012.67,283.5,992.2,292.08,966.7,292.08z
			 M1007.46,203.43c-1.3-12.9-5.72-22.39-13.26-28.48c-7.54-6.09-16.89-9.13-28.06-9.13c-13.03,0-23.17,3.5-30.43,10.49
			c-7.26,7-11.63,16.03-13.12,27.11H1007.46z"/>
		<path class="st1" d="M1108.8,292.08c-16.75,0-29.64-4.75-38.67-14.27c-9.03-9.51-13.54-20.61-13.54-33.29
			c0-12.87,4.47-23.54,13.4-31.99c8.93-8.45,23.17-12.68,42.71-12.68h44.95c0-6.37-0.65-11.38-1.95-15.02
			c-3.72-12.38-14.89-18.58-33.5-18.58c-14.15,0-28.75,4.92-43.83,14.75l-13.12-22.19c18.8-12.77,40.11-19.16,63.93-19.16
			c21.03,0,36.29,4.97,45.78,14.92c9.49,9.94,14.24,22.68,14.24,38.21l0.28,99.15h-31.55v-19.46
			C1146.76,285.55,1130.39,292.08,1108.8,292.08z M1115.5,266.06c12.84,0,22.8-2.76,29.87-8.29c7.07-5.53,11.17-12.39,12.28-20.59
			v-14.01h-40.2c-20.47,0-30.71,6.58-30.71,19.73c0,8.01,2.74,13.87,8.24,17.59C1100.47,264.2,1107.31,266.06,1115.5,266.06z"/>
		<path class="st1" d="M1266.81,292.08c-9.68,0-18.24-3.55-25.68-10.66c-7.45-7.1-11.17-18.24-11.17-33.4V79.75h31.83v164.7
			c0,11.74,4.56,17.6,13.68,17.6c4.47,0,9.4-1.6,14.8-4.79l4.47,26.81C1285.04,289.41,1275.74,292.08,1266.81,292.08z"/>
	</g>
	<rect x="629.24" y="263.96" class="st0" width="35.78" height="35.78"/>
	<g>
		<path d="M720.75,370.29h-7.69l-1.89-4.89h-11.95l-1.93,4.89h-7.41l11.87-27.64h7.41L720.75,370.29z M709.04,359.88l-3.79-9.86
			l-3.87,9.86H709.04z"/>
		<path d="M730.21,370.31c-1.75,0-3.18-0.37-4.3-1.11c-1.12-0.74-1.95-1.71-2.49-2.93c-0.55-1.21-0.82-2.55-0.82-4.02v-13.3h7.02
			v11.47c0,2.37,1.14,3.65,3.43,3.86c1.42-0.16,2.44-0.69,3.06-1.6c0.62-0.91,0.93-1.98,0.93-3.21v-10.53h7.02v21.33h-7.02v-3.47
			C735.59,369.15,733.31,370.31,730.21,370.31z"/>
		<path d="M757.54,370.31c-2,0-3.69-0.56-5.07-1.68c-1.38-1.12-2.07-2.83-2.07-5.15v-9.15h-2.96v-4.65h2.96v-5.92h6.98v5.92h5.52
			v4.65h-5.52v8.04c0,1.5,0.58,2.25,1.73,2.25c0.84,0,1.79-0.24,2.84-0.71l1.34,4.97C761.56,369.84,759.64,370.31,757.54,370.31z"/>
		<path d="M776.54,370.31c-2.05,0-3.96-0.37-5.72-1.12s-3.19-1.91-4.28-3.5c-1.09-1.58-1.64-3.61-1.64-6.09
			c0-2.37,0.52-4.35,1.56-5.93c1.12-1.65,2.56-2.85,4.34-3.6c1.78-0.75,3.69-1.13,5.74-1.13c2.04,0,3.95,0.37,5.73,1.11
			c1.78,0.74,3.24,1.93,4.37,3.57c1.05,1.57,1.58,3.57,1.58,5.99c0,1.39-0.22,2.73-0.66,4.01c-0.44,1.28-1.13,2.42-2.07,3.43
			s-2.15,1.8-3.62,2.39C780.4,370.02,778.62,370.31,776.54,370.31z M776.54,364.79c1.58,0,2.74-0.5,3.49-1.49s1.12-2.2,1.12-3.61
			c0-1.39-0.37-2.58-1.1-3.57c-0.74-1-1.91-1.49-3.51-1.49c-0.97,0-1.8,0.22-2.48,0.67c-0.68,0.45-1.2,1.05-1.56,1.82
			c-0.35,0.76-0.53,1.62-0.53,2.58c0,1.59,0.43,2.84,1.28,3.74C774.11,364.34,775.2,364.79,776.54,364.79z"/>
		<path d="M827.92,370.29h-7.02v-11.33c0-2.42-1.17-3.63-3.51-3.63c-1.42,0.15-2.44,0.67-3.08,1.56s-0.95,1.93-0.95,3.13v10.27
			h-7.02v-11.33c0-2.42-1.17-3.63-3.51-3.63c-1.42,0.15-2.45,0.67-3.1,1.56c-0.64,0.88-0.97,1.93-0.97,3.13v10.27h-6.98v-21.33h6.98
			v3.68c1.55-2.47,3.87-3.7,6.94-3.7c3.47,0,5.84,1.57,7.1,4.72c1.5-3.15,3.98-4.72,7.45-4.72c2.16,0,3.97,0.69,5.44,2.07
			s2.21,3.38,2.21,6V370.29z"/>
		<path d="M842.59,370.31c-2.05,0-3.96-0.37-5.72-1.12c-1.76-0.75-3.19-1.91-4.28-3.5c-1.09-1.58-1.64-3.61-1.64-6.09
			c0-2.37,0.52-4.35,1.56-5.93c1.12-1.65,2.56-2.85,4.34-3.6c1.77-0.75,3.69-1.13,5.74-1.13c2.04,0,3.95,0.37,5.73,1.11
			c1.78,0.74,3.24,1.93,4.37,3.57c1.05,1.57,1.58,3.57,1.58,5.99c0,1.39-0.22,2.73-0.66,4.01c-0.44,1.28-1.13,2.42-2.07,3.43
			s-2.15,1.8-3.62,2.39C846.44,370.02,844.67,370.31,842.59,370.31z M842.59,364.79c1.58,0,2.74-0.5,3.49-1.49
			c0.75-1,1.12-2.2,1.12-3.61c0-1.39-0.37-2.58-1.1-3.57c-0.74-1-1.91-1.49-3.51-1.49c-0.97,0-1.8,0.22-2.48,0.67
			s-1.2,1.05-1.56,1.82c-0.36,0.76-0.53,1.62-0.53,2.58c0,1.59,0.43,2.84,1.28,3.74C840.15,364.34,841.25,364.79,842.59,364.79z"/>
		<path d="M865.97,370.31c-2,0-3.69-0.56-5.07-1.68c-1.38-1.12-2.07-2.83-2.07-5.15v-9.15h-2.96v-4.65h2.96v-5.92h6.98v5.92h5.52
			v4.65h-5.52v8.04c0,1.5,0.58,2.25,1.74,2.25c0.84,0,1.79-0.24,2.84-0.71l1.34,4.97C870,369.84,868.08,370.31,865.97,370.31z"/>
		<path d="M878.59,346.64c-1.24,0-2.16-0.38-2.78-1.14s-0.93-1.63-0.93-2.6c0-1.26,0.38-2.2,1.12-2.82
			c0.75-0.62,1.61-0.93,2.58-0.93c0.97,0,1.83,0.31,2.58,0.93c0.75,0.62,1.12,1.56,1.12,2.82c0,0.97-0.31,1.84-0.93,2.6
			S879.83,346.64,878.59,346.64z M882.06,370.29h-6.98v-21.33h6.98V370.29z"/>
		<path d="M899.73,370.29h-7.22l-7.96-21.33h7.22l4.46,14.83l4.5-14.83h7.02L899.73,370.29z"/>
		<path d="M919.64,370.31c-2.5,0-4.58-0.46-6.25-1.39c-1.75-0.99-3.02-2.29-3.83-3.9c-0.8-1.61-1.2-3.38-1.2-5.29
			c0-2.36,0.49-4.34,1.48-5.94s2.32-2.81,4-3.62s3.56-1.22,5.64-1.22c2.55,0,4.61,0.48,6.19,1.43c1.63,1,2.81,2.35,3.53,4.03
			c0.72,1.68,1.08,3.56,1.08,5.63l-0.04,1.26h-14.83c0.84,2.5,2.46,3.75,4.85,3.75c1.81,0,3.48-0.72,5.01-2.17l3.67,3.67
			C926.69,369.05,923.58,370.31,919.64,370.31z M923.47,357.54c0-1.15-0.37-2.05-1.1-2.7c-0.74-0.65-1.68-0.97-2.84-0.97
			c-1.29,0-2.27,0.34-2.96,1.02c-0.68,0.68-1.12,1.56-1.3,2.64H923.47z"/>
		<path d="M957.34,370.29h-11.63v-27.64h11.91c3.18,0,5.86,0.62,8.04,1.85c2.29,1.33,3.97,3.04,5.05,5.15
			c1.08,2.1,1.62,4.37,1.62,6.8c0,2.97-0.66,5.49-1.99,7.55c-1.42,2.16-3.27,3.74-5.55,4.76
			C962.5,369.79,960.02,370.29,957.34,370.29z M957.81,364.46c1.18,0,2.32-0.28,3.41-0.83c1.09-0.55,2-1.44,2.72-2.66
			c0.67-1.17,1.01-2.65,1.01-4.44c0-1.83-0.36-3.33-1.06-4.52c-0.78-1.24-1.74-2.13-2.88-2.67c-1.14-0.55-2.33-0.82-3.55-0.82h-4.54
			v15.93H957.81z"/>
		<path d="M985.45,370.31c-2.5,0-4.58-0.46-6.25-1.39c-1.75-0.99-3.02-2.29-3.83-3.9c-0.8-1.61-1.2-3.38-1.2-5.29
			c0-2.36,0.49-4.34,1.48-5.94s2.32-2.81,4-3.62s3.56-1.22,5.64-1.22c2.55,0,4.61,0.48,6.19,1.43c1.63,1,2.81,2.35,3.53,4.03
			s1.08,3.56,1.08,5.63l-0.04,1.26h-14.83c0.84,2.5,2.46,3.75,4.85,3.75c1.81,0,3.48-0.72,5.01-2.17l3.67,3.67
			C992.5,369.05,989.4,370.31,985.45,370.31z M989.28,357.54c0-1.15-0.37-2.05-1.1-2.7s-1.68-0.97-2.84-0.97
			c-1.29,0-2.27,0.34-2.96,1.02c-0.68,0.68-1.12,1.56-1.3,2.64H989.28z"/>
		<path d="M1005.33,370.31c-2.47,0-4.31-0.66-5.5-1.98c-1.2-1.32-1.79-2.92-1.79-4.79c0-4.11,2.72-6.17,8.16-6.17h5.56
			c0-2.05-1.35-3.08-4.06-3.08c-1.81,0-3.94,0.48-6.39,1.45l-1.93-4.48c3.23-1.55,6.54-2.33,9.94-2.33c2.66,0,4.84,0.61,6.55,1.83
			s2.64,3.16,2.8,5.81v13.72h-6.9v-2.56C1010.39,369.46,1008.25,370.31,1005.33,370.31z M1007.5,365.54c1.23,0,2.2-0.27,2.89-0.8
			c0.69-0.53,1.15-1.19,1.37-1.96v-1.85h-4.18c-1.97,0-2.96,0.74-2.96,2.21c0,0.66,0.22,1.22,0.67,1.7
			C1005.73,365.31,1006.47,365.54,1007.5,365.54z"/>
		<path d="M1030.37,370.31c-1.29,0-2.5-0.26-3.63-0.79c-1.13-0.53-2.04-1.37-2.72-2.54s-1.03-2.73-1.03-4.67V340.7h7.02V362
			c0,1.45,0.62,2.17,1.85,2.17c0.6,0,1.27-0.18,2.01-0.55l0.59,5.8C1033.05,370.01,1031.68,370.31,1030.37,370.31z"/>
		<path d="M1046.57,370.31c-2.5,0-4.58-0.46-6.25-1.39c-1.75-0.99-3.02-2.29-3.82-3.9c-0.8-1.61-1.2-3.38-1.2-5.29
			c0-2.36,0.49-4.34,1.48-5.94c0.99-1.6,2.32-2.81,4-3.62c1.68-0.81,3.56-1.22,5.64-1.22c2.55,0,4.61,0.48,6.19,1.43
			c1.63,1,2.81,2.35,3.53,4.03s1.08,3.56,1.08,5.63l-0.04,1.26h-14.83c0.84,2.5,2.46,3.75,4.85,3.75c1.81,0,3.48-0.72,5.01-2.17
			l3.67,3.67C1053.62,369.05,1050.52,370.31,1046.57,370.31z M1050.4,357.54c0-1.15-0.37-2.05-1.1-2.7s-1.68-0.97-2.84-0.97
			c-1.29,0-2.28,0.34-2.96,1.02c-0.68,0.68-1.12,1.56-1.3,2.64H1050.4z"/>
		<path d="M1067.83,370.29h-7.02v-21.33h7.02v3.72c1.58-2.5,3.87-3.74,6.86-3.74v6.41h-0.83c-3.5,0-5.51,1.47-6.03,4.4V370.29z"/>
		<path d="M1085.33,370.31c-3.55,0-6.76-1.01-9.62-3.04l2.21-4.37c2.65,1.65,5.18,2.48,7.57,2.48c0.83,0,1.41-0.11,1.74-0.33
			c0.34-0.22,0.5-0.55,0.5-1c0-0.51-0.26-0.88-0.79-1.1s-1.22-0.44-2.09-0.65c-5.42-1.17-8.12-3.4-8.12-6.7
			c0-1.52,0.39-2.77,1.18-3.75c0.89-1.04,2-1.79,3.32-2.24s2.74-0.68,4.25-0.68c3.08,0,6.03,0.83,8.87,2.48l-2.37,4.61
			c-2.79-1.47-5.05-2.2-6.78-2.2c-1.34,0-2.01,0.43-2.01,1.29c0,0.86,1.21,1.54,3.63,2.02c1.79,0.43,3.46,1.08,5.01,1.96
			c1.55,0.88,2.39,2.4,2.52,4.59c0,1.55-0.41,2.8-1.24,3.77c-0.88,1-2.01,1.73-3.37,2.18
			C1088.38,370.09,1086.91,370.31,1085.33,370.31z"/>
		<path d="M1120.19,370.29h-7.02v-11.24c0-1.03-0.29-1.93-0.87-2.7c-0.58-0.76-1.5-1.14-2.76-1.14c-1.47,0.16-2.54,0.68-3.19,1.57
			c-0.66,0.89-0.99,1.95-0.99,3.16v10.35h-7.02v-29.26h7.02v11.65c1.63-2.5,3.98-3.75,7.06-3.75c1.29,0,2.52,0.26,3.71,0.79
			s2.17,1.4,2.96,2.62c0.74,1.18,1.1,2.73,1.1,4.66V370.29z"/>
		<path d="M1128.43,346.64c-1.24,0-2.16-0.38-2.78-1.14c-0.62-0.76-0.93-1.63-0.93-2.6c0-1.26,0.38-2.2,1.12-2.82
			s1.61-0.93,2.58-0.93s1.83,0.31,2.58,0.93s1.12,1.56,1.12,2.82c0,0.97-0.31,1.84-0.93,2.6
			C1130.6,346.25,1129.67,346.64,1128.43,346.64z M1131.9,370.29h-6.98v-21.33h6.98V370.29z"/>
		<path d="M1144.48,377.94h-7.02v-28.98h7.02v2.9c1.52-1.95,3.61-2.92,6.27-2.92c1.75,0,3.38,0.39,4.91,1.18s2.76,2.02,3.71,3.69
			c0.88,1.6,1.32,3.57,1.32,5.91c0,1.37-0.18,2.68-0.54,3.95c-0.36,1.27-0.93,2.4-1.71,3.39c-0.78,0.99-1.79,1.78-3.03,2.37
			c-1.24,0.59-2.73,0.88-4.49,0.88c-2.71,0-4.85-1-6.43-3V377.94z M1149.02,364.64c1.6,0,2.77-0.5,3.51-1.49
			c0.74-1,1.1-2.19,1.1-3.57c0-1.39-0.38-2.58-1.12-3.59c-0.75-1.01-1.91-1.51-3.49-1.51c-1.52,0-2.66,0.5-3.41,1.51
			c-0.75,1.01-1.12,2.21-1.12,3.59c0,1.71,0.45,2.99,1.34,3.82C1146.72,364.22,1147.78,364.64,1149.02,364.64z"/>
	</g>
	<g>
		<path d="M792.77,436.89h-5.03v-29.83h11.89c3.52,0,6.37,0.83,8.54,2.49c2.17,1.66,3.26,4.23,3.26,7.69c0,1.99-0.39,3.79-1.17,5.4
			c-0.78,1.61-2.06,2.9-3.83,3.87c-1.73,0.92-4,1.38-6.8,1.38h-6.86V436.89z M799.42,423.38c4.8,0,7.2-2,7.2-6.01
			c0-3.86-2.4-5.8-7.2-5.8h-6.65v11.8H799.42z"/>
		<path d="M821.03,436.89h-4.9v-22.67h4.9v4.52c1.68-3.01,4.29-4.52,7.84-4.52v4.52c-2.47,0-4.35,0.57-5.65,1.7
			c-1.29,1.14-2.02,2.67-2.19,4.6V436.89z"/>
		<path d="M842.37,436.91c-2.56,0-4.7-0.51-6.41-1.54c-1.72-1.03-3.01-2.39-3.88-4.11s-1.3-3.61-1.3-5.69c0-2.47,0.5-4.54,1.51-6.22
			c1.14-1.78,2.57-3.09,4.29-3.92c1.73-0.83,3.61-1.24,5.66-1.24c7.13,0,10.7,3.78,10.7,11.33l-0.08,1.75h-17.13
			c0.54,2,1.44,3.45,2.7,4.34c1.26,0.89,2.7,1.33,4.33,1.33c2.44,0,4.57-0.88,6.39-2.64l2.6,2.77
			C849.39,435.63,846.27,436.91,842.37,436.91z M848.59,423.7c-0.2-1.92-0.87-3.34-2.02-4.24c-1.15-0.91-2.58-1.36-4.28-1.36
			c-1.99,0-3.54,0.52-4.64,1.56c-1.11,1.04-1.78,2.39-2,4.04H848.59z"/>
		<path d="M866.71,436.91c-2.39,0-4.38-0.51-5.99-1.53c-1.73-1.17-2.98-2.63-3.74-4.38s-1.14-3.59-1.14-5.53
			c0-2.4,0.48-4.44,1.44-6.12c0.96-1.68,2.25-2.95,3.88-3.83c1.63-0.88,3.45-1.32,5.46-1.32c3.66,0,6.35,1.38,8.05,4.13v-13.06h4.9
			v31.62h-4.9v-4.07C873,435.55,870.34,436.91,866.71,436.91z M867.73,432.82c2.19,0,3.89-0.71,5.11-2.12
			c1.22-1.41,1.83-3.1,1.83-5.06s-0.61-3.67-1.83-5.11c-1.22-1.44-2.93-2.16-5.11-2.16c-2.22,0-3.91,0.69-5.09,2.05
			c-1.18,1.37-1.81,3.11-1.9,5.21c0.06,2.1,0.65,3.83,1.79,5.17C863.67,432.15,865.4,432.82,867.73,432.82z"/>
		<path d="M889.46,411.21c-0.72,0-1.38-0.26-1.97-0.78c-0.59-0.52-0.88-1.25-0.88-2.21c0-1.01,0.29-1.76,0.87-2.25
			c0.58-0.49,1.24-0.73,1.98-0.73s1.4,0.25,1.98,0.73c0.58,0.49,0.87,1.24,0.87,2.25c0,0.81-0.26,1.51-0.77,2.1
			C891.04,410.92,890.34,411.21,889.46,411.21z M891.89,436.89h-4.86v-22.67h4.86V436.89z"/>
		<path d="M908.42,436.91c-3.27,0-5.99-1.01-8.16-3.03c-2.17-2.02-3.26-4.78-3.26-8.29c0-2.44,0.52-4.51,1.56-6.2
			c1.18-1.84,2.64-3.16,4.38-3.97s3.57-1.22,5.49-1.22c4.06,0,7.19,1.24,9.38,3.71l-2.68,3.23c-1.56-1.73-3.72-2.59-6.48-2.59
			c-1.05,0-2.09,0.24-3.12,0.71c-1.03,0.47-1.9,1.25-2.61,2.33c-0.67,1.04-1,2.39-1,4.04c0,1.59,0.32,2.92,0.96,3.96
			c0.64,1.05,1.47,1.83,2.49,2.34c1.02,0.51,2.12,0.77,3.28,0.77c2.9,0,5.13-0.88,6.69-2.64l2.73,2.64
			C915.98,435.5,912.77,436.91,908.42,436.91z"/>
		<path d="M930.41,436.91c-1.79,0-3.3-0.51-4.52-1.53s-1.83-2.71-1.83-5.07v-11.76h-3.2v-3.67h3.2v-6.22h4.86v6.22h6.69v3.67h-6.69
			v10.87c0,2.04,0.75,3.07,2.26,3.07c1.14,0,2.33-0.33,3.58-0.98l1.24,3.75C934.2,436.36,932.34,436.91,930.41,436.91z"/>
		<path d="M942.94,411.21c-0.72,0-1.38-0.26-1.97-0.78c-0.59-0.52-0.88-1.25-0.88-2.21c0-1.01,0.29-1.76,0.87-2.25
			c0.58-0.49,1.24-0.73,1.98-0.73s1.4,0.25,1.98,0.73c0.58,0.49,0.87,1.24,0.87,2.25c0,0.81-0.26,1.51-0.77,2.1
			C944.51,410.92,943.82,411.21,942.94,411.21z M945.36,436.89h-4.86v-22.67h4.86V436.89z"/>
		<path d="M962.88,436.89h-5.07l-8.78-22.67h5.11l6.31,17.85l6.22-17.85h4.9L962.88,436.89z"/>
		<path d="M984.44,436.91c-2.56,0-4.7-0.51-6.41-1.54c-1.72-1.03-3.01-2.39-3.88-4.11s-1.3-3.61-1.3-5.69c0-2.47,0.5-4.54,1.51-6.22
			c1.14-1.78,2.57-3.09,4.29-3.92c1.73-0.83,3.61-1.24,5.66-1.24c7.13,0,10.7,3.78,10.7,11.33l-0.08,1.75h-17.13
			c0.54,2,1.44,3.45,2.7,4.34c1.26,0.89,2.7,1.33,4.33,1.33c2.44,0,4.57-0.88,6.39-2.64l2.6,2.77
			C991.46,435.63,988.33,436.91,984.44,436.91z M990.66,423.7c-0.2-1.92-0.87-3.34-2.02-4.24c-1.15-0.91-2.58-1.36-4.28-1.36
			c-1.99,0-3.54,0.52-4.64,1.56c-1.11,1.04-1.78,2.39-2,4.04H990.66z"/>
		<path d="M1018.14,436.89h-5.03v-29.83h5.03V436.89z"/>
		<path d="M1047.38,436.89h-4.9v-12.74c0-1.56-0.44-2.87-1.32-3.92c-0.88-1.05-2.26-1.58-4.13-1.58c-2.07,0.17-3.64,0.82-4.69,1.94
			c-1.05,1.12-1.63,2.54-1.75,4.24v12.06h-4.9v-22.67h4.9v4.35c1.56-2.9,4.35-4.35,8.35-4.35c2.87,0,4.99,0.82,6.37,2.47
			s2.07,3.71,2.07,6.2V436.89z"/>
		<path d="M1061.18,436.91c-1.79,0-3.3-0.51-4.52-1.53s-1.83-2.71-1.83-5.07v-11.76h-3.2v-3.67h3.2v-6.22h4.86v6.22h6.69v3.67h-6.69
			v10.87c0,2.04,0.75,3.07,2.26,3.07c1.14,0,2.33-0.33,3.58-0.98l1.24,3.75C1064.97,436.36,1063.11,436.91,1061.18,436.91z"/>
		<path d="M1080.74,436.91c-2.56,0-4.7-0.51-6.41-1.54c-1.72-1.03-3.01-2.39-3.88-4.11s-1.3-3.61-1.3-5.69
			c0-2.47,0.5-4.54,1.51-6.22c1.14-1.78,2.57-3.09,4.29-3.92c1.73-0.83,3.61-1.24,5.66-1.24c7.13,0,10.7,3.78,10.7,11.33l-0.08,1.75
			h-17.13c0.54,2,1.44,3.45,2.7,4.34c1.26,0.89,2.7,1.33,4.33,1.33c2.44,0,4.57-0.88,6.39-2.64l2.6,2.77
			C1087.76,435.63,1084.63,436.91,1080.74,436.91z M1086.96,423.7c-0.2-1.92-0.87-3.34-2.02-4.24c-1.15-0.91-2.58-1.36-4.28-1.36
			c-1.99,0-3.54,0.52-4.64,1.56c-1.11,1.04-1.78,2.39-2,4.04H1086.96z"/>
		<path d="M1101.58,436.91c-1.48,0-2.78-0.53-3.92-1.59c-1.14-1.06-1.71-2.72-1.71-4.98v-25.07h4.86v24.54
			c0,1.75,0.7,2.62,2.09,2.62c0.68,0,1.43-0.24,2.26-0.71l0.68,3.99C1104.36,436.51,1102.94,436.91,1101.58,436.91z"/>
		<path d="M1114.74,436.91c-1.48,0-2.78-0.53-3.92-1.59c-1.14-1.06-1.71-2.72-1.71-4.98v-25.07h4.86v24.54
			c0,1.75,0.7,2.62,2.09,2.62c0.68,0,1.43-0.24,2.26-0.71l0.68,3.99C1117.53,436.51,1116.11,436.91,1114.74,436.91z"/>
		<path d="M1125.1,411.21c-0.72,0-1.38-0.26-1.97-0.78c-0.59-0.52-0.88-1.25-0.88-2.21c0-1.01,0.29-1.76,0.87-2.25
			c0.58-0.49,1.24-0.73,1.98-0.73s1.4,0.25,1.98,0.73c0.58,0.49,0.87,1.24,0.87,2.25c0,0.81-0.26,1.51-0.77,2.1
			C1126.67,410.92,1125.98,411.21,1125.1,411.21z M1127.53,436.89h-4.86v-22.67h4.86V436.89z"/>
		<path d="M1143.46,445.18c-3.35,0-6.49-0.99-9.42-2.98l2.09-3.54c2.16,1.65,4.53,2.47,7.12,2.47c2.02,0,3.71-0.55,5.07-1.64
			c1.36-1.09,2.04-2.69,2.04-4.79v-2.86c-1.56,2.56-4.06,3.83-7.5,3.83c-2.22,0-4.08-0.48-5.6-1.45c-1.52-0.97-2.67-2.28-3.45-3.92
			s-1.17-3.49-1.17-5.52c0-3.39,0.92-6,2.77-7.82s4.28-2.73,7.29-2.73c3.55,0,6.11,1.25,7.67,3.75v-3.75h4.86v20.38
			c0,2.35-0.52,4.31-1.57,5.87c-1.04,1.56-2.45,2.74-4.23,3.52C1147.65,444.78,1145.66,445.18,1143.46,445.18z M1143.85,431.84
			c2.07,0,3.68-0.67,4.82-2c1.14-1.33,1.7-2.96,1.7-4.9c0-1.88-0.58-3.49-1.73-4.83s-2.75-2.02-4.79-2.02
			c-2.07,0-3.67,0.64-4.79,1.93s-1.73,2.93-1.81,4.92c0.06,2.02,0.62,3.67,1.7,4.96S1141.66,431.84,1143.85,431.84z"/>
		<path d="M1171.5,436.91c-2.56,0-4.7-0.51-6.41-1.54c-1.72-1.03-3.01-2.39-3.88-4.11s-1.3-3.61-1.3-5.69c0-2.47,0.5-4.54,1.51-6.22
			c1.14-1.78,2.57-3.09,4.29-3.92c1.73-0.83,3.61-1.24,5.66-1.24c7.13,0,10.7,3.78,10.7,11.33l-0.08,1.75h-17.13
			c0.54,2,1.44,3.45,2.7,4.34c1.26,0.89,2.7,1.33,4.33,1.33c2.44,0,4.57-0.88,6.39-2.64l2.6,2.77
			C1178.52,435.63,1175.39,436.91,1171.5,436.91z M1177.72,423.7c-0.2-1.92-0.87-3.34-2.02-4.24c-1.15-0.91-2.58-1.36-4.28-1.36
			c-1.99,0-3.54,0.52-4.64,1.56c-1.11,1.04-1.78,2.39-2,4.04H1177.72z"/>
		<path d="M1208.79,436.89h-4.9v-12.74c0-1.56-0.44-2.87-1.32-3.92c-0.88-1.05-2.26-1.58-4.13-1.58c-2.07,0.17-3.64,0.82-4.69,1.94
			c-1.05,1.12-1.63,2.54-1.75,4.24v12.06h-4.9v-22.67h4.9v4.35c1.56-2.9,4.35-4.35,8.35-4.35c2.87,0,4.99,0.82,6.37,2.47
			s2.07,3.71,2.07,6.2V436.89z"/>
		<path d="M1224.64,436.91c-3.27,0-5.99-1.01-8.16-3.03c-2.17-2.02-3.26-4.78-3.26-8.29c0-2.44,0.52-4.51,1.56-6.2
			c1.18-1.84,2.64-3.16,4.38-3.97s3.57-1.22,5.49-1.22c4.06,0,7.19,1.24,9.38,3.71l-2.68,3.23c-1.56-1.73-3.72-2.59-6.48-2.59
			c-1.05,0-2.09,0.24-3.12,0.71c-1.03,0.47-1.9,1.25-2.61,2.33c-0.67,1.04-1,2.39-1,4.04c0,1.59,0.32,2.92,0.96,3.96
			c0.64,1.05,1.47,1.83,2.49,2.34c1.02,0.51,2.12,0.77,3.28,0.77c2.9,0,5.13-0.88,6.69-2.64l2.73,2.64
			C1232.19,435.5,1228.98,436.91,1224.64,436.91z"/>
		<path d="M1248.84,436.91c-2.56,0-4.7-0.51-6.41-1.54c-1.72-1.03-3.01-2.39-3.88-4.11s-1.3-3.61-1.3-5.69
			c0-2.47,0.5-4.54,1.51-6.22c1.14-1.78,2.57-3.09,4.29-3.92c1.73-0.83,3.61-1.24,5.66-1.24c7.13,0,10.7,3.78,10.7,11.33l-0.08,1.75
			h-17.13c0.54,2,1.44,3.45,2.7,4.34c1.26,0.89,2.7,1.33,4.33,1.33c2.44,0,4.57-0.88,6.39-2.64l2.6,2.77
			C1255.86,435.63,1252.73,436.91,1248.84,436.91z M1255.06,423.7c-0.2-1.92-0.87-3.34-2.02-4.24c-1.15-0.91-2.58-1.36-4.28-1.36
			c-1.99,0-3.54,0.52-4.64,1.56c-1.11,1.04-1.78,2.39-2,4.04H1255.06z"/>
	</g>
</g>
</svg>
