<svg xmlns="http://www.w3.org/2000/svg" viewBox="0 0 857.28 275.34"><defs><style>.cls-1{fill:#03c;}.cls-2{fill:#f8333c;}</style></defs><g id="Layer_2" data-name="Layer 2"><g id="Layer_1-2" data-name="Layer 1"><g id="Layer_2-2" data-name="Layer 2"><path class="cls-1" d="M83.75,6.77h39.64l83.75,201.61H162.19l-17.87-44.9H61.69l-17.86,44.9H0ZM129,124.59,103,59.67l-26,64.92Z"/><path class="cls-1" d="M239.25,8.2h43V208.38h-43Z"/><path class="cls-2" d="M444.08,200.46q-47.18,0-79.84-32l14.24-27.8Q412,169,444.64,169q18.71,0,27.64-7.1t8.93-17.4q0-14.2-13.12-21.16a97.8,97.8,0,0,0-13.4-6q-7-2.51-17-5.15-26.25-7.51-36.29-13.64-14-8.62-18.7-16.43-7-11.69-7-27.29,0-26.18,20.38-40.51T446.88,0q39.36,0,68.4,20.88L501.6,51.81Q470.05,32,444.37,32q-13.68,0-22.75,4.87t-9.07,16q0,11.15,9.91,18.59t33.08,13.43q33.78,8.91,49.13,23.38,11.73,11.7,13.12,35.36,0,18.93-9.91,31.46a62.52,62.52,0,0,1-28,19.42A107.27,107.27,0,0,1,444.08,200.46Z"/><path class="cls-2" d="M616.33,200.46q-25.12,0-42-10.32a66,66,0,0,1-25.4-27.57,85,85,0,0,1-8.51-38.18q0-24.89,9.91-41.71,11.16-18,28.13-26.3A82.84,82.84,0,0,1,615.51,48q70.07,0,70.07,76.05L685,135.83H572.78q5.31,20.16,17.66,29.1a47.21,47.21,0,0,0,28.41,8.94q24,0,41.88-17.73l17,18.59Q654.57,200.46,616.33,200.46Zm40.76-88.65q-2-19.35-13.26-28.48T615.77,74.2q-19.54,0-30.43,10.49T572.22,111.8h84.87Z"/><path class="cls-2" d="M780.48,200.46q-25.12,0-42-10.32a66,66,0,0,1-25.4-27.57,85,85,0,0,1-8.51-38.18q0-24.89,9.91-41.71,11.16-18,28.13-26.3A82.84,82.84,0,0,1,779.66,48q70.07,0,70.07,76.05l-.56,11.74H736.94q5.31,20.16,17.66,29.1A47.21,47.21,0,0,0,783,173.87q24,0,41.88-17.73l17,18.59Q818.72,200.46,780.48,200.46Zm40.76-88.65Q819.29,92.46,808,83.33T779.92,74.2q-19.54,0-30.43,10.49T736.37,111.8h84.87Z"/><rect class="cls-1" x="321.58" y="172.34" width="35.78" height="35.78"/><path d="M187.72,267.67H176.09V240H188a16.15,16.15,0,0,1,8,1.85,12.55,12.55,0,0,1,5.05,5.15,14.66,14.66,0,0,1,1.62,6.8,13.64,13.64,0,0,1-2,7.55,12.77,12.77,0,0,1-5.55,4.76A17.9,17.9,0,0,1,187.72,267.67Zm.48-5.83a7.49,7.49,0,0,0,3.41-.83,6.67,6.67,0,0,0,2.72-2.66,8.84,8.84,0,0,0,1-4.44,8.69,8.69,0,0,0-1.06-4.52,6.91,6.91,0,0,0-2.88-2.67,8.09,8.09,0,0,0-3.55-.82h-4.53v15.93h4.88Z"/><path d="M209.81,244a3.37,3.37,0,0,1-2.78-1.14,4,4,0,0,1-.93-2.6,3.45,3.45,0,0,1,1.12-2.82,4,4,0,0,1,5.16,0,3.45,3.45,0,0,1,1.12,2.82,4,4,0,0,1-.93,2.6A3.34,3.34,0,0,1,209.81,244Zm3.47,23.65h-7V246.34h7Z"/><path d="M226.21,267.69a16.23,16.23,0,0,1-9.62-3l2.21-4.37a14.43,14.43,0,0,0,7.57,2.48,3.32,3.32,0,0,0,1.74-.33,1.1,1.1,0,0,0,.5-1,1.13,1.13,0,0,0-.79-1.1,13.16,13.16,0,0,0-2.09-.65q-8.13-1.76-8.12-6.7a5.78,5.78,0,0,1,1.18-3.75,7.46,7.46,0,0,1,3.32-2.24,13.1,13.1,0,0,1,4.25-.68,17.4,17.4,0,0,1,8.87,2.48l-2.37,4.61q-4.19-2.21-6.78-2.2-2,0-2,1.29c0,.86,1.21,1.54,3.63,2a19.14,19.14,0,0,1,5,2,5.21,5.21,0,0,1,2.52,4.59,5.58,5.58,0,0,1-1.24,3.77,7.51,7.51,0,0,1-3.37,2.18A13.68,13.68,0,0,1,226.21,267.69Z"/><path d="M248.25,267.69a13,13,0,0,1-5.37-1.13,9.45,9.45,0,0,1-4.11-3.58,10.81,10.81,0,0,1-1.48-5.87,12.46,12.46,0,0,1,.68-4.27,9.29,9.29,0,0,1,1.89-3.17,9.44,9.44,0,0,1,2.85-2.11,12.57,12.57,0,0,1,5.62-1.24q6.46,0,9.54,5.05l-5.09,2.91a4.8,4.8,0,0,0-4.18-2.16,4.21,4.21,0,0,0-3,1.21,6.1,6.1,0,0,0,0,7.48,4.19,4.19,0,0,0,3,1.21,4.5,4.5,0,0,0,4.18-2.29l5.17,2.84Q255.07,267.7,248.25,267.69Z"/><path d="M270.73,267.69a12.7,12.7,0,0,1-6.25-1.39,9.21,9.21,0,0,1-3.83-3.9,11.74,11.74,0,0,1-1.2-5.29,11.09,11.09,0,0,1,1.48-5.94,9.45,9.45,0,0,1,4-3.62,12.82,12.82,0,0,1,5.64-1.22,11.89,11.89,0,0,1,6.19,1.43,8.66,8.66,0,0,1,3.53,4,14.17,14.17,0,0,1,1.08,5.63l0,1.26H266.5q1.26,3.75,4.85,3.75a7.15,7.15,0,0,0,5-2.17l3.67,3.67A11.91,11.91,0,0,1,270.73,267.69Zm3.82-12.77a3.43,3.43,0,0,0-1.1-2.7,4.13,4.13,0,0,0-2.84-1,4,4,0,0,0-3,1,4.73,4.73,0,0,0-1.3,2.64h8.2Z"/><path d="M292,267.67h-7V246.34h7v3.72a7.62,7.62,0,0,1,6.86-3.74v6.41H298q-5.25,0-6,4.4v10.54Z"/><path d="M323.72,267.67h-7V256.51a3.57,3.57,0,0,0-1.08-2.9,3.85,3.85,0,0,0-2.54-.9c-2.44,0-3.84,1.35-4.18,4v10.92h-7V246.34h7V250a8,8,0,0,1,7.06-3.66,8.84,8.84,0,0,1,3.72.81,6.85,6.85,0,0,1,2.93,2.64,8.78,8.78,0,0,1,1.08,4.62v13.28Z"/><path d="M346,267.69c-2.47,0-4.31-.66-5.5-2a6.87,6.87,0,0,1-1.79-4.79q0-6.17,8.16-6.17h5.56q0-3.08-4.06-3.08a17.78,17.78,0,0,0-6.39,1.45L340,248.64a22.76,22.76,0,0,1,9.94-2.33,11,11,0,0,1,6.55,1.83q2.56,1.83,2.8,5.81v13.72h-6.9v-2.56C351,266.84,348.88,267.69,346,267.69Zm2.17-4.77a4.64,4.64,0,0,0,2.89-.8,3.74,3.74,0,0,0,1.37-2v-1.85h-4.18c-2,0-3,.74-3,2.21a2.39,2.39,0,0,0,.67,1.7A3,3,0,0,0,348.13,262.92Z"/><path d="M385.83,267.67h-7V256.51a3.57,3.57,0,0,0-1.08-2.9,3.85,3.85,0,0,0-2.54-.9c-2.44,0-3.84,1.35-4.18,4v10.92h-7V246.34h7V250a8,8,0,0,1,7.06-3.66,8.84,8.84,0,0,1,3.72.81,6.85,6.85,0,0,1,2.93,2.64,8.78,8.78,0,0,1,1.08,4.62v13.28Z"/><path d="M398.8,267.69a9.82,9.82,0,0,1-5.52-1.45,9.08,9.08,0,0,1-3.36-4,13.45,13.45,0,0,1-1.05-5.33,14.22,14.22,0,0,1,.54-3.92,9.9,9.9,0,0,1,1.71-3.4,8.1,8.1,0,0,1,3-2.37,10.56,10.56,0,0,1,4.48-.88,7.68,7.68,0,0,1,6.47,3V238.42h7v29.26h-7v-2.89A7.66,7.66,0,0,1,398.8,267.69Zm1.74-5.52a4,4,0,0,0,3.43-1.51,5.76,5.76,0,0,0,1.14-3.58,5.23,5.23,0,0,0-1.28-3.73,4.34,4.34,0,0,0-3.29-1.36,4.06,4.06,0,0,0-3.47,1.51,6.19,6.19,0,0,0,0,7.16A4.06,4.06,0,0,0,400.54,262.17Z"/><path d="M436.74,267.67h-7.22V240h7.22Z"/><path d="M478.22,267.67h-7V256.34q0-3.63-3.51-3.63a4.09,4.09,0,0,0-3.08,1.56,5.21,5.21,0,0,0-.95,3.13v10.27h-7V256.34q0-3.63-3.51-3.63a4.15,4.15,0,0,0-3.1,1.56,5.15,5.15,0,0,0-1,3.13v10.27h-7V246.34h7V250a7.65,7.65,0,0,1,6.94-3.7,7,7,0,0,1,7.1,4.72A8.22,8.22,0,0,1,476,248.39a7.84,7.84,0,0,1,2.21,6v13.28Z"/><path d="M490.21,275.32h-7v-29h7v2.9a7.53,7.53,0,0,1,6.27-2.92,10.53,10.53,0,0,1,4.91,1.18,9.08,9.08,0,0,1,3.71,3.69,12.12,12.12,0,0,1,1.32,5.91,14.38,14.38,0,0,1-.54,3.95,9.68,9.68,0,0,1-1.71,3.39,8.35,8.35,0,0,1-3,2.37,10.38,10.38,0,0,1-4.5.88,7.75,7.75,0,0,1-6.43-3Zm4.53-13.3a4.1,4.1,0,0,0,3.51-1.49,5.83,5.83,0,0,0,1.1-3.57,5.9,5.9,0,0,0-1.12-3.59,4,4,0,0,0-3.49-1.51,4,4,0,0,0-3.41,1.51,5.86,5.86,0,0,0-1.12,3.59,5,5,0,0,0,1.34,3.82A4.51,4.51,0,0,0,494.74,262Z"/><path d="M517.06,267.67h-7V246.34h7v3.72a7.62,7.62,0,0,1,6.86-3.74v6.41h-.83q-5.25,0-6,4.4v10.54Z"/><path d="M536.89,267.69a14.45,14.45,0,0,1-5.72-1.12,9.69,9.69,0,0,1-4.28-3.5,12.09,12.09,0,0,1-.08-12,9.72,9.72,0,0,1,4.34-3.6,14.62,14.62,0,0,1,5.74-1.13,14.78,14.78,0,0,1,5.73,1.11A9.78,9.78,0,0,1,547,251a10.57,10.57,0,0,1,1.58,6,12.26,12.26,0,0,1-.66,4,9.53,9.53,0,0,1-2.07,3.43,10,10,0,0,1-3.62,2.39A14.34,14.34,0,0,1,536.89,267.69Zm0-5.52a4.1,4.1,0,0,0,3.49-1.49,6.36,6.36,0,0,0,0-7.18,4.07,4.07,0,0,0-3.51-1.49,4.4,4.4,0,0,0-2.48.67,4.33,4.33,0,0,0-1.56,1.82,6,6,0,0,0-.53,2.58,5.24,5.24,0,0,0,1.28,3.74A4.33,4.33,0,0,0,536.89,262.17Z"/><path d="M564.46,267.67h-7.22l-8-21.33h7.22L561,261.17l4.5-14.83h7Z"/><path d="M584.37,267.69a12.7,12.7,0,0,1-6.25-1.39,9.21,9.21,0,0,1-3.83-3.9,11.74,11.74,0,0,1-1.2-5.29,11.09,11.09,0,0,1,1.48-5.94,9.45,9.45,0,0,1,4-3.62,12.82,12.82,0,0,1,5.64-1.22,11.89,11.89,0,0,1,6.19,1.43,8.66,8.66,0,0,1,3.53,4,14.17,14.17,0,0,1,1.08,5.63l0,1.26H580.14q1.26,3.75,4.85,3.75a7.15,7.15,0,0,0,5-2.17l3.67,3.67A11.91,11.91,0,0,1,584.37,267.69Zm3.82-12.77a3.43,3.43,0,0,0-1.1-2.7,4.13,4.13,0,0,0-2.84-1,4,4,0,0,0-3,1,4.73,4.73,0,0,0-1.3,2.64h8.2Z"/><path d="M617.65,267.67h-7.22V240h12.15a15.82,15.82,0,0,1,5.62,1,8.38,8.38,0,0,1,4.06,3.16,9.83,9.83,0,0,1,1.44,5.58q0,5.16-3.06,7.73a12.13,12.13,0,0,1-8.06,2.56h-4.93v7.65Zm4.57-13.4c3.08,0,4.61-1.44,4.61-4.31s-1.54-4.15-4.61-4.15h-4.57v8.46Z"/><path d="M644.26,267.67h-7V246.34h7v3.72a7.62,7.62,0,0,1,6.86-3.74v6.41h-.83q-5.25,0-6,4.4v10.54Z"/><path d="M664.1,267.69a14.45,14.45,0,0,1-5.72-1.12,9.69,9.69,0,0,1-4.28-3.5,12.09,12.09,0,0,1-.08-12,9.72,9.72,0,0,1,4.34-3.6,14.59,14.59,0,0,1,5.74-1.13,14.78,14.78,0,0,1,5.73,1.11A9.78,9.78,0,0,1,674.2,251a10.57,10.57,0,0,1,1.58,6,12.26,12.26,0,0,1-.66,4,9.53,9.53,0,0,1-2.07,3.43,10,10,0,0,1-3.62,2.39A14.59,14.59,0,0,1,664.1,267.69Zm0-5.52a4.1,4.1,0,0,0,3.49-1.49,6.36,6.36,0,0,0,0-7.18A4.07,4.07,0,0,0,664.1,252a4.4,4.4,0,0,0-2.48.67,4.33,4.33,0,0,0-1.56,1.82,6,6,0,0,0-.53,2.58,5.24,5.24,0,0,0,1.28,3.74A4.33,4.33,0,0,0,664.1,262.17Z"/><path d="M687.56,267.69a9.82,9.82,0,0,1-5.52-1.45,9.08,9.08,0,0,1-3.36-4,13.45,13.45,0,0,1-1-5.33,14.22,14.22,0,0,1,.54-3.92,9.75,9.75,0,0,1,1.72-3.4,8.1,8.1,0,0,1,3-2.37,10.57,10.57,0,0,1,4.49-.88,7.68,7.68,0,0,1,6.47,3V238.42h7v29.26h-7v-2.89A7.73,7.73,0,0,1,687.56,267.69Zm1.74-5.52a4,4,0,0,0,3.43-1.51,5.78,5.78,0,0,0,1.14-3.58,5.23,5.23,0,0,0-1.28-3.73A4.34,4.34,0,0,0,689.3,252a4.06,4.06,0,0,0-3.47,1.51,6.19,6.19,0,0,0,0,7.16A4.06,4.06,0,0,0,689.3,262.17Z"/><path d="M713.43,267.69a7.65,7.65,0,0,1-4.3-1.11,6.69,6.69,0,0,1-2.49-2.93,9.6,9.6,0,0,1-.82-4v-13.3h7V257.8c0,2.37,1.14,3.65,3.43,3.86a4,4,0,0,0,3.06-1.6,5.56,5.56,0,0,0,.93-3.21V246.32h7v21.33h-7v-3.47A7.45,7.45,0,0,1,713.43,267.69Z"/><path d="M741.86,267.69a13,13,0,0,1-5.37-1.13,9.45,9.45,0,0,1-4.11-3.58,10.81,10.81,0,0,1-1.48-5.87,12.46,12.46,0,0,1,.68-4.27,9.29,9.29,0,0,1,1.89-3.17,9.44,9.44,0,0,1,2.85-2.11,12.57,12.57,0,0,1,5.62-1.24q6.46,0,9.54,5.05l-5.09,2.91a4.8,4.8,0,0,0-4.18-2.16,4.21,4.21,0,0,0-3,1.21,6.1,6.1,0,0,0,0,7.48,4.19,4.19,0,0,0,3,1.21,4.5,4.5,0,0,0,4.18-2.29l5.17,2.84Q748.68,267.7,741.86,267.69Z"/><path d="M762.92,267.69a7.79,7.79,0,0,1-5.07-1.68,6.23,6.23,0,0,1-2.07-5.15v-9.15h-3v-4.65h3v-5.92h7v5.92h5.52v4.65h-5.52v8q0,2.25,1.74,2.25a7.08,7.08,0,0,0,2.84-.71l1.34,5A11.72,11.72,0,0,1,762.92,267.69Z"/><path d="M775.53,244a3.37,3.37,0,0,1-2.78-1.14,4,4,0,0,1-.93-2.6,3.45,3.45,0,0,1,1.12-2.82,4,4,0,0,1,5.16,0,3.45,3.45,0,0,1,1.12,2.82,4,4,0,0,1-.93,2.6A3.33,3.33,0,0,1,775.53,244ZM779,267.67h-7V246.34h7Z"/><path d="M796.67,267.67h-7.22l-8-21.33h7.22l4.46,14.83,4.5-14.83h7Z"/><path d="M810.55,244a3.37,3.37,0,0,1-2.78-1.14,4,4,0,0,1-.93-2.6,3.45,3.45,0,0,1,1.12-2.82,4,4,0,0,1,5.16,0,3.45,3.45,0,0,1,1.12,2.82,4,4,0,0,1-.93,2.6A3.34,3.34,0,0,1,810.55,244ZM814,267.67h-7V246.34h7Z"/><path d="M827.51,267.69a7.79,7.79,0,0,1-5.07-1.68,6.23,6.23,0,0,1-2.07-5.15v-9.15h-3v-4.65h3v-5.92h7v5.92h5.52v4.65h-5.52v8q0,2.25,1.74,2.25a7.08,7.08,0,0,0,2.84-.71l1.34,5A11.72,11.72,0,0,1,827.51,267.69Z"/><path d="M839.77,275.34a9.83,9.83,0,0,1-6.31-2.21l2.92-4.83a4.15,4.15,0,0,0,2.84,1.16,2.66,2.66,0,0,0,2.56-1.59l.51-1-8.83-20.57h7.22l5.09,13.73,4.53-13.73h7l-9.15,23.19C846.58,273.41,843.79,275.34,839.77,275.34Z"/></g></g></g></svg>