<svg width="858" height="276" viewBox="0 0 858 276" fill="none" xmlns="http://www.w3.org/2000/svg">
<path d="M83.75 6.76999H123.39L207.14 208.38H162.19L144.32 163.48H61.69L43.83 208.38H0L83.75 6.76999ZM129 124.59L103 59.67L77 124.59H129Z" fill="#0033CC"/>
<path d="M239.25 8.20001H282.25V208.38H239.25V8.20001Z" fill="#0033CC"/>
<path d="M444.08 200.46C412.627 200.46 386.013 189.793 364.24 168.46L378.48 140.66C400.827 159.553 422.88 169 444.64 169C457.113 169 466.327 166.633 472.28 161.9C478.233 157.167 481.21 151.367 481.21 144.5C481.21 135.033 476.837 127.98 468.09 123.34C463.78 121.007 459.301 119.001 454.69 117.34C450.023 115.667 444.357 113.95 437.69 112.19C420.19 107.183 408.093 102.637 401.4 98.55C392.067 92.8033 385.833 87.3267 382.7 82.12C378.033 74.3267 375.7 65.23 375.7 54.83C375.7 37.3767 382.493 23.8733 396.08 14.32C409.667 4.76667 426.6 -0.00665969 446.88 6.9735e-06C473.12 6.9735e-06 495.92 6.96001 515.28 20.88L501.6 51.81C480.567 38.6033 461.49 32 444.37 32C435.25 32 427.667 33.6233 421.62 36.87C415.573 40.1167 412.55 45.45 412.55 52.87C412.55 60.3033 415.853 66.5 422.46 71.46C429.067 76.42 440.093 80.8967 455.54 84.89C478.06 90.83 494.437 98.6233 504.67 108.27C512.49 116.07 516.863 127.857 517.79 143.63C517.79 156.25 514.487 166.737 507.88 175.09C500.525 184.031 490.831 190.754 479.88 194.51C468.371 198.512 456.265 200.524 444.08 200.46V200.46Z" fill="#F8333C"/>
<path d="M616.33 200.46C599.583 200.46 585.583 197.02 574.33 190.14C563.377 183.598 554.554 174.022 548.93 162.57C543.164 150.678 540.25 137.605 540.42 124.39C540.42 107.797 543.723 93.8933 550.33 82.68C557.77 70.68 567.147 61.9133 578.46 56.38C589.994 50.7546 602.678 47.8859 615.51 48C662.223 48 685.58 73.35 685.58 124.05L685 135.83H572.78C576.32 149.27 582.207 158.97 590.44 164.93C598.697 170.897 608.663 174.033 618.85 173.87C634.85 173.87 648.81 167.96 660.73 156.14L677.73 174.73C662.29 191.883 641.823 200.46 616.33 200.46ZM657.09 111.81C655.757 98.91 651.337 89.4167 643.83 83.33C636.323 77.2433 626.97 74.2 615.77 74.2C602.743 74.2 592.6 77.6967 585.34 84.69C578.08 91.6833 573.707 100.72 572.22 111.8H657.09V111.81Z" fill="#F8333C"/>
<path d="M780.48 200.46C763.733 200.46 749.733 197.02 738.48 190.14C727.527 183.598 718.704 174.022 713.08 162.57C707.314 150.678 704.4 137.605 704.57 124.39C704.57 107.797 707.873 93.8933 714.48 82.68C721.92 70.68 731.297 61.9133 742.61 56.38C754.144 50.7546 766.828 47.8859 779.66 48C826.373 48 849.73 73.35 849.73 124.05L849.17 135.79H736.94C740.48 149.23 746.367 158.93 754.6 164.89C762.85 170.87 772.812 174.02 783 173.87C799 173.87 812.96 167.96 824.88 156.14L841.88 174.73C826.44 191.883 805.973 200.46 780.48 200.46ZM821.24 111.81C819.94 98.91 815.527 89.4167 808 83.33C800.473 77.2433 791.113 74.2 779.92 74.2C766.893 74.2 756.75 77.6967 749.49 84.69C742.23 91.6833 737.857 100.72 736.37 111.8H821.24V111.81Z" fill="#F8333C"/>
<path d="M187.72 267.67H176.09V240H188C190.782 239.917 193.537 240.554 196 241.85C198.151 243.036 199.907 244.826 201.05 247C202.13 249.103 202.686 251.436 202.67 253.8C202.754 256.458 202.058 259.082 200.67 261.35C199.323 263.444 197.394 265.098 195.12 266.11C192.793 267.151 190.27 267.683 187.72 267.67V267.67ZM188.2 261.84C189.386 261.837 190.555 261.553 191.61 261.01C192.756 260.406 193.701 259.482 194.33 258.35C195.045 256.983 195.39 255.452 195.33 253.91C195.393 252.335 195.027 250.773 194.27 249.39C193.588 248.24 192.588 247.313 191.39 246.72C190.284 246.18 189.07 245.9 187.84 245.9H183.31V261.83H188.19L188.2 261.84Z" fill="black"/>
<path d="M209.81 244C209.29 244.038 208.768 243.955 208.286 243.757C207.804 243.559 207.374 243.252 207.03 242.86C206.421 242.131 206.092 241.21 206.1 240.26C206.059 239.736 206.139 239.209 206.333 238.72C206.527 238.232 206.831 237.794 207.22 237.44C207.942 236.831 208.856 236.497 209.8 236.497C210.744 236.497 211.658 236.831 212.38 237.44C212.769 237.794 213.073 238.232 213.267 238.72C213.461 239.209 213.541 239.736 213.5 240.26C213.508 241.21 213.179 242.131 212.57 242.86C212.23 243.251 211.804 243.558 211.325 243.756C210.845 243.953 210.327 244.037 209.81 244V244ZM213.28 267.65H206.28V246.34H213.28V267.65Z" fill="black"/>
<path d="M226.21 267.69C222.766 267.736 219.397 266.685 216.59 264.69L218.8 260.32C221.041 261.841 223.664 262.7 226.37 262.8C226.969 262.85 227.571 262.736 228.11 262.47C228.275 262.363 228.409 262.214 228.497 262.038C228.584 261.862 228.624 261.666 228.61 261.47C228.615 261.226 228.54 260.987 228.398 260.789C228.256 260.59 228.053 260.443 227.82 260.37C227.143 260.096 226.444 259.878 225.73 259.72C220.31 258.547 217.603 256.313 217.61 253.02C217.553 251.671 217.971 250.344 218.79 249.27C219.672 248.235 220.82 247.46 222.11 247.03C223.479 246.571 224.916 246.341 226.36 246.35C229.486 246.365 232.55 247.222 235.23 248.83L232.86 253.44C230.067 251.967 227.807 251.233 226.08 251.24C224.747 251.24 224.08 251.67 224.08 252.53C224.08 253.39 225.29 254.07 227.71 254.53C229.463 254.958 231.146 255.631 232.71 256.53C233.498 257.005 234.146 257.679 234.589 258.485C235.031 259.292 235.252 260.201 235.23 261.12C235.293 262.486 234.851 263.828 233.99 264.89C233.085 265.909 231.92 266.663 230.62 267.07C229.194 267.516 227.704 267.726 226.21 267.69V267.69Z" fill="black"/>
<path d="M248.25 267.69C246.4 267.7 244.569 267.314 242.88 266.56C241.188 265.796 239.759 264.551 238.77 262.98C237.728 261.204 237.214 259.168 237.29 257.11C237.266 255.658 237.496 254.213 237.97 252.84C238.382 251.668 239.024 250.59 239.86 249.67C240.668 248.793 241.635 248.077 242.71 247.56C244.462 246.718 246.386 246.293 248.33 246.32C252.637 246.32 255.817 248.003 257.87 251.37L252.78 254.28C252.327 253.591 251.705 253.031 250.973 252.653C250.241 252.274 249.424 252.091 248.6 252.12C248.045 252.114 247.494 252.218 246.979 252.425C246.464 252.633 245.996 252.94 245.6 253.33C244.77 254.4 244.319 255.716 244.319 257.07C244.319 258.424 244.77 259.74 245.6 260.81C245.995 261.2 246.463 261.508 246.979 261.716C247.494 261.924 248.045 262.027 248.6 262.02C249.441 262.068 250.279 261.879 251.018 261.474C251.757 261.069 252.368 260.465 252.78 259.73L257.95 262.57C256.03 265.99 252.797 267.697 248.25 267.69Z" fill="black"/>
<path d="M270.73 267.69C268.562 267.768 266.41 267.289 264.48 266.3C262.838 265.418 261.503 264.058 260.65 262.4C259.843 260.755 259.432 258.943 259.45 257.11C259.376 255.03 259.889 252.972 260.93 251.17C261.883 249.6 263.273 248.342 264.93 247.55C266.693 246.72 268.622 246.303 270.57 246.33C272.725 246.236 274.865 246.731 276.76 247.76C278.328 248.689 279.564 250.088 280.29 251.76C281.03 253.543 281.397 255.459 281.37 257.39V258.65H266.5C267.34 261.15 268.957 262.4 271.35 262.4C273.238 262.365 275.035 261.585 276.35 260.23L280.02 263.9C278.84 265.17 277.398 266.166 275.794 266.821C274.189 267.476 272.461 267.772 270.73 267.69V267.69ZM274.55 254.92C274.576 254.417 274.491 253.914 274.301 253.447C274.111 252.981 273.82 252.562 273.45 252.22C272.663 251.541 271.649 251.184 270.61 251.22C270.068 251.174 269.523 251.239 269.007 251.411C268.491 251.583 268.016 251.858 267.61 252.22C266.907 252.939 266.452 253.864 266.31 254.86H274.51L274.55 254.92Z" fill="black"/>
<path d="M292 267.67H285V246.34H292V250.06C292.699 248.875 293.706 247.902 294.914 247.244C296.122 246.585 297.485 246.266 298.86 246.32V252.73H298C294.5 252.73 292.5 254.197 292 257.13V267.67Z" fill="black"/>
<path d="M323.72 267.67H316.72V256.51C316.769 255.977 316.698 255.439 316.511 254.937C316.324 254.435 316.026 253.981 315.64 253.61C314.929 253.014 314.027 252.694 313.1 252.71C310.66 252.71 309.26 254.06 308.92 256.71V267.63H301.92V246.34H308.92V250C309.676 248.827 310.725 247.873 311.963 247.231C313.201 246.589 314.586 246.282 315.98 246.34C317.264 246.337 318.534 246.613 319.7 247.15C320.914 247.724 321.933 248.642 322.63 249.79C323.407 251.202 323.781 252.8 323.71 254.41V267.69L323.72 267.67Z" fill="black"/>
<path d="M346 267.69C343.53 267.69 341.69 267.03 340.5 265.69C339.309 264.383 338.668 262.668 338.71 260.9C338.71 256.787 341.43 254.73 346.87 254.73H352.43C352.43 252.677 351.077 251.65 348.37 251.65C346.169 251.733 344.002 252.225 341.98 253.1L340 248.64C343.094 247.121 346.493 246.324 349.94 246.31C352.262 246.213 354.555 246.853 356.49 248.14C358.197 249.36 359.13 251.297 359.29 253.95V267.67H352.39V265.11C351 266.84 348.88 267.69 346 267.69ZM348.17 262.92C349.195 262.981 350.212 262.699 351.06 262.12C351.726 261.624 352.208 260.92 352.43 260.12V258.27H348.25C346.25 258.27 345.25 259.01 345.25 260.48C345.239 261.113 345.48 261.724 345.92 262.18C346.22 262.445 346.571 262.646 346.95 262.773C347.33 262.9 347.731 262.95 348.13 262.92H348.17Z" fill="black"/>
<path d="M385.83 267.67H378.83V256.51C378.879 255.977 378.808 255.439 378.621 254.937C378.434 254.435 378.136 253.981 377.75 253.61C377.039 253.014 376.137 252.694 375.21 252.71C372.77 252.71 371.37 254.06 371.03 256.71V267.63H364.03V246.34H371.03V250C371.786 248.827 372.835 247.873 374.073 247.231C375.311 246.589 376.696 246.282 378.09 246.34C379.374 246.337 380.644 246.613 381.81 247.15C383.024 247.724 384.043 248.642 384.74 249.79C385.517 251.202 385.891 252.8 385.82 254.41V267.69L385.83 267.67Z" fill="black"/>
<path d="M398.8 267.69C396.857 267.764 394.936 267.259 393.28 266.24C391.792 265.265 390.624 263.874 389.92 262.24C389.211 260.553 388.854 258.74 388.87 256.91C388.866 255.585 389.048 254.265 389.41 252.99C389.755 251.757 390.335 250.602 391.12 249.59C391.917 248.572 392.945 247.759 394.12 247.22C395.531 246.603 397.06 246.303 398.6 246.34C399.841 246.28 401.077 246.521 402.204 247.043C403.331 247.566 404.315 248.354 405.07 249.34V238.42H412.07V267.68H405.07V264.79C404.325 265.731 403.37 266.483 402.28 266.987C401.191 267.491 399.999 267.731 398.8 267.69ZM400.54 262.17C401.192 262.218 401.845 262.105 402.443 261.842C403.041 261.578 403.565 261.173 403.97 260.66C404.739 259.628 405.141 258.367 405.11 257.08C405.186 255.717 404.727 254.379 403.83 253.35C403.409 252.904 402.898 252.552 402.331 252.317C401.764 252.083 401.153 251.971 400.54 251.99C399.882 251.941 399.223 252.053 398.618 252.316C398.014 252.579 397.482 252.985 397.07 253.5C396.328 254.546 395.93 255.797 395.93 257.08C395.93 258.363 396.328 259.614 397.07 260.66C397.482 261.175 398.014 261.581 398.618 261.844C399.223 262.107 399.882 262.219 400.54 262.17Z" fill="black"/>
<path d="M436.74 267.67H429.52V240H436.74V267.67Z" fill="black"/>
<path d="M478.22 267.67H471.22V256.34C471.22 253.92 470.05 252.71 467.71 252.71C467.114 252.73 466.529 252.88 465.997 253.149C465.465 253.419 464.999 253.801 464.63 254.27C463.986 255.184 463.652 256.282 463.68 257.4V267.67H456.68V256.34C456.68 253.92 455.51 252.71 453.17 252.71C452.571 252.731 451.984 252.881 451.449 253.15C450.914 253.42 450.444 253.802 450.07 254.27C449.404 255.176 449.053 256.275 449.07 257.4V267.67H442.07V246.34H449.07V250C449.783 248.813 450.806 247.842 452.028 247.19C453.25 246.538 454.627 246.231 456.01 246.3C457.548 246.195 459.078 246.601 460.361 247.454C461.645 248.308 462.611 249.561 463.11 251.02C463.656 249.866 464.463 248.855 465.468 248.067C466.472 247.279 467.646 246.736 468.897 246.481C470.148 246.226 471.441 246.265 472.674 246.597C473.907 246.928 475.046 247.542 476 248.39C476.769 249.179 477.364 250.121 477.744 251.154C478.125 252.188 478.284 253.291 478.21 254.39V267.67H478.22Z" fill="black"/>
<path d="M490.21 275.32H483.21V246.32H490.21V249.22C490.946 248.268 491.899 247.506 492.99 246.998C494.081 246.489 495.278 246.25 496.48 246.3C498.188 246.289 499.873 246.694 501.39 247.48C502.962 248.319 504.252 249.603 505.1 251.17C506.033 252.997 506.487 255.03 506.42 257.08C506.424 258.415 506.243 259.745 505.88 261.03C505.539 262.262 504.958 263.414 504.17 264.42C503.367 265.431 502.34 266.243 501.17 266.79C499.754 267.415 498.217 267.716 496.67 267.67C495.437 267.718 494.21 267.471 493.092 266.949C491.973 266.427 490.995 265.646 490.24 264.67L490.21 275.32ZM494.74 262.02C495.402 262.075 496.067 261.967 496.679 261.708C497.29 261.448 497.829 261.044 498.25 260.53C498.998 259.493 499.385 258.238 499.35 256.96C499.378 255.673 498.985 254.412 498.23 253.37C497.819 252.848 497.285 252.437 496.676 252.174C496.067 251.91 495.401 251.802 494.74 251.86C494.092 251.816 493.442 251.93 492.848 252.193C492.254 252.456 491.733 252.86 491.33 253.37C490.572 254.411 490.179 255.673 490.21 256.96C490.155 257.655 490.245 258.354 490.476 259.012C490.707 259.67 491.073 260.272 491.55 260.78C492.412 261.589 493.558 262.027 494.74 262V262.02Z" fill="black"/>
<path d="M517.06 267.67H510.06V246.34H517.06V250.06C517.759 248.875 518.766 247.902 519.974 247.244C521.182 246.585 522.545 246.266 523.92 246.32V252.73H523.09C519.59 252.73 517.59 254.197 517.09 257.13V267.67H517.06Z" fill="black"/>
<path d="M536.89 267.69C534.927 267.709 532.981 267.328 531.17 266.57C529.434 265.844 527.947 264.628 526.89 263.07C525.833 261.25 525.27 259.185 525.256 257.081C525.242 254.976 525.778 252.904 526.81 251.07C527.869 249.468 529.379 248.215 531.15 247.47C532.968 246.71 534.92 246.326 536.89 246.34C538.855 246.325 540.803 246.703 542.62 247.45C544.397 248.178 545.92 249.412 547 251C548.115 252.797 548.665 254.887 548.58 257C548.584 258.361 548.36 259.713 547.92 261C547.481 262.277 546.775 263.446 545.85 264.43C544.833 265.482 543.597 266.298 542.23 266.82C540.521 267.446 538.709 267.741 536.89 267.69V267.69ZM536.89 262.17C537.549 262.221 538.21 262.112 538.818 261.853C539.425 261.594 539.961 261.191 540.38 260.68C541.103 259.622 541.49 258.371 541.49 257.09C541.49 255.809 541.103 254.558 540.38 253.5C539.961 252.984 539.422 252.578 538.81 252.319C538.198 252.059 537.532 251.953 536.87 252.01C535.995 251.982 535.132 252.215 534.39 252.68C533.709 253.128 533.168 253.759 532.83 254.5C532.464 255.31 532.283 256.191 532.3 257.08C532.222 258.446 532.681 259.788 533.58 260.82C534.004 261.268 534.518 261.62 535.089 261.853C535.66 262.085 536.274 262.194 536.89 262.17Z" fill="black"/>
<path d="M564.46 267.67H557.24L549.24 246.34H556.46L561 261.17L565.5 246.34H572.5L564.46 267.67Z" fill="black"/>
<path d="M584.37 267.69C582.202 267.768 580.05 267.289 578.12 266.3C576.478 265.418 575.143 264.058 574.29 262.4C573.483 260.755 573.072 258.943 573.09 257.11C573.016 255.03 573.529 252.972 574.57 251.17C575.523 249.6 576.913 248.342 578.57 247.55C580.333 246.72 582.262 246.303 584.21 246.33C586.365 246.236 588.505 246.731 590.4 247.76C591.968 248.689 593.204 250.088 593.93 251.76C594.67 253.543 595.037 255.459 595.01 257.39V258.65H580.14C580.98 261.15 582.597 262.4 584.99 262.4C586.878 262.365 588.675 261.585 589.99 260.23L593.66 263.9C592.48 265.17 591.038 266.166 589.434 266.821C587.829 267.476 586.101 267.772 584.37 267.69ZM588.19 254.92C588.216 254.417 588.131 253.914 587.941 253.447C587.751 252.981 587.46 252.562 587.09 252.22C586.303 251.541 585.289 251.184 584.25 251.22C583.708 251.174 583.163 251.239 582.647 251.411C582.131 251.583 581.656 251.858 581.25 252.22C580.547 252.939 580.092 253.864 579.95 254.86H588.15L588.19 254.92Z" fill="black"/>
<path d="M617.65 267.67H610.43V240H622.58C624.498 239.99 626.403 240.329 628.2 241C629.851 241.602 631.271 242.707 632.26 244.16C633.287 245.834 633.788 247.778 633.7 249.74C633.7 253.18 632.68 255.757 630.64 257.47C628.347 259.263 625.487 260.171 622.58 260.03H617.65V267.68V267.67ZM622.22 254.27C625.3 254.27 626.83 252.83 626.83 249.96C626.83 247.09 625.29 245.81 622.22 245.81H617.65V254.27H622.22Z" fill="black"/>
<path d="M644.26 267.67H637.26V246.34H644.26V250.06C644.959 248.875 645.966 247.902 647.174 247.244C648.382 246.585 649.745 246.266 651.12 246.32V252.73H650.29C646.79 252.73 644.79 254.197 644.29 257.13V267.67H644.26Z" fill="black"/>
<path d="M664.1 267.69C662.137 267.709 660.191 267.328 658.38 266.57C656.644 265.844 655.156 264.628 654.1 263.07C653.043 261.25 652.48 259.185 652.466 257.081C652.452 254.976 652.988 252.904 654.02 251.07C655.079 249.468 656.589 248.215 658.36 247.47C660.177 246.71 662.13 246.325 664.1 246.34C666.065 246.325 668.013 246.703 669.83 247.45C671.603 248.179 673.123 249.414 674.2 251C675.315 252.797 675.865 254.887 675.78 257C675.784 258.361 675.56 259.713 675.12 261C674.681 262.277 673.975 263.446 673.05 264.43C672.033 265.482 670.797 266.298 669.43 266.82C667.723 267.439 665.915 267.734 664.1 267.69ZM664.1 262.17C664.759 262.221 665.42 262.112 666.028 261.853C666.635 261.594 667.171 261.191 667.59 260.68C668.313 259.622 668.7 258.371 668.7 257.09C668.7 255.809 668.313 254.558 667.59 253.5C667.174 252.985 666.639 252.579 666.031 252.318C665.423 252.056 664.76 251.947 664.1 252C663.225 251.972 662.362 252.205 661.62 252.67C660.939 253.118 660.398 253.749 660.06 254.49C659.694 255.3 659.513 256.181 659.53 257.07C659.452 258.436 659.911 259.778 660.81 260.81C661.231 261.257 661.742 261.609 662.309 261.844C662.876 262.078 663.487 262.189 664.1 262.17Z" fill="black"/>
<path d="M687.56 267.69C685.617 267.764 683.696 267.259 682.04 266.24C680.552 265.265 679.384 263.874 678.68 262.24C677.988 260.55 677.648 258.736 677.68 256.91C677.676 255.585 677.858 254.265 678.22 252.99C678.564 251.755 679.149 250.599 679.94 249.59C680.737 248.572 681.765 247.759 682.94 247.22C684.354 246.602 685.887 246.302 687.43 246.34C688.671 246.28 689.907 246.521 691.034 247.043C692.161 247.566 693.145 248.354 693.9 249.34V238.42H700.9V267.68H693.9V264.79C693.144 265.736 692.177 266.492 691.075 266.995C689.974 267.499 688.77 267.737 687.56 267.69V267.69ZM689.3 262.17C689.952 262.218 690.605 262.105 691.203 261.842C691.801 261.578 692.325 261.173 692.73 260.66C693.498 259.627 693.899 258.367 693.87 257.08C693.946 255.717 693.487 254.379 692.59 253.35C692.168 252.905 691.657 252.555 691.09 252.323C690.523 252.09 689.913 251.98 689.3 252C688.642 251.951 687.983 252.063 687.378 252.326C686.774 252.589 686.242 252.995 685.83 253.51C685.088 254.556 684.69 255.807 684.69 257.09C684.69 258.373 685.088 259.624 685.83 260.67C686.243 261.183 686.775 261.587 687.38 261.849C687.984 262.11 688.643 262.22 689.3 262.17V262.17Z" fill="black"/>
<path d="M713.43 267.69C711.918 267.753 710.422 267.367 709.13 266.58C708.031 265.868 707.165 264.849 706.64 263.65C706.083 262.391 705.803 261.027 705.82 259.65V246.35H712.82V257.8C712.82 260.17 713.96 261.45 716.25 261.66C716.847 261.639 717.432 261.484 717.962 261.207C718.491 260.93 718.952 260.538 719.31 260.06C719.942 259.111 720.266 257.99 720.24 256.85V246.32H727.24V267.65H720.24V264.18C719.529 265.327 718.52 266.259 717.321 266.877C716.121 267.496 714.777 267.777 713.43 267.69V267.69Z" fill="black"/>
<path d="M741.86 267.69C740.01 267.7 738.179 267.314 736.49 266.56C734.798 265.796 733.369 264.551 732.38 262.98C731.338 261.204 730.824 259.168 730.9 257.11C730.876 255.658 731.106 254.213 731.58 252.84C731.992 251.668 732.634 250.59 733.47 249.67C734.278 248.793 735.245 248.077 736.32 247.56C738.072 246.718 739.996 246.293 741.94 246.32C746.247 246.32 749.427 248.003 751.48 251.37L746.39 254.28C745.937 253.591 745.315 253.031 744.583 252.653C743.851 252.274 743.034 252.091 742.21 252.12C741.655 252.114 741.104 252.218 740.589 252.425C740.074 252.633 739.606 252.94 739.21 253.33C738.38 254.4 737.929 255.716 737.929 257.07C737.929 258.424 738.38 259.74 739.21 260.81C739.605 261.2 740.073 261.508 740.589 261.716C741.104 261.924 741.655 262.027 742.21 262.02C743.051 262.068 743.889 261.879 744.628 261.474C745.367 261.069 745.978 260.465 746.39 259.73L751.56 262.57C749.64 265.99 746.407 267.697 741.86 267.69Z" fill="black"/>
<path d="M762.92 267.69C761.085 267.745 759.289 267.15 757.85 266.01C757.13 265.37 756.569 264.572 756.21 263.678C755.851 262.785 755.704 261.82 755.78 260.86V251.71H752.78V247.06H755.78V241.14H762.78V247.06H768.3V251.71H762.78V259.71C762.78 261.21 763.36 261.96 764.52 261.96C765.506 261.924 766.473 261.682 767.36 261.25L768.7 266.25C766.93 267.22 764.939 267.716 762.92 267.69Z" fill="black"/>
<path d="M775.53 244C775.01 244.038 774.488 243.955 774.006 243.757C773.524 243.559 773.094 243.252 772.75 242.86C772.141 242.131 771.812 241.21 771.82 240.26C771.779 239.736 771.859 239.209 772.053 238.72C772.247 238.232 772.551 237.794 772.94 237.44C773.662 236.831 774.576 236.497 775.52 236.497C776.464 236.497 777.378 236.831 778.1 237.44C778.489 237.794 778.792 238.232 778.987 238.72C779.181 239.209 779.261 239.736 779.22 240.26C779.228 241.21 778.899 242.131 778.29 242.86C777.95 243.252 777.524 243.559 777.045 243.757C776.566 243.955 776.047 244.038 775.53 244ZM779 267.67H772V246.34H779V267.67Z" fill="black"/>
<path d="M796.67 267.67H789.45L781.45 246.34H788.67L793.13 261.17L797.63 246.34H804.63L796.67 267.67Z" fill="black"/>
<path d="M810.55 244C810.03 244.038 809.508 243.955 809.026 243.757C808.544 243.559 808.114 243.252 807.77 242.86C807.161 242.131 806.832 241.21 806.84 240.26C806.799 239.736 806.879 239.209 807.073 238.72C807.267 238.232 807.571 237.794 807.96 237.44C808.682 236.831 809.596 236.497 810.54 236.497C811.484 236.497 812.398 236.831 813.12 237.44C813.509 237.794 813.813 238.232 814.007 238.72C814.201 239.209 814.281 239.736 814.24 240.26C814.248 241.21 813.919 242.131 813.31 242.86C812.97 243.251 812.544 243.558 812.064 243.756C811.585 243.953 811.067 244.037 810.55 244V244ZM814 267.67H807V246.34H814V267.67Z" fill="black"/>
<path d="M827.51 267.69C825.675 267.745 823.879 267.15 822.44 266.01C821.72 265.37 821.159 264.572 820.8 263.678C820.441 262.785 820.294 261.82 820.37 260.86V251.71H817.37V247.06H820.37V241.14H827.37V247.06H832.89V251.71H827.37V259.71C827.37 261.21 827.95 261.96 829.11 261.96C830.096 261.924 831.063 261.682 831.95 261.25L833.29 266.25C831.519 267.22 829.529 267.716 827.51 267.69Z" fill="black"/>
<path d="M839.77 275.34C837.473 275.363 835.241 274.581 833.46 273.13L836.38 268.3C837.144 269.035 838.16 269.45 839.22 269.46C839.757 269.485 840.29 269.346 840.747 269.062C841.204 268.779 841.564 268.363 841.78 267.87L842.29 266.87L833.46 246.3H840.68L845.77 260.03L850.3 246.3H857.3L848.15 269.49C846.58 273.41 843.79 275.34 839.77 275.34Z" fill="black"/>
</svg>
