<svg xmlns="http://www.w3.org/2000/svg" xmlns:xlink="http://www.w3.org/1999/xlink" width="500" zoomAndPan="magnify" viewBox="0 0 375 187.499995" height="250" preserveAspectRatio="xMidYMid meet" version="1.0"><defs><g/><clipPath id="31d5d7e98c"><path d="M 0.5 0 L 374.5 0 L 374.5 187 L 0.5 187 Z M 0.5 0 " clip-rule="nonzero"/></clipPath></defs><g clip-path="url(#31d5d7e98c)"><path fill="#ffffff" d="M 0.5 0 L 374.5 0 L 374.5 187 L 0.5 187 Z M 0.5 0 " fill-opacity="1" fill-rule="nonzero"/><path fill="#ffffff" d="M 0.5 0 L 374.5 0 L 374.5 187 L 0.5 187 Z M 0.5 0 " fill-opacity="1" fill-rule="nonzero"/></g><g fill="#0033cc" fill-opacity="1"><g transform="translate(9.940457, 114.34556)"><g><path d="M 28.375 0.890625 C 24.84375 0.890625 21.582031 0.269531 18.59375 -0.96875 C 15.613281 -2.207031 13.03125 -3.9375 10.84375 -6.15625 C 8.664062 -8.382812 6.976562 -11.023438 5.78125 -14.078125 C 4.59375 -17.140625 4 -20.484375 4 -24.109375 C 4 -27.734375 4.59375 -31.070312 5.78125 -34.125 C 6.976562 -37.175781 8.664062 -39.816406 10.84375 -42.046875 C 13.03125 -44.273438 15.613281 -46.007812 18.59375 -47.25 C 21.582031 -48.488281 24.84375 -49.109375 28.375 -49.109375 C 32.1875 -49.109375 35.6875 -48.40625 38.875 -47 C 42.070312 -45.601562 44.804688 -43.609375 47.078125 -41.015625 C 49.347656 -38.421875 51.007812 -35.351562 52.0625 -31.8125 L 45.59375 -31.8125 C 44.351562 -35.3125 42.207031 -38.054688 39.15625 -40.046875 C 36.101562 -42.046875 32.578125 -43.046875 28.578125 -43.046875 C 24.992188 -43.046875 21.828125 -42.238281 19.078125 -40.625 C 16.328125 -39.019531 14.15625 -36.796875 12.5625 -33.953125 C 10.976562 -31.109375 10.1875 -27.828125 10.1875 -24.109375 C 10.1875 -20.390625 10.976562 -17.101562 12.5625 -14.25 C 14.15625 -11.40625 16.328125 -9.179688 19.078125 -7.578125 C 21.828125 -5.972656 24.992188 -5.171875 28.578125 -5.171875 C 32.671875 -5.171875 36.300781 -6.222656 39.46875 -8.328125 C 42.632812 -10.441406 44.835938 -13.3125 46.078125 -16.9375 L 52.484375 -16.9375 C 51.515625 -13.363281 49.867188 -10.242188 47.546875 -7.578125 C 45.234375 -4.910156 42.4375 -2.832031 39.15625 -1.34375 C 35.875 0.144531 32.28125 0.890625 28.375 0.890625 Z M 28.375 0.890625 "/></g></g></g><g fill="#0033cc" fill-opacity="1"><g transform="translate(66.14332, 114.34556)"><g><path d="M 25.078125 0.828125 C 19.242188 0.828125 14.679688 -0.984375 11.390625 -4.609375 C 8.109375 -8.242188 6.46875 -13.25 6.46875 -19.625 L 6.46875 -48.21875 L 12.46875 -48.21875 L 12.46875 -20.046875 C 12.46875 -15.128906 13.546875 -11.40625 15.703125 -8.875 C 17.859375 -6.351562 20.984375 -5.09375 25.078125 -5.09375 C 33.472656 -5.09375 37.671875 -10.078125 37.671875 -20.046875 L 37.671875 -48.21875 L 43.734375 -48.21875 L 43.734375 -19.625 C 43.734375 -13.25 42.078125 -8.242188 38.765625 -4.609375 C 35.460938 -0.984375 30.898438 0.828125 25.078125 0.828125 Z M 25.078125 0.828125 "/></g></g></g><g fill="#ff0000" fill-opacity="1"><g transform="translate(202.988804, 112.480549)"><g><path d="M 21.03125 0.625 C 17.550781 0.625 14.375 0.0546875 11.5 -1.078125 C 8.632812 -2.222656 5.894531 -3.972656 3.28125 -6.328125 L 6.328125 -9.921875 C 8.597656 -7.859375 10.890625 -6.316406 13.203125 -5.296875 C 15.523438 -4.285156 18.195312 -3.78125 21.21875 -3.78125 C 24.15625 -3.78125 26.5 -4.472656 28.25 -5.859375 C 30.007812 -7.242188 30.890625 -9.015625 30.890625 -11.171875 L 30.890625 -11.296875 C 30.890625 -12.285156 30.722656 -13.179688 30.390625 -13.984375 C 30.066406 -14.796875 29.488281 -15.53125 28.65625 -16.1875 C 27.832031 -16.851562 26.6875 -17.453125 25.21875 -17.984375 C 23.75 -18.523438 21.878906 -19.046875 19.609375 -19.546875 C 17.117188 -20.078125 14.953125 -20.691406 13.109375 -21.390625 C 11.273438 -22.097656 9.757812 -22.945312 8.5625 -23.9375 C 7.363281 -24.9375 6.472656 -26.097656 5.890625 -27.421875 C 5.316406 -28.742188 5.03125 -30.289062 5.03125 -32.0625 L 5.03125 -32.1875 C 5.03125 -33.882812 5.378906 -35.457031 6.078125 -36.90625 C 6.785156 -38.351562 7.78125 -39.601562 9.0625 -40.65625 C 10.34375 -41.71875 11.847656 -42.546875 13.578125 -43.140625 C 15.316406 -43.742188 17.222656 -44.046875 19.296875 -44.046875 C 22.472656 -44.046875 25.25 -43.597656 27.625 -42.703125 C 30.007812 -41.816406 32.316406 -40.484375 34.546875 -38.703125 L 31.703125 -34.921875 C 29.671875 -36.578125 27.628906 -37.773438 25.578125 -38.515625 C 23.535156 -39.265625 21.398438 -39.640625 19.171875 -39.640625 C 16.316406 -39.640625 14.0625 -38.96875 12.40625 -37.625 C 10.75 -36.28125 9.921875 -34.613281 9.921875 -32.625 L 9.921875 -32.5 C 9.921875 -31.46875 10.085938 -30.546875 10.421875 -29.734375 C 10.753906 -28.929688 11.351562 -28.1875 12.21875 -27.5 C 13.082031 -26.820312 14.28125 -26.203125 15.8125 -25.640625 C 17.34375 -25.085938 19.3125 -24.5625 21.71875 -24.0625 C 26.550781 -22.988281 30.113281 -21.5 32.40625 -19.59375 C 34.707031 -17.695312 35.859375 -15.09375 35.859375 -11.78125 L 35.859375 -11.65625 C 35.859375 -9.800781 35.484375 -8.117188 34.734375 -6.609375 C 33.992188 -5.097656 32.972656 -3.800781 31.671875 -2.71875 C 30.367188 -1.644531 28.804688 -0.816406 26.984375 -0.234375 C 25.160156 0.335938 23.175781 0.625 21.03125 0.625 Z M 21.03125 0.625 "/></g></g></g><g fill="#ff0000" fill-opacity="1"><g transform="translate(242.685017, 112.480549)"><g><path d="M 17.4375 -38.890625 L 2.796875 -38.890625 L 2.796875 -43.421875 L 36.96875 -43.421875 L 36.96875 -38.890625 L 22.328125 -38.890625 L 22.328125 0 L 17.4375 0 Z M 17.4375 -38.890625 "/></g></g></g><g fill="#ff0000" fill-opacity="1"><g transform="translate(282.443259, 112.480549)"><g><path d="M 6.140625 -43.421875 L 37.53125 -43.421875 L 37.53125 -38.953125 L 11.046875 -38.953125 L 11.046875 -24.125 L 34.734375 -24.125 L 34.734375 -19.65625 L 11.046875 -19.65625 L 11.046875 -4.46875 L 37.84375 -4.46875 L 37.84375 0 L 6.140625 0 Z M 6.140625 -43.421875 "/></g></g></g><g fill="#ff0000" fill-opacity="1"><g transform="translate(324.000232, 112.480549)"><g><path d="M 6.140625 -43.421875 L 22.390625 -43.421875 C 24.828125 -43.421875 27.046875 -43.097656 29.046875 -42.453125 C 31.054688 -41.816406 32.773438 -40.910156 34.203125 -39.734375 C 35.628906 -38.554688 36.722656 -37.117188 37.484375 -35.421875 C 38.253906 -33.722656 38.640625 -31.800781 38.640625 -29.65625 L 38.640625 -29.53125 C 38.640625 -27.164062 38.1875 -25.101562 37.28125 -23.34375 C 36.375 -21.59375 35.144531 -20.117188 33.59375 -18.921875 C 32.039062 -17.722656 30.226562 -16.820312 28.15625 -16.21875 C 26.09375 -15.625 23.90625 -15.328125 21.59375 -15.328125 L 11.046875 -15.328125 L 11.046875 0 L 6.140625 0 Z M 21.765625 -19.78125 C 23.546875 -19.78125 25.171875 -20.007812 26.640625 -20.46875 C 28.109375 -20.925781 29.367188 -21.578125 30.421875 -22.421875 C 31.484375 -23.273438 32.289062 -24.28125 32.84375 -25.4375 C 33.40625 -26.59375 33.6875 -27.894531 33.6875 -29.34375 L 33.6875 -29.46875 C 33.6875 -32.570312 32.617188 -34.914062 30.484375 -36.5 C 28.359375 -38.09375 25.535156 -38.890625 22.015625 -38.890625 L 11.046875 -38.890625 L 11.046875 -19.78125 Z M 21.765625 -19.78125 "/></g></g></g><g fill="#0033cc" fill-opacity="1"><g transform="translate(116.409107, 112.11782)"><g><path d="M 29.078125 1.1875 C 24.316406 1.1875 20.109375 0.132812 16.453125 -1.96875 C 12.796875 -4.070312 9.929688 -7.007812 7.859375 -10.78125 C 5.785156 -14.5625 4.75 -18.894531 4.75 -23.78125 C 4.75 -28.65625 5.785156 -32.960938 7.859375 -36.703125 C 9.929688 -40.453125 12.8125 -43.378906 16.5 -45.484375 C 20.1875 -47.585938 24.410156 -48.640625 29.171875 -48.640625 C 34.234375 -48.640625 38.617188 -47.453125 42.328125 -45.078125 C 46.046875 -42.703125 48.894531 -39.425781 50.875 -35.25 C 52.863281 -31.070312 53.765625 -26.210938 53.578125 -20.671875 L 12.53125 -20.671875 C 13.132812 -16.210938 14.929688 -12.65625 17.921875 -10 C 20.910156 -7.351562 24.660156 -6.03125 29.171875 -6.03125 C 32.273438 -6.03125 35.109375 -6.703125 37.671875 -8.046875 C 40.234375 -9.390625 42.242188 -11.3125 43.703125 -13.8125 L 52.390625 -13.8125 C 50.503906 -9.175781 47.488281 -5.515625 43.34375 -2.828125 C 39.195312 -0.148438 34.441406 1.1875 29.078125 1.1875 Z M 12.625 -27.4375 L 45.90625 -27.4375 C 45.113281 -31.757812 43.207031 -35.171875 40.1875 -37.671875 C 37.164062 -40.171875 33.492188 -41.421875 29.171875 -41.421875 C 24.773438 -41.421875 21.082031 -40.140625 18.09375 -37.578125 C 15.113281 -35.015625 13.289062 -31.632812 12.625 -27.4375 Z M 12.625 -27.4375 "/></g></g></g><g fill="#0033cc" fill-opacity="1"><g transform="translate(174.555694, 112.11782)"><g><path d="M 11.703125 0.734375 C 9.867188 0.734375 8.390625 0.15625 7.265625 -1 C 6.140625 -2.164062 5.578125 -3.597656 5.578125 -5.296875 C 5.578125 -7.066406 6.140625 -8.5 7.265625 -9.59375 C 8.390625 -10.695312 9.867188 -11.25 11.703125 -11.25 C 13.585938 -11.25 15.09375 -10.695312 16.21875 -9.59375 C 17.351562 -8.5 17.921875 -7.066406 17.921875 -5.296875 C 17.921875 -3.597656 17.351562 -2.164062 16.21875 -1 C 15.09375 0.15625 13.585938 0.734375 11.703125 0.734375 Z M 5.578125 -42.25 C 5.578125 -44.007812 6.140625 -45.4375 7.265625 -46.53125 C 8.390625 -47.632812 9.867188 -48.1875 11.703125 -48.1875 C 13.585938 -48.1875 15.09375 -47.632812 16.21875 -46.53125 C 17.351562 -45.4375 17.921875 -44.007812 17.921875 -42.25 C 17.921875 -40.539062 17.351562 -39.101562 16.21875 -37.9375 C 15.09375 -36.78125 13.585938 -36.203125 11.703125 -36.203125 C 9.867188 -36.203125 8.390625 -36.78125 7.265625 -37.9375 C 6.140625 -39.101562 5.578125 -40.539062 5.578125 -42.25 Z M 5.578125 -42.25 "/></g></g></g></svg>