<svg xmlns="http://www.w3.org/2000/svg" viewBox="0 0 656.07 313"><defs><style>.cls-1{fill:#c66;}.cls-2{fill:#252359;}</style></defs><title>Asset 1</title><g id="Layer_2" data-name="Layer 2"><g id="Layer_1-2" data-name="Layer 1"><path class="cls-1" d="M212.19,0h20q17.29,0,23.33,1.51a25.87,25.87,0,0,1,14.13,8.75q5.49,6.62,5.49,16.64t-5.35,16.64q-5.35,6.56-14.75,8.81Q248.19,54,229.4,54h-7.21v48h-10Zm10,10V44l17,.2q10.29,0,15.06-1.87a15.38,15.38,0,0,0,7.49-6,16.71,16.71,0,0,0,2.73-9.35,16.51,16.51,0,0,0-2.73-9.21,15,15,0,0,0-7.19-5.95Q250.07,10,239.91,10Z"/><path class="cls-1" d="M320,0l47.1,101H355.93L340.15,68H297l-15.63,33H269.8L317.52,0Zm-1.27,21.22L301.31,58H336Z"/><path class="cls-1" d="M366.19,102V0h21.15q22.89,0,33.22,3.68a44.35,44.35,0,0,1,23.19,18q8.36,12.84,8.36,30.58,0,15.33-6.63,27T428.29,96.45Q417.72,102,398.64,102Zm10-10h11.74q21,0,29.19-2.62a33.65,33.65,0,0,0,18-13.41q6.56-9.69,6.56-23.69,0-14.7-7.11-25.11A35.8,35.8,0,0,0,414.78,12.9Q405.26,10,383.37,10h-7.18Z"/><path class="cls-1" d="M449.59,102,464.2,0h1.65l41.47,83.69L548.39,0H550L564.7,102h-10L544.62,29.05l-36.06,73H506L469.46,28.5l-10,73.5Z"/><path class="cls-1" d="M609,0l47.11,101H644.9L629.13,68H585.92L570.3,101H558.77L606.49,0Zm-1.27,21.22L590.28,58H625Z"/><path class="cls-2" d="M212.19,207V105h21.15q22.89,0,33.22,3.68a44.35,44.35,0,0,1,23.19,18q8.36,12.84,8.36,30.58,0,15.33-6.63,27t-17.19,17.19Q263.72,207,244.64,207Zm9-9h11.74q21,0,29.19-2.62a33.65,33.65,0,0,0,18-13.41q6.56-9.69,6.56-23.69,0-14.7-7.11-25.11a35.8,35.8,0,0,0-19.81-14.27q-9.52-2.9-31.41-2.9h-7.18Z"/><path class="cls-2" d="M341.56,105l47.56,102H377.48l-15.77-33H318.5l-15.63,33h-12l48.19-102Zm-1.29,22.22L322.86,164h34.73Z"/><path class="cls-2" d="M377.19,115v-9h56v9h-23v92h-10V115Z"/><path class="cls-2" d="M472.48,105l47.57,102H508.4l-15.77-33H449.42L433.8,207h-12L470,105Zm-1.29,22.22L453.78,164h34.74Z"/><path class="cls-2" d="M212.19,211h10v92h39v10h-49Z"/><path class="cls-2" d="M301.63,211,349.2,313H337.56l-15.78-33h-43.2L263,313H251l48.19-102Zm-1.28,22.22L282.94,270h34.73Z"/><path class="cls-2" d="M348.19,211H368.3q12.13,0,18.65,2.88a22.81,22.81,0,0,1,10.3,8.84A24.21,24.21,0,0,1,401,236a23.79,23.79,0,0,1-3.31,12.38,24.54,24.54,0,0,1-9.73,9q8,2.7,12.24,6.34a25.52,25.52,0,0,1,6.67,8.81,26.39,26.39,0,0,1,2.38,11.2,27.5,27.5,0,0,1-9,20.77q-9,8.49-24.09,8.49h-28Zm10,10v33h5.9q10.74,0,15.8-2a17,17,0,0,0,8-6.3,16.55,16.55,0,0,0,2.95-9.57q0-7.06-4.95-11.1t-15.76-4Zm0,43v39H370.8q11.15,0,16.35-2.18a18.54,18.54,0,0,0,8.34-6.81,17.75,17.75,0,0,0-1.28-21.85A22.82,22.82,0,0,0,382,265.24Q376.84,264,363.94,264Z"/><polygon class="cls-1" points="194.12 312.53 1.46 312.53 0 0.42 192.65 0.42 194.12 312.53"/><polygon class="cls-2" points="73.2 312.53 73.2 192.99 141.24 192.99 141.24 0.42 0 0.42 0 312.53 73.2 312.53"/></g></g></svg>