<?xml version="1.0" encoding="UTF-8" standalone="no"?>
<svg
   xmlns:dc="http://purl.org/dc/elements/1.1/"
   xmlns:cc="http://creativecommons.org/ns#"
   xmlns:rdf="http://www.w3.org/1999/02/22-rdf-syntax-ns#"
   xmlns:svg="http://www.w3.org/2000/svg"
   xmlns="http://www.w3.org/2000/svg"
   xmlns:sodipodi="http://sodipodi.sourceforge.net/DTD/sodipodi-0.dtd"
   xmlns:inkscape="http://www.inkscape.org/namespaces/inkscape"
   inkscape:version="1.0 (4035a4fb49, 2020-05-01)"
   sodipodi:docname="results.svg"
   id="svg58"
   version="1.1"
   overflow="hidden"
   height="720"
   width="1280">
  <metadata
     id="metadata62">
    <rdf:RDF>
      <cc:Work
         rdf:about="">
        <dc:format>image/svg+xml</dc:format>
        <dc:type
           rdf:resource="http://purl.org/dc/dcmitype/StillImage" />
      </cc:Work>
    </rdf:RDF>
  </metadata>
  <sodipodi:namedview
     inkscape:current-layer="g56"
     inkscape:window-maximized="1"
     inkscape:window-y="-8"
     inkscape:window-x="-8"
     inkscape:cy="360"
     inkscape:cx="640"
     inkscape:zoom="0.81953125"
     showgrid="false"
     id="namedview60"
     inkscape:window-height="1017"
     inkscape:window-width="1920"
     inkscape:pageshadow="2"
     inkscape:pageopacity="0"
     guidetolerance="10"
     gridtolerance="10"
     objecttolerance="10"
     borderopacity="1"
     bordercolor="#666666"
     pagecolor="#ffffff" />
  <defs
     id="defs14">
    <clipPath
       id="clip0">
      <path
         id="path2"
         clip-rule="evenodd"
         fill-rule="evenodd"
         d="M0 0 1280 0 1280 720 0 720Z" />
    </clipPath>
    <clipPath
       id="clip1">
      <path
         id="path5"
         clip-rule="evenodd"
         fill-rule="evenodd"
         d="M840 102 1108 102 1108 371 840 371Z" />
    </clipPath>
    <clipPath
       id="clip2">
      <path
         id="path8"
         clip-rule="evenodd"
         fill-rule="evenodd"
         d="M840 102 1108 102 1108 371 840 371Z" />
    </clipPath>
    <clipPath
       id="clip3">
      <path
         id="path11"
         clip-rule="evenodd"
         fill-rule="evenodd"
         d="M840 102 1108 102 1108 371 840 371Z" />
    </clipPath>
  </defs>
  <g
     id="g56"
     clip-path="url(#clip0)">
    <text
       id="text38"
       transform="translate(87.4666 182)"
       font-size="80"
       font-weight="400"
       font-family="Arial,Arial_MSFontService,sans-serif">•<tspan
   id="tspan18"
   y="0"
   x="48"
   font-family="Open Sans,Open Sans_MSFontService,sans-serif">Profitability</tspan><tspan
   id="tspan20"
   y="96"
   x="0">•</tspan><tspan
   id="tspan22"
   y="96"
   x="48"
   font-family="Open Sans,Open Sans_MSFontService,sans-serif">Growth</tspan><tspan
   id="tspan24"
   y="192"
   x="0">•</tspan><tspan
   id="tspan26"
   y="192"
   x="48"
   font-family="Open Sans,Open Sans_MSFontService,sans-serif">Market share</tspan><tspan
   id="tspan28"
   y="288"
   x="0">•</tspan><tspan
   id="tspan30"
   y="288"
   x="48"
   font-family="Open Sans,Open Sans_MSFontService,sans-serif">Working </tspan><tspan
   id="tspan32"
   y="288"
   x="379"
   font-family="Open Sans,Open Sans_MSFontService,sans-serif">capital</tspan><tspan
   id="tspan34"
   y="384"
   x="0">•</tspan><tspan
   id="tspan36"
   y="384"
   x="68.8333"
   font-family="Open Sans,Open Sans_MSFontService,sans-serif">…</tspan></text>
    <g
       id="g54"
       clip-path="url(#clip1)">
      <g
         id="g52"
         clip-path="url(#clip2)">
        <g
           id="g50"
           clip-path="url(#clip3)">
          <path
             id="path40"
             transform="matrix(1 0 -0 1.00373 840 102)"
             d="M55.8333 36.2917 39.0833 36.2917 39.0833 231.708 231.708 231.708 231.708 214.958 55.8333 214.958 55.8333 36.2917Z" />
          <path
             id="path42"
             transform="matrix(-1 8.74228e-08 -8.7749e-08 -1.00373 1261.54 337.375)"
             d="M189.833 36.2917 231.708 36.2917 231.708 198.208 189.833 198.208Z" />
          <path
             id="path44"
             transform="matrix(-1 8.74228e-08 -8.7749e-08 -1.00373 1144.29 393.417)"
             d="M131.208 92.125 173.083 92.125 173.083 198.208 131.208 198.208Z" />
          <path
             id="path46"
             transform="matrix(-1 8.74228e-08 -8.7749e-08 -1.00373 1027.04 443.854)"
             d="M72.5833 142.375 114.458 142.375 114.458 198.208 72.5833 198.208Z" />
          <path
             id="path48"
             transform="matrix(1 0 -0 1.00373 840 102)"
             d="M161.917 74.6492 161.917 36.2917 123.559 36.2917 138.802 51.5342 71.4388 118.897 79.3112 126.77 146.674 59.4346 161.917 74.6492Z" />
        </g>
      </g>
    </g>
    <rect
       y="502.72641"
       x="74.432793"
       height="97.616776"
       width="209.87607"
       id="rect887"
       style="fill:#ffffff;fill-opacity:1;fill-rule:evenodd;stroke-width:0;opacity:1" />
  </g>
</svg>
