<svg width="1280" height="720" xmlns="http://www.w3.org/2000/svg" xmlns:xlink="http://www.w3.org/1999/xlink" overflow="hidden"><defs><clipPath id="clip0"><path d="M0 0 1280 0 1280 720 0 720Z" fill-rule="evenodd" clip-rule="evenodd"/></clipPath><clipPath id="clip1"><path d="M175 288 364 288 364 477 175 477Z" fill-rule="evenodd" clip-rule="evenodd"/></clipPath><clipPath id="clip2"><path d="M175 288 364 288 364 477 175 477Z" fill-rule="evenodd" clip-rule="evenodd"/></clipPath><clipPath id="clip3"><path d="M175 288 364 288 364 477 175 477Z" fill-rule="evenodd" clip-rule="evenodd"/></clipPath><clipPath id="clip4"><path d="M558 67 747 67 747 256 558 256Z" fill-rule="evenodd" clip-rule="evenodd"/></clipPath><clipPath id="clip5"><path d="M558 67 747 67 747 256 558 256Z" fill-rule="evenodd" clip-rule="evenodd"/></clipPath><clipPath id="clip6"><path d="M558 67 747 67 747 256 558 256Z" fill-rule="evenodd" clip-rule="evenodd"/></clipPath><clipPath id="clip7"><path d="M331 67 520 67 520 256 331 256Z" fill-rule="evenodd" clip-rule="evenodd"/></clipPath><clipPath id="clip8"><path d="M331 67 520 67 520 256 331 256Z" fill-rule="evenodd" clip-rule="evenodd"/></clipPath><clipPath id="clip9"><path d="M331 67 520 67 520 256 331 256Z" fill-rule="evenodd" clip-rule="evenodd"/></clipPath><clipPath id="clip10"><path d="M789 94 978 94 978 283 789 283Z" fill-rule="evenodd" clip-rule="evenodd"/></clipPath><clipPath id="clip11"><path d="M789 94 978 94 978 283 789 283Z" fill-rule="evenodd" clip-rule="evenodd"/></clipPath><clipPath id="clip12"><path d="M789 94 978 94 978 283 789 283Z" fill-rule="evenodd" clip-rule="evenodd"/></clipPath><clipPath id="clip13"><path d="M449 372 638 372 638 561 449 561Z" fill-rule="evenodd" clip-rule="evenodd"/></clipPath><clipPath id="clip14"><path d="M449 372 638 372 638 561 449 561Z" fill-rule="evenodd" clip-rule="evenodd"/></clipPath><clipPath id="clip15"><path d="M449 372 638 372 638 561 449 561Z" fill-rule="evenodd" clip-rule="evenodd"/></clipPath><clipPath id="clip16"><path d="M689 396 878 396 878 585 689 585Z" fill-rule="evenodd" clip-rule="evenodd"/></clipPath><clipPath id="clip17"><path d="M689 396 878 396 878 585 689 585Z" fill-rule="evenodd" clip-rule="evenodd"/></clipPath><clipPath id="clip18"><path d="M689 396 878 396 878 585 689 585Z" fill-rule="evenodd" clip-rule="evenodd"/></clipPath><clipPath id="clip19"><path d="M991 288 1180 288 1180 477 991 477Z" fill-rule="evenodd" clip-rule="evenodd"/></clipPath><clipPath id="clip20"><path d="M991 288 1180 288 1180 477 991 477Z" fill-rule="evenodd" clip-rule="evenodd"/></clipPath><clipPath id="clip21"><path d="M991 288 1180 288 1180 477 991 477Z" fill-rule="evenodd" clip-rule="evenodd"/></clipPath></defs><g clip-path="url(#clip0)"><rect x="0" y="0" width="1280" height="720" fill="#FFFFFF"/><g clip-path="url(#clip1)"><g clip-path="url(#clip2)"><g clip-path="url(#clip3)"><path d="M228.156 417.938C228.156 425.549 221.986 431.719 214.375 431.719 206.764 431.719 200.594 425.549 200.594 417.938 200.594 410.326 206.764 404.156 214.375 404.156 221.986 404.156 228.156 410.326 228.156 417.938Z"/><path d="M342.344 417.938C342.344 425.549 336.174 431.719 328.562 431.719 320.951 431.719 314.781 425.549 314.781 417.938 314.781 410.326 320.951 404.156 328.562 404.156 336.174 404.156 342.344 410.326 342.344 417.938Z"/><path d="M182.875 335.25 293.125 335.25 293.125 382.5 182.875 382.5Z"/><path d="M308.875 354.938 320.688 354.938C324.231 354.938 327.381 357.3 328.169 360.647L332.106 374.231C332.106 374.428 332.303 374.428 332.303 374.625L308.875 374.625 308.875 354.938ZM320.688 347.062 301 347.062 301 374.625 301 386.438 301 417.938 308.875 417.938C308.875 407.109 317.734 398.25 328.562 398.25 339.391 398.25 348.25 407.109 348.25 417.938 352.581 417.938 356.125 414.394 356.125 410.062L356.125 390.375C356.125 387.816 354.944 385.65 352.975 384.075L342.541 376.2C341.163 375.216 340.178 373.641 339.784 372.066L335.847 358.481C333.878 351.788 327.578 347.062 320.688 347.062Z"/><path d="M293.125 417.938 234.062 417.938C234.062 407.109 225.203 398.25 214.375 398.25 203.547 398.25 194.688 407.109 194.688 417.938L182.875 417.938 182.875 390.375 293.125 390.375 293.125 417.938Z"/></g></g></g><g clip-path="url(#clip4)"><g clip-path="url(#clip5)"><g clip-path="url(#clip6)"><path d="M591.158 118.201 596.111 185.794 596.548 191.752 601.852 188.996 642.999 167.65 642.999 191.984 648.759 189.001 689.906 167.656 689.906 200.91 725.344 200.91 725.344 228.473 579.656 228.473 579.656 185.651 584.59 118.201ZM580.93 114.264 575.719 185.507 575.719 232.42 729.281 232.42 729.281 196.983 693.844 196.983 693.844 161.177 646.942 185.507 646.942 161.177 600.039 185.507 594.816 114.264Z"/><path d="M637.106 124.078C633.68 124.088 630.368 122.839 627.802 120.568 626.115 118.994 624.911 116.973 624.329 114.74 620.441 114.712 616.704 113.227 613.857 110.578L608.178 105.194C606.049 103.426 603.304 102.576 600.549 102.831L599.588 102.906C596.32 103.027 593.748 105.739 593.802 109.009L593.802 110.324 589.864 110.324 589.864 109.049C589.742 103.691 593.929 99.2204 599.283 98.9902L600.381 98.9095C604.194 98.5888 607.975 99.8197 610.869 102.323L616.551 107.708C619.029 110.004 622.383 111.108 625.741 110.732L627.725 110.509 627.922 112.496C628.11 114.467 629.008 116.303 630.45 117.66 634.395 121.098 640.31 120.963 644.093 117.349 644.66 116.812 645.16 116.208 645.582 115.551L646.369 114.311 647.781 114.723C652.22 116.007 657.007 114.854 660.375 111.691 664.885 107.734 665.334 100.87 661.377 96.36 661.376 96.3594 661.376 96.3586 661.375 96.358 661.186 96.1428 660.989 95.9361 660.784 95.7378 655.823 91.4188 648.389 91.5895 643.631 96.1316 641.439 98.1507 638.07 98.1694 635.856 96.1749 631.827 92.4685 625.633 92.4609 621.595 96.1572L620.807 96.9289C618.616 98.9686 615.227 98.9867 613.015 96.9703 610.315 94.5162 606.796 93.1578 603.147 93.1608L601.738 93.1903C593.213 92.9515 586.096 99.6415 585.807 108.165L585.807 110.318 581.869 110.318 581.869 108.111C582.279 97.4987 591.063 89.141 601.683 89.2587L603.116 89.2292C607.768 89.225 612.254 90.9593 615.694 94.092 616.372 94.7137 617.413 94.7137 618.09 94.092L618.878 93.3202C624.419 88.2107 632.949 88.1936 638.51 93.2808 639.207 93.8996 640.259 93.8919 640.947 93.2631 647.216 87.3258 656.979 87.1506 663.456 92.8595 663.799 93.1863 664.068 93.4698 664.328 93.7632 669.716 99.8821 669.135 109.207 663.031 114.61 659.018 118.353 653.448 119.931 648.068 118.849 647.684 119.328 647.267 119.78 646.822 120.203 644.207 122.704 640.724 124.093 637.106 124.078Z"/><path d="M606.524 208.553 606.524 216.316 593.554 216.316 593.554 208.553ZM589.616 204.616 589.616 220.253 610.461 220.253 610.461 204.616Z"/><path d="M641.278 208.553 641.278 216.316 628.298 216.316 628.298 208.553ZM624.37 204.616 624.37 220.253 645.216 220.253 645.216 204.616Z"/><path d="M676.013 208.553 676.013 216.316 663.041 216.316 663.041 208.553ZM659.103 204.616 659.103 220.253 679.95 220.253 679.95 204.616Z"/></g></g></g><g clip-path="url(#clip7)"><g clip-path="url(#clip8)"><g clip-path="url(#clip9)"><path d="M425.5 185.125 470.781 185.125 470.781 153.393C461.261 152.318 452.583 147.429 446.731 139.844L425.5 139.844ZM431.406 145.75 439.281 145.75 439.281 153.625 431.406 153.625Z"/><path d="M439.281 118.188C439.276 111.232 441.331 104.431 445.188 98.6418L445.188 88.6562 399.906 88.6562 399.906 133.938 443.022 133.938C440.567 129.05 439.286 123.657 439.281 118.188ZM413.688 102.438 405.812 102.438 405.812 94.5625 413.688 94.5625Z"/><path d="M419.594 139.844 374.312 139.844 374.312 185.125 419.594 185.125ZM388.094 153.625 380.219 153.625 380.219 145.75 388.094 145.75Z"/><path d="M451.094 236.312 494.406 236.312 494.406 191.031 451.094 191.031ZM457 196.938 464.875 196.938 464.875 204.812 457 204.812Z"/><path d="M399.906 236.312 445.188 236.312 445.188 191.031 399.906 191.031ZM405.812 196.938 413.688 196.938 413.688 204.812 405.812 204.812Z"/><path d="M348.719 236.312 394 236.312 394 191.031 348.719 191.031ZM354.625 196.938 362.5 196.938 362.5 204.812 354.625 204.812Z"/><path d="M474.719 88.6562C458.409 88.6562 445.188 101.878 445.188 118.188 445.188 134.497 458.409 147.719 474.719 147.719 491.028 147.719 504.25 134.497 504.25 118.188 504.25 101.878 491.028 88.6562 474.719 88.6562ZM468.812 132.207 454.911 118.308 459.089 114.13 468.812 123.856 488.38 104.286 492.558 108.464Z"/></g></g></g><g clip-path="url(#clip10)"><g clip-path="url(#clip11)"><g clip-path="url(#clip12)"><path d="M851.862 208.207C843.003 208.504 835.546 214.931 833.947 223.65 833.198 227.704 834.29 231.881 836.927 235.049 839.575 238.094 843.44 239.803 847.474 239.715 856.333 239.418 863.788 232.991 865.388 224.272 866.138 220.218 865.046 216.041 862.407 212.873 859.759 209.829 855.896 208.12 851.862 208.207ZM861.509 223.65C860.264 230.49 854.421 235.539 847.472 235.778 844.592 235.859 841.826 234.655 839.922 232.494 838.037 230.2 837.269 227.188 837.825 224.272 839.069 217.431 844.913 212.383 851.862 212.145 854.742 212.064 857.509 213.267 859.414 215.429 861.295 217.724 862.059 220.736 861.501 223.65Z"/><path d="M968.085 190.089 958.907 182.214C957.688 181.168 956.933 179.681 956.81 178.079L955.038 164.495C954.175 157.833 948.42 152.899 941.704 153.062L923.972 153.062 925.864 141.25 827.426 141.25 824.615 158.864 801.756 158.864 801.128 162.802 823.987 162.802 822.412 172.646 808.294 172.646 807.666 176.583 821.792 176.583 820.535 184.458 793.566 184.458 792.938 188.396 819.909 188.396 814.228 223.961 829.966 223.961C829.98 223.857 829.983 223.754 829.999 223.65 830.202 222.416 830.513 221.203 830.93 220.024L818.842 220.024 822.947 194.302 913.435 194.302 909.33 220.024 869.534 220.024C869.609 221.339 869.551 222.658 869.36 223.961L912.655 223.961 913.317 220.024 923.375 157 931.201 157 926.812 184.458 955.615 184.458C955.855 184.732 956.111 184.991 956.381 185.234L965.463 193.028C966.229 193.717 966.564 194.765 966.341 195.771L963.191 215.458C962.682 217.992 960.529 219.865 957.948 220.018L952.223 220.018C952.298 221.333 952.24 222.652 952.05 223.955L957.956 223.955C962.47 223.797 966.267 220.522 967.087 216.08L970.237 196.393C970.673 194.06 969.857 191.668 968.085 190.089ZM920.083 152.444 919.355 157 919.388 157 914.073 190.36 823.575 190.36 830.785 145.188 921.245 145.188ZM931.433 180.521 935.188 157 941.704 157C946.436 156.843 950.515 160.3 951.136 164.993L952.896 178.513C952.963 179.192 953.095 179.863 953.29 180.517Z"/><path d="M934.552 208.207C925.689 208.5 918.227 214.928 916.626 223.65 915.877 227.704 916.97 231.881 919.607 235.049 922.255 238.094 926.12 239.803 930.153 239.715 939.015 239.421 946.473 232.991 948.069 224.27 948.82 220.217 947.727 216.04 945.088 212.873 942.443 209.831 938.582 208.122 934.552 208.207ZM944.189 223.65 944.189 223.65C942.945 230.491 937.102 235.54 930.153 235.778 927.274 235.859 924.508 234.655 922.603 232.494 920.721 230.199 919.955 227.187 920.513 224.272 921.757 217.431 927.601 212.383 934.55 212.145 937.429 212.064 940.196 213.267 942.1 215.429 943.981 217.724 944.746 220.735 944.189 223.65Z"/></g></g></g><g clip-path="url(#clip13)"><g clip-path="url(#clip14)"><g clip-path="url(#clip15)"><path d="M553.344 385.781C553.344 389.043 550.699 391.688 547.438 391.688 544.176 391.688 541.531 389.043 541.531 385.781 541.531 382.519 544.176 379.875 547.438 379.875 550.699 379.875 553.344 382.519 553.344 385.781Z"/><path d="M563.188 403.5C563.188 406.762 560.543 409.406 557.281 409.406 554.019 409.406 551.375 406.762 551.375 403.5 551.375 400.238 554.019 397.594 557.281 397.594 560.543 397.594 563.188 400.238 563.188 403.5Z"/><path d="M541.531 399.562C541.531 402.824 538.887 405.469 535.625 405.469 532.363 405.469 529.719 402.824 529.719 399.562 529.719 396.301 532.363 393.656 535.625 393.656 538.887 393.656 541.531 396.301 541.531 399.562Z"/><path d="M547.438 421.219C547.438 425.568 543.912 429.094 539.562 429.094 535.213 429.094 531.688 425.568 531.688 421.219 531.688 416.87 535.213 413.344 539.562 413.344 543.912 413.344 547.438 416.87 547.438 421.219Z"/><path d="M581.891 536.588 559.25 485.4 559.25 450.75C559.25 443.663 564.959 440.709 565.156 440.513 567.125 439.528 567.912 437.166 566.928 435.197 566.141 433.819 564.763 433.031 563.188 433.031L563.188 433.031 523.812 433.031 523.812 433.031C522.237 433.031 520.859 433.819 520.072 435.197 519.088 437.166 519.875 439.528 521.844 440.513 521.844 440.513 527.75 443.663 527.75 450.75L527.75 485.4 505.109 536.588C503.534 540.328 503.928 544.463 506.094 547.809 508.259 551.156 512 553.125 515.938 553.125L571.062 553.125C575 553.125 578.741 551.156 580.906 547.809 583.072 544.463 583.466 540.328 581.891 536.588ZM551.375 450.75 551.375 458.625 535.625 458.625 535.625 450.75C535.625 446.616 534.444 443.466 533.066 440.906L554.131 440.906C552.556 443.466 551.375 446.616 551.375 450.75Z"/></g></g></g><g clip-path="url(#clip16)"><g clip-path="url(#clip17)"><g clip-path="url(#clip18)"><path d="M818.938 462.938 748.062 462.938 748.062 431.438 818.938 431.438 818.938 462.938ZM818.938 490.5 807.125 490.5 807.125 478.688 818.938 478.688 818.938 490.5ZM818.938 510.188 807.125 510.188 807.125 498.375 818.938 498.375 818.938 510.188ZM818.938 529.875 807.125 529.875 807.125 518.062 818.938 518.062 818.938 529.875ZM818.938 549.562 807.125 549.562 807.125 537.75 818.938 537.75 818.938 549.562ZM799.25 490.5 787.438 490.5 787.438 478.688 799.25 478.688 799.25 490.5ZM799.25 510.188 787.438 510.188 787.438 498.375 799.25 498.375 799.25 510.188ZM799.25 529.875 787.438 529.875 787.438 518.062 799.25 518.062 799.25 529.875ZM799.25 549.562 787.438 549.562 787.438 537.75 799.25 537.75 799.25 549.562ZM779.562 490.5 767.75 490.5 767.75 478.688 779.562 478.688 779.562 490.5ZM779.562 510.188 767.75 510.188 767.75 498.375 779.562 498.375 779.562 510.188ZM779.562 529.875 767.75 529.875 767.75 518.062 779.562 518.062 779.562 529.875ZM779.562 549.562 748.062 549.562 748.062 537.75 779.562 537.75 779.562 549.562ZM748.062 518.062 759.875 518.062 759.875 529.875 748.062 529.875 748.062 518.062ZM748.062 498.375 759.875 498.375 759.875 510.188 748.062 510.188 748.062 498.375ZM748.062 478.688 759.875 478.688 759.875 490.5 748.062 490.5 748.062 478.688ZM830.75 411.75 736.25 411.75C731.919 411.75 728.375 415.294 728.375 419.625L728.375 561.375C728.375 565.706 731.919 569.25 736.25 569.25L830.75 569.25C835.081 569.25 838.625 565.706 838.625 561.375L838.625 419.625C838.625 415.294 835.081 411.75 830.75 411.75Z"/></g></g></g><g clip-path="url(#clip19)"><g clip-path="url(#clip20)"><g clip-path="url(#clip21)"><path d="M1022.5 360.844 1052.03 360.844 1052.03 374.625 1065.81 360.844 1077.62 360.844 1085.5 374.625 1093.38 360.844 1105.19 360.844 1118.97 374.625 1118.97 360.844 1150.47 360.844C1154.82 360.844 1158.34 357.318 1158.34 352.969L1158.34 311.625C1158.34 307.276 1154.82 303.75 1150.47 303.75L1022.5 303.75C1018.15 303.75 1014.62 307.276 1014.62 311.625L1014.62 352.969C1014.62 357.318 1018.15 360.844 1022.5 360.844ZM1018.56 311.625C1018.56 309.45 1020.33 307.688 1022.5 307.688L1150.47 307.688C1152.64 307.688 1154.41 309.45 1154.41 311.625L1154.41 352.969C1154.41 355.143 1152.64 356.906 1150.47 356.906L1115.03 356.906 1115.03 365.12 1107.97 358.06 1106.82 356.906 1091.09 356.906 1089.96 358.891 1085.5 366.689 1081.04 358.891 1079.91 356.906 1064.18 356.906 1063.03 358.06 1055.97 365.12 1055.97 356.906 1022.5 356.906C1020.33 356.906 1018.56 355.143 1018.56 352.969Z"/><path d="M1034.31 321.469 1126.84 321.469 1126.84 325.406 1034.31 325.406Z"/><path d="M1034.31 331.312 1138.66 331.312 1138.66 335.25 1034.31 335.25Z"/><path d="M1034.31 341.156 1107.16 341.156 1107.16 345.094 1034.31 345.094Z"/><path d="M1113.58 399.707C1113.58 408.121 1120.4 414.939 1128.82 414.937 1137.23 414.935 1144.05 408.113 1144.05 399.699 1144.04 391.287 1137.22 384.469 1128.81 384.469 1120.4 384.47 1113.58 391.292 1113.58 399.707ZM1140.11 399.707C1140.11 405.946 1135.05 411.002 1128.81 411 1122.57 410.997 1117.51 405.938 1117.52 399.699 1117.52 393.462 1122.58 388.406 1128.81 388.406 1135.05 388.414 1140.1 393.469 1140.11 399.707Z"/><path d="M1030.89 400.11C1030.89 408.524 1037.72 415.343 1046.13 415.341 1054.54 415.339 1061.36 408.516 1061.36 400.103 1061.36 391.691 1054.54 384.872 1046.12 384.872 1037.71 384.874 1030.89 391.696 1030.89 400.11ZM1057.42 400.11C1057.42 406.349 1052.36 411.405 1046.12 411.403 1039.88 411.401 1034.83 406.342 1034.83 400.103 1034.83 393.865 1039.89 388.81 1046.12 388.81 1052.36 388.819 1057.42 393.873 1057.42 400.11Z"/><path d="M1156.64 427.031C1152.16 423.579 1147.03 421.07 1141.56 419.656 1137.43 418.386 1133.13 417.735 1128.81 417.725 1124.5 417.795 1120.23 418.442 1116.09 419.648 1110.68 421.221 1105.57 423.714 1101 427.017 1100.71 427.257 1100.42 427.513 1100.15 427.785 1100.55 427.895 1100.94 427.982 1101.35 428.1 1102.54 428.441 1103.69 428.819 1104.81 429.214 1108.61 426.688 1112.77 424.745 1117.15 423.45 1120.94 422.344 1124.86 421.748 1128.81 421.678 1132.76 421.69 1136.68 422.287 1140.45 423.45 1145.43 424.722 1150.09 426.986 1154.16 430.108 1155.51 431.155 1156.33 432.753 1156.38 434.463L1156.38 447.063 1160.31 447.063 1160.31 434.463C1160.26 431.559 1158.92 428.831 1156.64 427.031Z"/><path d="M1069.86 429.356C1071.13 428.88 1072.4 428.449 1073.67 428.088 1073.94 428.016 1074.19 427.964 1074.45 427.891 1074.29 427.74 1074.13 427.582 1073.95 427.443 1069.48 423.989 1064.35 421.479 1058.87 420.064 1054.74 418.795 1050.45 418.145 1046.12 418.134 1041.82 418.205 1037.54 418.851 1033.4 420.056 1027.99 421.628 1022.88 424.122 1018.32 427.427 1016.03 429.227 1014.67 431.959 1014.62 434.869L1014.62 447.469 1018.56 447.469 1018.56 434.869C1018.6 433.183 1019.38 431.602 1020.7 430.553 1024.88 427.56 1029.53 425.291 1034.46 423.844 1038.25 422.738 1042.18 422.142 1046.12 422.072 1050.07 422.085 1053.99 422.682 1057.77 423.844 1062.08 424.997 1066.17 426.86 1069.86 429.356Z"/><path d="M1115.29 439.249C1110.82 435.795 1105.69 433.285 1100.22 431.87 1096.09 430.604 1091.79 429.956 1087.47 429.947 1083.16 430.017 1078.88 430.664 1074.75 431.868 1069.33 433.441 1064.23 435.934 1059.66 439.239 1057.37 441.039 1056.02 443.772 1055.97 446.681L1055.97 459.281 1059.91 459.281 1059.91 446.681C1059.94 444.996 1060.73 443.414 1062.05 442.366 1066.22 439.372 1070.88 437.104 1075.81 435.656 1079.6 434.55 1083.52 433.954 1087.47 433.884 1091.42 433.897 1095.34 434.494 1099.11 435.656 1104.08 436.928 1108.74 439.193 1112.82 442.315 1114.17 443.364 1114.99 444.967 1115.03 446.681L1115.03 459.281 1118.97 459.281 1118.97 446.681C1118.92 443.777 1117.57 441.048 1115.29 439.249Z"/><path d="M1072.23 411.923C1072.24 420.337 1079.06 427.155 1087.47 427.153 1095.89 427.151 1102.71 420.329 1102.7 411.915 1102.7 403.503 1095.88 396.685 1087.47 396.685 1079.05 396.686 1072.23 403.508 1072.23 411.923ZM1098.77 411.923C1098.76 418.162 1093.7 423.218 1087.46 423.216 1081.23 423.214 1076.17 418.154 1076.17 411.915 1076.17 405.678 1081.23 400.622 1087.47 400.622 1093.71 400.631 1098.76 405.686 1098.77 411.923Z"/></g></g></g><text font-family="Calibri,Calibri_MSFontService,sans-serif" font-weight="400" font-size="24" transform="translate(219.954 473)">Supply<tspan x="144.256" y="-196">Quality</tspan><tspan x="381.567" y="-196">Production</tspan><tspan x="613.117" y="-196">Logistics</tspan><tspan x="842.941" y="12">Sales</tspan><tspan x="525.234" y="120">Finance</tspan><tspan x="289.655" y="120">R&amp;D</tspan></text></g></svg>