<svg xmlns="http://www.w3.org/2000/svg" xmlns:xlink="http://www.w3.org/1999/xlink" width="810" zoomAndPan="magnify" viewBox="0 0 607.5 374.999991" height="500" preserveAspectRatio="xMidYMid meet" version="1.0"><defs><g/><clipPath id="b700315143"><path d="M 0 0.152344 L 607 0.152344 L 607 374.84375 L 0 374.84375 Z M 0 0.152344 " clip-rule="nonzero"/></clipPath><clipPath id="17cfdf6235"><path d="M 259.125 213.535156 L 367.035156 213.535156 L 367.035156 286.226562 L 259.125 286.226562 Z M 259.125 213.535156 " clip-rule="nonzero"/></clipPath></defs><g clip-path="url(#b700315143)"><path fill="#ffffff" d="M 0 0.152344 L 607 0.152344 L 607 374.847656 L 0 374.847656 Z M 0 0.152344 " fill-opacity="1" fill-rule="nonzero"/><path fill="#ffffff" d="M 0 0.152344 L 607 0.152344 L 607 374.847656 L 0 374.847656 Z M 0 0.152344 " fill-opacity="1" fill-rule="nonzero"/></g><g fill="#737373" fill-opacity="1"><g transform="translate(270.281588, 276.721646)"><g><path d="M 42.71875 0 L 40.40625 -7.75 L 21.15625 -7.75 L 18.84375 0 L 0.796875 0 L 20.84375 -54.9375 L 41.359375 -54.9375 L 61.40625 0 Z M 24.828125 -20.046875 L 36.734375 -20.046875 L 30.984375 -39.609375 L 30.65625 -39.609375 Z M 24.828125 -20.046875 "/></g></g></g><g fill="#737373" fill-opacity="1"><g transform="translate(334.796807, 276.721646)"><g><path d="M 6.703125 0 L 6.703125 -54.9375 L 24.359375 -54.9375 L 24.359375 0 Z M 6.703125 0 "/></g></g></g><g clip-path="url(#17cfdf6235)"><path fill="#66cc00" d="M 286.265625 286.550781 L 259.152344 260.152344 L 274.496094 245.765625 L 285.503906 260.707031 C 285.503906 260.707031 320.898438 223.539062 367.019531 213.535156 C 314.421875 239.855469 286.265625 286.550781 286.265625 286.550781 Z M 286.265625 286.550781 " fill-opacity="1" fill-rule="nonzero"/></g><g fill="#0033cc" fill-opacity="1"><g transform="translate(39.148363, 143.857852)"><g><path d="M 29.21875 0 L 1.90625 -77.015625 L 28.3125 -77.015625 L 43.765625 -25.515625 L 44.21875 -25.515625 L 59.78125 -77.015625 L 85.078125 -77.015625 L 57.875 0 Z M 29.21875 0 "/></g></g></g><g fill="#0033cc" fill-opacity="1"><g transform="translate(129.59607, 143.857852)"><g><path d="M 9.40625 0 L 9.40625 -77.015625 L 34.140625 -77.015625 L 34.140625 0 Z M 9.40625 0 "/></g></g></g><g fill="#0033cc" fill-opacity="1"><g transform="translate(176.499115, 143.857852)"><g><path d="M 40.640625 -78.359375 C 50.484375 -78.359375 58.578125 -76.359375 64.921875 -72.359375 C 71.265625 -68.367188 74.507812 -62.457031 74.65625 -54.625 L 74.65625 -53.28125 L 51.484375 -53.28125 L 51.484375 -53.734375 C 51.484375 -55.972656 50.660156 -57.835938 49.015625 -59.328125 C 47.378906 -60.816406 44.882812 -61.5625 41.53125 -61.5625 C 38.25 -61.5625 35.726562 -61.078125 33.96875 -60.109375 C 32.21875 -59.140625 31.34375 -57.945312 31.34375 -56.53125 C 31.34375 -54.507812 32.535156 -53.015625 34.921875 -52.046875 C 37.304688 -51.078125 41.148438 -50.070312 46.453125 -49.03125 C 52.648438 -47.757812 57.742188 -46.429688 61.734375 -45.046875 C 65.722656 -43.671875 69.207031 -41.414062 72.1875 -38.28125 C 75.175781 -35.144531 76.710938 -30.890625 76.796875 -25.515625 C 76.796875 -16.410156 73.710938 -9.65625 67.546875 -5.25 C 61.390625 -0.851562 53.164062 1.34375 42.875 1.34375 C 30.851562 1.34375 21.503906 -0.671875 14.828125 -4.703125 C 8.148438 -8.734375 4.8125 -15.859375 4.8125 -26.078125 L 28.203125 -26.078125 C 28.203125 -22.203125 29.207031 -19.609375 31.21875 -18.296875 C 33.238281 -16.992188 36.378906 -16.34375 40.640625 -16.34375 C 43.765625 -16.34375 46.351562 -16.675781 48.40625 -17.34375 C 50.457031 -18.019531 51.484375 -19.398438 51.484375 -21.484375 C 51.484375 -23.359375 50.34375 -24.757812 48.0625 -25.6875 C 45.789062 -26.625 42.082031 -27.613281 36.9375 -28.65625 C 30.664062 -30 25.476562 -31.394531 21.375 -32.84375 C 17.269531 -34.300781 13.6875 -36.707031 10.625 -40.0625 C 7.570312 -43.425781 6.046875 -47.984375 6.046875 -53.734375 C 6.046875 -62.160156 9.3125 -68.367188 15.84375 -72.359375 C 22.375 -76.359375 30.640625 -78.359375 40.640625 -78.359375 Z M 40.640625 -78.359375 "/></g></g></g><g fill="#0033cc" fill-opacity="1"><g transform="translate(257.140042, 143.857852)"><g><path d="M 11.421875 0 L 11.421875 -78.359375 L 37.953125 -78.359375 C 43.847656 -78.359375 48.976562 -77.273438 53.34375 -75.109375 C 57.707031 -72.941406 61.082031 -69.898438 63.46875 -65.984375 C 65.851562 -62.066406 67.046875 -57.421875 67.046875 -52.046875 C 67.046875 -46.671875 65.851562 -42.023438 63.46875 -38.109375 C 61.082031 -34.191406 57.707031 -31.148438 53.34375 -28.984375 C 48.976562 -26.828125 43.847656 -25.75 37.953125 -25.75 L 21.265625 -25.75 L 21.265625 0 Z M 21.265625 -34.921875 L 37.71875 -34.921875 C 50.550781 -34.921875 56.96875 -40.59375 56.96875 -51.9375 C 56.96875 -63.28125 50.550781 -68.953125 37.71875 -68.953125 L 21.265625 -68.953125 Z M 21.265625 -34.921875 "/></g></g></g><g fill="#0033cc" fill-opacity="1"><g transform="translate(332.028086, 143.857852)"><g><path d="M 11.421875 0 L 11.421875 -78.359375 L 58.984375 -78.359375 L 58.984375 -69.171875 L 21.265625 -69.171875 L 21.265625 -44.4375 L 56.1875 -44.4375 L 56.1875 -35.375 L 21.265625 -35.375 L 21.265625 -9.171875 L 60.21875 -9.171875 L 60.21875 0 Z M 11.421875 0 "/></g></g></g><g fill="#0033cc" fill-opacity="1"><g transform="translate(402.886297, 143.857852)"><g><path d="M 46.125 1.453125 C 40.375 1.453125 35.070312 0.445312 30.21875 -1.5625 C 25.375 -3.582031 21.175781 -6.398438 17.625 -10.015625 C 14.082031 -13.640625 11.34375 -17.929688 9.40625 -22.890625 C 7.46875 -27.847656 6.5 -33.273438 6.5 -39.171875 C 6.5 -45.066406 7.46875 -50.492188 9.40625 -55.453125 C 11.34375 -60.421875 14.082031 -64.710938 17.625 -68.328125 C 21.175781 -71.953125 25.375 -74.769531 30.21875 -76.78125 C 35.070312 -78.800781 40.375 -79.8125 46.125 -79.8125 C 52.3125 -79.8125 58 -78.671875 63.1875 -76.390625 C 68.375 -74.117188 72.8125 -70.875 76.5 -66.65625 C 80.195312 -62.4375 82.90625 -57.457031 84.625 -51.71875 L 74.109375 -51.71875 C 72.085938 -57.382812 68.59375 -61.84375 63.625 -65.09375 C 58.664062 -68.34375 52.941406 -69.96875 46.453125 -69.96875 C 40.628906 -69.96875 35.476562 -68.660156 31 -66.046875 C 26.53125 -63.429688 23.003906 -59.8125 20.421875 -55.1875 C 17.847656 -50.5625 16.5625 -45.222656 16.5625 -39.171875 C 16.5625 -33.128906 17.847656 -27.796875 20.421875 -23.171875 C 23.003906 -18.546875 26.53125 -14.925781 31 -12.3125 C 35.476562 -9.695312 40.628906 -8.390625 46.453125 -8.390625 C 53.097656 -8.390625 58.992188 -10.101562 64.140625 -13.53125 C 69.285156 -16.96875 72.867188 -21.632812 74.890625 -27.53125 L 85.296875 -27.53125 C 83.734375 -21.71875 81.066406 -16.644531 77.296875 -12.3125 C 73.523438 -7.988281 68.972656 -4.613281 63.640625 -2.1875 C 58.304688 0.238281 52.46875 1.453125 46.125 1.453125 Z M 46.125 1.453125 "/></g></g></g><g fill="#0033cc" fill-opacity="1"><g transform="translate(497.587715, 143.857852)"><g><path d="M 30.328125 0 L 30.328125 -68.953125 L 3.8125 -68.953125 L 3.8125 -78.359375 L 66.609375 -78.359375 L 66.609375 -68.953125 L 40.1875 -68.953125 L 40.1875 0 Z M 30.328125 0 "/></g></g></g><g fill="#e6e6e6" fill-opacity="1"><g transform="translate(368.31253, 277.956677)"><g><path d="M 34.421875 1.09375 C 30.128906 1.09375 26.171875 0.34375 22.546875 -1.15625 C 18.929688 -2.664062 15.800781 -4.769531 13.15625 -7.46875 C 10.507812 -10.175781 8.460938 -13.378906 7.015625 -17.078125 C 5.566406 -20.785156 4.84375 -24.835938 4.84375 -29.234375 C 4.84375 -33.640625 5.566406 -37.691406 7.015625 -41.390625 C 8.460938 -45.097656 10.507812 -48.300781 13.15625 -51 C 15.800781 -53.707031 18.929688 -55.8125 22.546875 -57.3125 C 26.171875 -58.8125 30.128906 -59.5625 34.421875 -59.5625 C 39.046875 -59.5625 43.289062 -58.710938 47.15625 -57.015625 C 51.03125 -55.316406 54.34375 -52.894531 57.09375 -49.75 C 59.851562 -46.601562 61.875 -42.882812 63.15625 -38.59375 L 55.3125 -38.59375 C 53.800781 -42.832031 51.191406 -46.160156 47.484375 -48.578125 C 43.785156 -51.003906 39.515625 -52.21875 34.671875 -52.21875 C 30.328125 -52.21875 26.484375 -51.242188 23.140625 -49.296875 C 19.796875 -47.347656 17.160156 -44.644531 15.234375 -41.1875 C 13.316406 -37.738281 12.359375 -33.753906 12.359375 -29.234375 C 12.359375 -24.722656 13.316406 -20.738281 15.234375 -17.28125 C 17.160156 -13.832031 19.796875 -11.132812 23.140625 -9.1875 C 26.484375 -7.238281 30.328125 -6.265625 34.671875 -6.265625 C 39.628906 -6.265625 44.03125 -7.546875 47.875 -10.109375 C 51.71875 -12.671875 54.390625 -16.148438 55.890625 -20.546875 L 63.65625 -20.546875 C 62.488281 -16.203125 60.5 -12.414062 57.6875 -9.1875 C 54.875 -5.957031 51.472656 -3.4375 47.484375 -1.625 C 43.503906 0.1875 39.148438 1.09375 34.421875 1.09375 Z M 34.421875 1.09375 "/></g></g></g><g fill="#e6e6e6" fill-opacity="1"><g transform="translate(438.990064, 277.956677)"><g><path d="M 30.40625 1 C 23.332031 1 17.804688 -1.195312 13.828125 -5.59375 C 9.847656 -10 7.859375 -16.070312 7.859375 -23.8125 L 7.859375 -58.484375 L 15.125 -58.484375 L 15.125 -24.3125 C 15.125 -18.351562 16.429688 -13.84375 19.046875 -10.78125 C 21.660156 -7.71875 25.445312 -6.1875 30.40625 -6.1875 C 40.601562 -6.1875 45.703125 -12.226562 45.703125 -24.3125 L 45.703125 -58.484375 L 53.046875 -58.484375 L 53.046875 -23.8125 C 53.046875 -16.070312 51.039062 -10 47.03125 -5.59375 C 43.019531 -1.195312 37.476562 1 30.40625 1 Z M 30.40625 1 "/></g></g></g><g fill="#e6e6e6" fill-opacity="1"><g transform="translate(502.399364, 277.956677)"><g><path d="M 8.515625 0 L 8.515625 -58.484375 L 44.03125 -58.484375 L 44.03125 -51.625 L 15.875 -51.625 L 15.875 -33.171875 L 41.9375 -33.171875 L 41.9375 -26.40625 L 15.875 -26.40625 L 15.875 -6.84375 L 44.953125 -6.84375 L 44.953125 0 Z M 8.515625 0 "/></g></g></g><g fill="#737373" fill-opacity="1"><g transform="translate(160.037996, 274.564732)"><g><path d="M 4.8125 0 L 4.8125 -33.046875 L 17.609375 -33.046875 C 20.785156 -33.046875 23.328125 -32.25 25.234375 -30.65625 C 27.140625 -29.070312 28.09375 -26.941406 28.09375 -24.265625 C 28.09375 -22.660156 27.710938 -21.242188 26.953125 -20.015625 C 26.203125 -18.785156 25.148438 -17.828125 23.796875 -17.140625 C 25.492188 -16.453125 26.789062 -15.429688 27.6875 -14.078125 C 28.59375 -12.722656 29.046875 -11.113281 29.046875 -9.25 C 29.046875 -6.382812 28.078125 -4.125 26.140625 -2.46875 C 24.203125 -0.820312 21.5625 0 18.21875 0 Z M 8.96875 -3.875 L 18.125 -3.875 C 20.269531 -3.875 21.914062 -4.359375 23.0625 -5.328125 C 24.21875 -6.304688 24.796875 -7.675781 24.796875 -9.4375 C 24.796875 -11.207031 24.210938 -12.570312 23.046875 -13.53125 C 21.878906 -14.488281 20.222656 -14.96875 18.078125 -14.96875 L 8.96875 -14.96875 Z M 8.96875 -18.75 L 17.515625 -18.75 C 19.566406 -18.75 21.132812 -19.203125 22.21875 -20.109375 C 23.300781 -21.023438 23.84375 -22.300781 23.84375 -23.9375 C 23.84375 -25.601562 23.289062 -26.894531 22.1875 -27.8125 C 21.09375 -28.726562 19.535156 -29.1875 17.515625 -29.1875 L 8.96875 -29.1875 Z M 8.96875 -18.75 "/></g></g></g><g fill="#737373" fill-opacity="1"><g transform="translate(191.716657, 274.564732)"><g><path d="M 13.21875 0 L 13.21875 -11.90625 L 0.796875 -33.046875 L 5.625 -33.046875 L 11 -23.796875 L 15.296875 -16.34375 L 25.03125 -33.046875 L 29.703125 -33.046875 L 17.28125 -11.90625 L 17.28125 0 Z M 13.21875 0 "/></g></g></g></svg>