<svg xmlns="http://www.w3.org/2000/svg" xmlns:xlink="http://www.w3.org/1999/xlink" width="500" zoomAndPan="magnify" viewBox="0 0 375 374.999991" height="500" preserveAspectRatio="xMidYMid meet" version="1.0"><defs><g/><clipPath id="c84f304f0d"><path d="M 104 182.234375 L 253.988281 182.234375 L 253.988281 283.484375 L 104 283.484375 Z M 104 182.234375 " clip-rule="nonzero"/></clipPath></defs><g fill="#e6e6e6" fill-opacity="1"><g transform="translate(142.340928, 247.395458)"><g><path d="M 40.375 0 L 38.171875 -7.3125 L 20 -7.3125 L 17.8125 0 L 0.75 0 L 19.6875 -51.90625 L 39.078125 -51.90625 L 58.015625 0 Z M 23.46875 -18.9375 L 34.703125 -18.9375 L 29.28125 -37.421875 L 28.96875 -37.421875 Z M 23.46875 -18.9375 "/></g></g></g><g fill="#e6e6e6" fill-opacity="1"><g transform="translate(203.304502, 247.395458)"><g><path d="M 6.34375 0 L 6.34375 -51.90625 L 23.015625 -51.90625 L 23.015625 0 Z M 6.34375 0 "/></g></g></g><g clip-path="url(#c84f304f0d)"><path fill="#66cc00" d="M 141.707031 283.710938 L 104.027344 247.027344 L 125.351562 227.027344 L 140.648438 247.796875 C 140.648438 247.796875 189.839844 196.140625 253.941406 182.234375 C 180.839844 218.816406 141.707031 283.710938 141.707031 283.710938 Z M 141.707031 283.710938 " fill-opacity="1" fill-rule="nonzero"/></g><g fill="#0033cc" fill-opacity="1"><g transform="translate(23.029313, 158.203856)"><g><path d="M 18.765625 0 L 1.21875 -49.453125 L 18.1875 -49.453125 L 28.109375 -16.390625 L 28.390625 -16.390625 L 38.375 -49.453125 L 54.625 -49.453125 L 37.15625 0 Z M 18.765625 0 "/></g></g></g><g fill="#0033cc" fill-opacity="1"><g transform="translate(81.104972, 158.203856)"><g><path d="M 6.03125 0 L 6.03125 -49.453125 L 21.921875 -49.453125 L 21.921875 0 Z M 6.03125 0 "/></g></g></g><g fill="#0033cc" fill-opacity="1"><g transform="translate(111.220995, 158.203856)"><g><path d="M 26.09375 -50.3125 C 32.414062 -50.3125 37.613281 -49.03125 41.6875 -46.46875 C 45.757812 -43.90625 47.84375 -40.109375 47.9375 -35.078125 L 47.9375 -34.21875 L 33.0625 -34.21875 L 33.0625 -34.5 C 33.0625 -35.9375 32.535156 -37.132812 31.484375 -38.09375 C 30.429688 -39.050781 28.828125 -39.53125 26.671875 -39.53125 C 24.554688 -39.53125 22.9375 -39.21875 21.8125 -38.59375 C 20.6875 -37.96875 20.125 -37.203125 20.125 -36.296875 C 20.125 -35.003906 20.890625 -34.046875 22.421875 -33.421875 C 23.953125 -32.796875 26.421875 -32.148438 29.828125 -31.484375 C 33.804688 -30.671875 37.078125 -29.816406 39.640625 -28.921875 C 42.203125 -28.035156 44.441406 -26.585938 46.359375 -24.578125 C 48.273438 -22.566406 49.257812 -19.835938 49.3125 -16.390625 C 49.3125 -10.546875 47.332031 -6.207031 43.375 -3.375 C 39.425781 -0.550781 34.144531 0.859375 27.53125 0.859375 C 19.8125 0.859375 13.804688 -0.429688 9.515625 -3.015625 C 5.234375 -5.609375 3.09375 -10.1875 3.09375 -16.75 L 18.109375 -16.75 C 18.109375 -14.257812 18.753906 -12.59375 20.046875 -11.75 C 21.347656 -10.914062 23.363281 -10.5 26.09375 -10.5 C 28.101562 -10.5 29.765625 -10.710938 31.078125 -11.140625 C 32.398438 -11.566406 33.0625 -12.453125 33.0625 -13.796875 C 33.0625 -14.992188 32.328125 -15.890625 30.859375 -16.484375 C 29.398438 -17.085938 27.019531 -17.726562 23.71875 -18.40625 C 19.695312 -19.257812 16.367188 -20.15625 13.734375 -21.09375 C 11.097656 -22.03125 8.796875 -23.578125 6.828125 -25.734375 C 4.859375 -27.890625 3.875 -30.8125 3.875 -34.5 C 3.875 -39.914062 5.96875 -43.90625 10.15625 -46.46875 C 14.351562 -49.03125 19.664062 -50.3125 26.09375 -50.3125 Z M 26.09375 -50.3125 "/></g></g></g><g fill="#0033cc" fill-opacity="1"><g transform="translate(162.999807, 158.203856)"><g><path d="M 7.328125 0 L 7.328125 -50.3125 L 24.359375 -50.3125 C 28.148438 -50.3125 31.445312 -49.613281 34.25 -48.21875 C 37.050781 -46.832031 39.21875 -44.878906 40.75 -42.359375 C 42.28125 -39.847656 43.046875 -36.867188 43.046875 -33.421875 C 43.046875 -29.972656 42.28125 -26.988281 40.75 -24.46875 C 39.21875 -21.957031 37.050781 -20.003906 34.25 -18.609375 C 31.445312 -17.222656 28.148438 -16.53125 24.359375 -16.53125 L 13.65625 -16.53125 L 13.65625 0 Z M 13.65625 -22.421875 L 24.21875 -22.421875 C 32.457031 -22.421875 36.578125 -26.0625 36.578125 -33.34375 C 36.578125 -40.632812 32.457031 -44.28125 24.21875 -44.28125 L 13.65625 -44.28125 Z M 13.65625 -22.421875 "/></g></g></g><g fill="#0033cc" fill-opacity="1"><g transform="translate(211.084747, 158.203856)"><g><path d="M 7.328125 0 L 7.328125 -50.3125 L 37.875 -50.3125 L 37.875 -44.421875 L 13.65625 -44.421875 L 13.65625 -28.53125 L 36.078125 -28.53125 L 36.078125 -22.71875 L 13.65625 -22.71875 L 13.65625 -5.890625 L 38.671875 -5.890625 L 38.671875 0 Z M 7.328125 0 "/></g></g></g><g fill="#0033cc" fill-opacity="1"><g transform="translate(256.582166, 158.203856)"><g><path d="M 29.609375 0.9375 C 25.921875 0.9375 22.519531 0.289062 19.40625 -1 C 16.289062 -2.300781 13.59375 -4.113281 11.3125 -6.4375 C 9.039062 -8.757812 7.28125 -11.515625 6.03125 -14.703125 C 4.789062 -17.890625 4.171875 -21.375 4.171875 -25.15625 C 4.171875 -28.9375 4.789062 -32.421875 6.03125 -35.609375 C 7.28125 -38.796875 9.039062 -41.550781 11.3125 -43.875 C 13.59375 -46.195312 16.289062 -48.003906 19.40625 -49.296875 C 22.519531 -50.597656 25.921875 -51.25 29.609375 -51.25 C 33.585938 -51.25 37.238281 -50.515625 40.5625 -49.046875 C 43.894531 -47.585938 46.75 -45.503906 49.125 -42.796875 C 51.5 -40.085938 53.238281 -36.890625 54.34375 -33.203125 L 47.578125 -33.203125 C 46.285156 -36.847656 44.046875 -39.710938 40.859375 -41.796875 C 37.671875 -43.878906 33.992188 -44.921875 29.828125 -44.921875 C 26.085938 -44.921875 22.78125 -44.082031 19.90625 -42.40625 C 17.03125 -40.726562 14.765625 -38.40625 13.109375 -35.4375 C 11.460938 -32.46875 10.640625 -29.039062 10.640625 -25.15625 C 10.640625 -21.269531 11.460938 -17.84375 13.109375 -14.875 C 14.765625 -11.90625 17.03125 -9.582031 19.90625 -7.90625 C 22.78125 -6.226562 26.085938 -5.390625 29.828125 -5.390625 C 34.085938 -5.390625 37.867188 -6.488281 41.171875 -8.6875 C 44.484375 -10.894531 46.785156 -13.894531 48.078125 -17.6875 L 54.765625 -17.6875 C 53.765625 -13.945312 52.050781 -10.6875 49.625 -7.90625 C 47.207031 -5.125 44.285156 -2.953125 40.859375 -1.390625 C 37.429688 0.160156 33.679688 0.9375 29.609375 0.9375 Z M 29.609375 0.9375 "/></g></g></g><g fill="#0033cc" fill-opacity="1"><g transform="translate(317.389094, 158.203856)"><g><path d="M 19.484375 0 L 19.484375 -44.28125 L 2.4375 -44.28125 L 2.4375 -50.3125 L 42.765625 -50.3125 L 42.765625 -44.28125 L 25.796875 -44.28125 L 25.796875 0 Z M 19.484375 0 "/></g></g></g></svg>