<svg xmlns="http://www.w3.org/2000/svg" xmlns:xlink="http://www.w3.org/1999/xlink" width="810" zoomAndPan="magnify" viewBox="0 0 607.5 374.999991" height="500" preserveAspectRatio="xMidYMid meet" version="1.0"><defs><g/><clipPath id="c5f49ad1fd"><path d="M 0 0.152344 L 607 0.152344 L 607 374.84375 L 0 374.84375 Z M 0 0.152344 " clip-rule="nonzero"/></clipPath><clipPath id="705a49895b"><path d="M 192.9375 198.183594 L 380 198.183594 L 380 324.828125 L 192.9375 324.828125 Z M 192.9375 198.183594 " clip-rule="nonzero"/></clipPath></defs><g clip-path="url(#c5f49ad1fd)"><path fill="#ffffff" d="M 0 0.152344 L 607 0.152344 L 607 374.847656 L 0 374.847656 Z M 0 0.152344 " fill-opacity="1" fill-rule="nonzero"/><path fill="#ffffff" d="M 0 0.152344 L 607 0.152344 L 607 374.847656 L 0 374.847656 Z M 0 0.152344 " fill-opacity="1" fill-rule="nonzero"/></g><g fill="#e6e6e6" fill-opacity="1"><g transform="translate(224.029029, 289.84482)"><g><path d="M 71.03125 0 L 67.1875 -12.875 L 35.1875 -12.875 L 31.34375 0 L 1.328125 0 L 34.65625 -91.359375 L 68.78125 -91.359375 L 102.109375 0 Z M 41.296875 -33.328125 L 61.078125 -33.328125 L 51.515625 -65.859375 L 50.984375 -65.859375 Z M 41.296875 -33.328125 "/></g></g></g><g fill="#e6e6e6" fill-opacity="1"><g transform="translate(331.313015, 289.84482)"><g><path d="M 11.15625 0 L 11.15625 -91.359375 L 40.5 -91.359375 L 40.5 0 Z M 11.15625 0 "/></g></g></g><g clip-path="url(#705a49895b)"><path fill="#66cc00" d="M 239.988281 324.765625 L 192.988281 279.007812 L 219.585938 254.0625 L 238.671875 279.96875 C 238.671875 279.96875 300.03125 215.527344 379.996094 198.183594 C 288.804688 243.816406 239.988281 324.765625 239.988281 324.765625 Z M 239.988281 324.765625 " fill-opacity="1" fill-rule="nonzero"/></g><g fill="#0033cc" fill-opacity="1"><g transform="translate(39.148363, 143.857852)"><g><path d="M 29.21875 0 L 1.90625 -77.015625 L 28.3125 -77.015625 L 43.765625 -25.515625 L 44.21875 -25.515625 L 59.78125 -77.015625 L 85.078125 -77.015625 L 57.875 0 Z M 29.21875 0 "/></g></g></g><g fill="#0033cc" fill-opacity="1"><g transform="translate(129.59607, 143.857852)"><g><path d="M 9.40625 0 L 9.40625 -77.015625 L 34.140625 -77.015625 L 34.140625 0 Z M 9.40625 0 "/></g></g></g><g fill="#0033cc" fill-opacity="1"><g transform="translate(176.499115, 143.857852)"><g><path d="M 40.640625 -78.359375 C 50.484375 -78.359375 58.578125 -76.359375 64.921875 -72.359375 C 71.265625 -68.367188 74.507812 -62.457031 74.65625 -54.625 L 74.65625 -53.28125 L 51.484375 -53.28125 L 51.484375 -53.734375 C 51.484375 -55.972656 50.660156 -57.835938 49.015625 -59.328125 C 47.378906 -60.816406 44.882812 -61.5625 41.53125 -61.5625 C 38.25 -61.5625 35.726562 -61.078125 33.96875 -60.109375 C 32.21875 -59.140625 31.34375 -57.945312 31.34375 -56.53125 C 31.34375 -54.507812 32.535156 -53.015625 34.921875 -52.046875 C 37.304688 -51.078125 41.148438 -50.070312 46.453125 -49.03125 C 52.648438 -47.757812 57.742188 -46.429688 61.734375 -45.046875 C 65.722656 -43.671875 69.207031 -41.414062 72.1875 -38.28125 C 75.175781 -35.144531 76.710938 -30.890625 76.796875 -25.515625 C 76.796875 -16.410156 73.710938 -9.65625 67.546875 -5.25 C 61.390625 -0.851562 53.164062 1.34375 42.875 1.34375 C 30.851562 1.34375 21.503906 -0.671875 14.828125 -4.703125 C 8.148438 -8.734375 4.8125 -15.859375 4.8125 -26.078125 L 28.203125 -26.078125 C 28.203125 -22.203125 29.207031 -19.609375 31.21875 -18.296875 C 33.238281 -16.992188 36.378906 -16.34375 40.640625 -16.34375 C 43.765625 -16.34375 46.351562 -16.675781 48.40625 -17.34375 C 50.457031 -18.019531 51.484375 -19.398438 51.484375 -21.484375 C 51.484375 -23.359375 50.34375 -24.757812 48.0625 -25.6875 C 45.789062 -26.625 42.082031 -27.613281 36.9375 -28.65625 C 30.664062 -30 25.476562 -31.394531 21.375 -32.84375 C 17.269531 -34.300781 13.6875 -36.707031 10.625 -40.0625 C 7.570312 -43.425781 6.046875 -47.984375 6.046875 -53.734375 C 6.046875 -62.160156 9.3125 -68.367188 15.84375 -72.359375 C 22.375 -76.359375 30.640625 -78.359375 40.640625 -78.359375 Z M 40.640625 -78.359375 "/></g></g></g><g fill="#0033cc" fill-opacity="1"><g transform="translate(257.140042, 143.857852)"><g><path d="M 11.421875 0 L 11.421875 -78.359375 L 37.953125 -78.359375 C 43.847656 -78.359375 48.976562 -77.273438 53.34375 -75.109375 C 57.707031 -72.941406 61.082031 -69.898438 63.46875 -65.984375 C 65.851562 -62.066406 67.046875 -57.421875 67.046875 -52.046875 C 67.046875 -46.671875 65.851562 -42.023438 63.46875 -38.109375 C 61.082031 -34.191406 57.707031 -31.148438 53.34375 -28.984375 C 48.976562 -26.828125 43.847656 -25.75 37.953125 -25.75 L 21.265625 -25.75 L 21.265625 0 Z M 21.265625 -34.921875 L 37.71875 -34.921875 C 50.550781 -34.921875 56.96875 -40.59375 56.96875 -51.9375 C 56.96875 -63.28125 50.550781 -68.953125 37.71875 -68.953125 L 21.265625 -68.953125 Z M 21.265625 -34.921875 "/></g></g></g><g fill="#0033cc" fill-opacity="1"><g transform="translate(332.028086, 143.857852)"><g><path d="M 11.421875 0 L 11.421875 -78.359375 L 58.984375 -78.359375 L 58.984375 -69.171875 L 21.265625 -69.171875 L 21.265625 -44.4375 L 56.1875 -44.4375 L 56.1875 -35.375 L 21.265625 -35.375 L 21.265625 -9.171875 L 60.21875 -9.171875 L 60.21875 0 Z M 11.421875 0 "/></g></g></g><g fill="#0033cc" fill-opacity="1"><g transform="translate(402.886297, 143.857852)"><g><path d="M 46.125 1.453125 C 40.375 1.453125 35.070312 0.445312 30.21875 -1.5625 C 25.375 -3.582031 21.175781 -6.398438 17.625 -10.015625 C 14.082031 -13.640625 11.34375 -17.929688 9.40625 -22.890625 C 7.46875 -27.847656 6.5 -33.273438 6.5 -39.171875 C 6.5 -45.066406 7.46875 -50.492188 9.40625 -55.453125 C 11.34375 -60.421875 14.082031 -64.710938 17.625 -68.328125 C 21.175781 -71.953125 25.375 -74.769531 30.21875 -76.78125 C 35.070312 -78.800781 40.375 -79.8125 46.125 -79.8125 C 52.3125 -79.8125 58 -78.671875 63.1875 -76.390625 C 68.375 -74.117188 72.8125 -70.875 76.5 -66.65625 C 80.195312 -62.4375 82.90625 -57.457031 84.625 -51.71875 L 74.109375 -51.71875 C 72.085938 -57.382812 68.59375 -61.84375 63.625 -65.09375 C 58.664062 -68.34375 52.941406 -69.96875 46.453125 -69.96875 C 40.628906 -69.96875 35.476562 -68.660156 31 -66.046875 C 26.53125 -63.429688 23.003906 -59.8125 20.421875 -55.1875 C 17.847656 -50.5625 16.5625 -45.222656 16.5625 -39.171875 C 16.5625 -33.128906 17.847656 -27.796875 20.421875 -23.171875 C 23.003906 -18.546875 26.53125 -14.925781 31 -12.3125 C 35.476562 -9.695312 40.628906 -8.390625 46.453125 -8.390625 C 53.097656 -8.390625 58.992188 -10.101562 64.140625 -13.53125 C 69.285156 -16.96875 72.867188 -21.632812 74.890625 -27.53125 L 85.296875 -27.53125 C 83.734375 -21.71875 81.066406 -16.644531 77.296875 -12.3125 C 73.523438 -7.988281 68.972656 -4.613281 63.640625 -2.1875 C 58.304688 0.238281 52.46875 1.453125 46.125 1.453125 Z M 46.125 1.453125 "/></g></g></g><g fill="#0033cc" fill-opacity="1"><g transform="translate(497.587715, 143.857852)"><g><path d="M 30.328125 0 L 30.328125 -68.953125 L 3.8125 -68.953125 L 3.8125 -78.359375 L 66.609375 -78.359375 L 66.609375 -68.953125 L 40.1875 -68.953125 L 40.1875 0 Z M 30.328125 0 "/></g></g></g></svg>